<svg width="25" height="25" viewBox="0 0 25 25" fill="none" xmlns="http://www.w3.org/2000/svg">
<path d="M0.827123 7.05531C0.885585 5.77782 1.08561 4.9539 1.35613 4.25453L1.35976 4.24487C1.62783 3.5332 2.04776 2.88849 2.59034 2.35562L2.59795 2.34815L2.60543 2.34053C3.13874 1.79726 3.78367 1.37774 4.49472 1.11039L4.50699 1.1057C5.20476 0.83434 6.02706 0.635055 7.30562 0.576603M0.827123 7.05531C0.765663 8.42025 0.75 8.84336 0.75 12.3823C0.75 15.9222 0.764802 16.3443 0.827091 17.7095M0.827123 7.05531L0.827122 7.39962M1.36088 20.5204C1.62823 21.2315 2.04775 21.8764 2.59102 22.4097L2.59862 22.4172L2.60609 22.4248C3.13899 22.9674 3.78371 23.3873 4.49539 23.6554L4.50602 23.6594C5.20442 23.9303 6.02713 24.1296 7.30562 24.1881M1.36088 20.5204L1.35618 20.5082C1.08483 19.8104 0.885544 18.9881 0.827091 17.7095M1.36088 20.5204L1.34485 20.436M0.827091 17.7095L0.848025 17.8198M0.827091 17.7095L0.827092 17.3644M1.34485 20.436L0.848025 17.8198M1.34485 20.436C1.13384 19.8786 0.916563 19.1008 0.848025 17.8198M1.34485 20.436C1.35225 20.4556 1.35964 20.4749 1.36702 20.4939C1.63462 21.2153 2.05861 21.8685 2.60852 22.4066C3.14639 22.9564 3.79934 23.3803 4.52049 23.6479C5.09922 23.8733 5.91469 24.1089 7.30543 24.1726C8.70891 24.2365 9.14252 24.2495 12.6328 24.2495C16.1231 24.2495 16.5571 24.2365 17.9606 24.1726C19.3531 24.1088 20.1676 23.8719 20.7443 23.6482C21.4658 23.3807 22.1191 22.9567 22.6572 22.4065C23.2069 21.8687 23.6308 21.2158 23.8984 20.4947C24.1238 19.9159 24.3594 19.1005 24.4231 17.7097C24.487 16.3063 24.5 15.8718 24.5 12.3823C24.5 8.89291 24.487 8.45806 24.4231 7.05457C24.3589 5.65484 24.1199 4.83912 23.8952 4.26191C23.6014 3.50354 23.2289 2.92998 22.6562 2.35735C22.0848 1.787 21.5127 1.41425 20.7538 1.12019C20.1746 0.893721 19.3583 0.656145 17.9606 0.592093C17.8391 0.586561 17.7248 0.58141 17.6152 0.576617M0.848025 17.8198C0.846091 17.7836 0.844275 17.7471 0.842581 17.7101C0.837044 17.5885 0.83189 17.4741 0.827092 17.3644M7.30562 0.576603C8.67088 0.514313 9.09385 0.499512 12.6328 0.499512C16.1718 0.499512 16.5946 0.515158 17.9595 0.576617M7.30562 0.576603L7.65081 0.576604M17.9595 0.576617L17.6152 0.576617M17.9595 0.576617C19.2372 0.635057 20.0612 0.835056 20.7607 1.1056L20.7703 1.10928C21.482 1.37734 22.1267 1.79727 22.6595 2.33985L22.6669 2.34738L22.6745 2.35478C23.2171 2.8877 23.637 3.53258 23.9049 4.24446L23.9095 4.2565C24.1808 4.95427 24.3801 5.77658 24.4386 7.05513M7.65081 0.576604L17.6152 0.576617M7.65081 0.576604C8.80688 0.526054 9.44586 0.515173 12.6328 0.515173C15.8201 0.515173 16.4589 0.526056 17.6152 0.576617M7.65081 0.576604C7.54109 0.581401 7.42671 0.586556 7.30506 0.592093C5.91259 0.655906 5.09808 0.89281 4.52139 1.11648C3.79713 1.38497 3.14164 1.81121 2.60244 2.36434C2.03516 2.93396 1.66384 3.50478 1.37072 4.26126C1.14424 4.84052 0.90662 5.65719 0.842564 7.05494C0.837045 7.1762 0.831906 7.29023 0.827122 7.39962M24.4386 17.7095C24.3801 18.988 24.1808 19.8108 23.91 20.5092L23.9059 20.5198C23.6378 21.2315 23.2179 21.8762 22.6753 22.4091L22.6677 22.4165L22.6602 22.4241C22.1269 22.9674 21.482 23.3869 20.7709 23.6543L20.7587 23.659C20.0609 23.9303 19.2386 24.1296 17.96 24.1881M0.827092 17.3644C0.776542 16.2083 0.765661 15.5693 0.765661 12.3823C0.765661 9.19439 0.776535 8.55631 0.827122 7.39962M0.827092 17.3644L0.827122 7.39962M10.5194 17.4846C11.1894 17.7622 11.9076 17.905 12.6328 17.905C14.0975 17.905 15.5023 17.3232 16.538 16.2875C17.5737 15.2518 18.1555 13.847 18.1555 12.3823C18.1555 10.9176 17.5737 9.51291 16.538 8.4772C15.5023 7.4415 14.0975 6.85964 12.6328 6.85964C11.9076 6.85964 11.1894 7.00249 10.5194 7.28003C9.84935 7.55757 9.24053 7.96437 8.7277 8.4772C8.21487 8.99003 7.80807 9.59885 7.53053 10.2689C7.25299 10.9389 7.11014 11.6571 7.11014 12.3823C7.11014 13.1076 7.25299 13.8257 7.53053 14.4958C7.80807 15.1658 8.21487 15.7746 8.7277 16.2875C9.24053 16.8003 9.84935 17.2071 10.5194 17.4846ZM8.71539 8.4649C9.75436 7.42593 11.1635 6.84224 12.6328 6.84224C14.1022 6.84224 15.5113 7.42593 16.5503 8.4649C17.5892 9.50387 18.1729 10.913 18.1729 12.3823C18.1729 13.8517 17.5892 15.2608 16.5503 16.2998C15.5113 17.3388 14.1022 17.9224 12.6328 17.9224C11.1635 17.9224 9.75436 17.3388 8.71539 16.2998C7.67642 15.2608 7.09274 13.8517 7.09274 12.3823C7.09274 10.913 7.67642 9.50387 8.71539 8.4649ZM21.2925 5.55238C21.2925 5.97293 21.1255 6.37625 20.8281 6.67363C20.5307 6.971 20.1274 7.13806 19.7068 7.13806C19.2863 7.13806 18.883 6.971 18.5856 6.67363C18.2882 6.37625 18.1212 5.97293 18.1212 5.55238C18.1212 5.13183 18.2882 4.7285 18.5856 4.43113C18.883 4.13376 19.2863 3.9667 19.7068 3.9667C20.1274 3.9667 20.5307 4.13376 20.8281 4.43113C21.1255 4.7285 21.2925 5.13183 21.2925 5.55238Z" stroke="white" stroke-linejoin="round"/>
</svg>
