<svg width="170" height="66" viewBox="0 0 170 66" fill="none" xmlns="http://www.w3.org/2000/svg">
<path d="M32.6962 39.6367C31.3029 38.4582 29.6848 37.5148 27.8452 36.808C26.0041 36.1013 24.0579 35.5652 22.0082 35.1981C23.3757 34.7795 24.677 34.2289 25.9136 33.5479C27.1485 32.8685 28.2138 32.0426 29.1093 31.0734C30.0032 30.1042 30.7128 28.9515 31.2398 27.6169C31.7652 26.2806 32.0286 24.7495 32.0286 23.0204C32.0286 20.3495 31.5421 18.1761 30.569 16.4986C29.5959 14.8226 28.2542 13.5395 26.5456 12.6492C24.8354 11.7589 22.8116 11.1568 20.4709 10.8428C18.1303 10.5289 15.5924 10.3711 12.859 10.3711H0C0.682148 10.3711 1.40632 10.5418 2.16929 10.8814C2.93065 11.2228 3.64028 11.6671 4.29979 12.2177C4.95608 12.7683 5.49598 13.3833 5.91626 14.0643C6.33654 14.7453 6.54669 15.4521 6.54669 16.1862V59.5566C6.54669 60.2907 6.33654 60.9975 5.91626 61.6785C5.49436 62.3595 4.95608 62.9745 4.29979 63.5251C3.64189 64.0757 2.93227 64.5201 2.16929 64.8614C1.40632 65.2027 0.682148 65.3717 0 65.3717H12.859C16.3813 65.3717 19.6304 65.1882 22.6014 64.8211C25.5725 64.4557 28.1491 63.7215 30.333 62.6203C32.5152 61.5207 34.2109 59.9623 35.4216 57.945C36.6307 55.9294 37.2353 53.2697 37.2353 49.9694C37.2353 47.6655 36.8279 45.6611 36.0132 43.9594C35.1937 42.2561 34.0896 40.8152 32.6962 39.6367ZM12.8557 12.4125H14.7486C16.4314 12.4125 17.9832 12.596 19.4024 12.9631C20.8217 13.3302 22.0454 13.9323 23.0702 14.7695C24.095 15.6083 24.8968 16.7078 25.4755 18.0699C26.0542 19.4319 26.3435 21.0821 26.3435 23.0204C26.3435 25.1681 26.0542 26.9761 25.4755 28.4411C24.8968 29.9078 24.0821 31.0863 23.0298 31.9766C21.9775 32.8685 20.7538 33.4964 19.362 33.8618C17.9686 34.2289 16.4298 34.4124 14.747 34.4124H12.8557V12.4125ZM29.5021 55.8618C28.6066 57.5393 27.412 58.94 25.9119 60.0653C24.4135 61.1923 22.6903 62.0295 20.7441 62.5801C18.7979 63.1307 16.7999 63.4044 14.7486 63.4044H12.8557V36.4555H14.7486C19.8486 36.4555 23.8073 37.5551 26.6216 39.7559C29.4342 41.955 30.8422 45.3617 30.8422 49.9694C30.8422 52.2217 30.3944 54.1858 29.5021 55.8618Z" fill="white"/>
<path d="M47.0919 58.1829C49.0899 60.6718 51.4968 62.5957 54.3094 63.9577C57.1221 65.3198 60.2386 66.0008 63.6575 66.0008C67.0763 66.0008 70.1912 65.3214 73.0055 63.9577C75.8181 62.5957 78.2251 60.6718 80.223 58.1829C82.221 55.6955 83.7728 52.7219 84.8768 49.2654C85.9809 45.8088 86.5337 41.9578 86.5337 37.7156C86.5337 33.4734 85.9809 29.6111 84.8768 26.1272C83.7728 22.6449 82.221 19.6584 80.223 17.1695C78.2234 14.6821 75.8181 12.7566 73.0055 11.3946C70.1912 10.0326 67.0747 9.35156 63.6575 9.35156C60.2386 9.35156 57.1221 10.0326 54.3094 11.3946C51.4952 12.7566 49.0899 14.6821 47.0919 17.1695C45.0924 19.6584 43.5422 22.6433 42.4381 26.1272C41.3341 29.6111 40.7812 33.4734 40.7812 37.7156C40.7812 41.9578 41.3341 45.8088 42.4381 49.2654C43.5422 52.7219 45.0924 55.6955 47.0919 58.1829ZM48.314 28.4037C49.1287 25.2353 50.2586 22.3535 51.7069 19.7615C53.1521 17.1695 54.9027 15.0476 56.9524 13.3974C59.0037 11.7472 61.2376 10.9229 63.6575 10.9229C66.129 10.9229 68.3775 11.7472 70.403 13.3974C72.4268 15.0476 74.1499 17.1695 75.5708 19.7615C76.9901 22.3535 78.0957 25.2353 78.8846 28.4037C79.6734 31.5737 80.0678 34.6776 80.0678 37.714C80.0678 40.752 79.6734 43.8431 78.8846 46.9857C78.0957 50.1283 76.9771 52.9956 75.532 55.5892C74.0853 58.1829 72.3637 60.3032 70.3642 61.9534C68.3646 63.6036 66.1307 64.4278 63.6591 64.4278C61.2392 64.4278 59.0053 63.6036 56.954 61.9534C54.9027 60.3032 53.1537 58.1829 51.7086 55.5892C50.2618 52.9972 49.1319 50.1283 48.3156 46.9857C47.4993 43.8431 47.0935 40.7536 47.0935 37.714C47.0919 34.6776 47.4977 31.5737 48.314 28.4037Z" fill="white"/>
<path d="M149.251 6.36412C149.881 6.57341 150.644 6.73119 151.538 6.83584C152.432 6.9421 153.339 7.04513 154.26 7.14978C155.18 7.25603 156.048 7.38483 156.863 7.5426C157.677 7.70038 158.295 7.9628 158.717 8.32826V8.01432C158.348 7.28179 157.572 6.63942 156.389 6.08882C155.206 5.53822 153.943 4.97635 152.602 4.39999C151.26 3.82363 149.985 3.19575 148.776 2.51474C147.565 1.83534 146.724 0.996557 146.251 0C145.567 1.36202 145.434 2.60651 145.856 3.73186C146.28 4.85882 147.41 5.73624 149.251 6.36412Z" fill="white"/>
<path d="M163.767 12.7274C164.449 12.7805 165.16 13.1331 165.897 13.7883C166.633 14.4436 167.304 15.2421 167.91 16.1839C168.514 17.1274 169.014 18.1609 169.408 19.2879C169.803 20.4149 170 21.4758 170 22.4708V10.3704H134.658H134.342H119.275C119.906 10.3704 120.589 10.4767 121.327 10.6843C122.062 10.8936 122.707 11.1947 123.26 11.5875C123.813 11.9804 124.233 12.4392 124.522 12.9624C124.812 13.4873 124.85 14.0894 124.64 14.7688L112.019 61.2818L98.6087 15.0827C98.3986 14.3502 98.4244 13.695 98.6879 13.1186C98.9498 12.5422 99.3313 12.0576 99.8324 11.6648C100.332 11.272 100.936 10.958 101.646 10.7214C102.356 10.4863 103.027 10.3672 103.659 10.3672H84.248C84.9302 10.3672 85.6932 10.4734 86.5353 10.6811C87.3759 10.8904 88.1922 11.206 88.9811 11.6246C89.7699 12.0448 90.4925 12.5937 91.1504 13.2748C91.8066 13.9558 92.2673 14.7414 92.5308 15.6317L106.967 65.3662H113.357L127.005 14.8461C127.215 14.1135 127.61 13.4712 128.188 12.9206C128.767 12.37 129.436 11.8999 130.201 11.507C130.962 11.1142 131.74 10.8276 132.529 10.6425C133.258 10.4734 133.917 10.3849 134.51 10.372C135.144 10.3978 135.812 10.5652 136.512 10.8775C137.273 11.2189 137.984 11.6632 138.642 12.2138C139.298 12.7644 139.838 13.3794 140.259 14.0604C140.679 14.7414 140.889 15.4482 140.889 16.1823V59.5527C140.889 60.2868 140.679 60.9936 140.259 61.6746C139.837 62.3556 139.298 62.9706 138.642 63.5212C137.984 64.0718 137.275 64.5161 136.512 64.8575C135.749 65.1988 135.024 65.3678 134.342 65.3678H170V53.2674C170 54.2624 169.803 55.3105 169.408 56.4101C169.014 57.5097 168.513 58.532 167.91 59.4738C167.305 60.4172 166.634 61.2158 165.897 61.8694C165.16 62.5246 164.451 62.9046 163.767 63.0092H147.2V36.6125H153.984C154.666 36.6125 155.39 36.7832 156.153 37.1229C156.915 37.4642 157.624 37.9086 158.284 38.4592C158.94 39.0098 159.48 39.6248 159.9 40.3058C160.321 40.9868 160.531 41.6935 160.531 42.4277V28.4421C160.531 29.1762 160.321 29.883 159.9 30.564C159.478 31.245 158.94 31.86 158.284 32.4106C157.626 32.9612 156.916 33.4055 156.153 33.7468C155.39 34.0881 154.666 34.2572 153.984 34.2572H147.2V12.7274H163.767Z" fill="white"/>
</svg>
