<svg width="30" height="30" viewBox="0 0 30 30" fill="none" xmlns="http://www.w3.org/2000/svg">
<path d="M9.42467 9.5H7.7205C5.90905 9.5 5.00408 9.5 4.3598 9.86457C3.79442 10.1845 3.35981 10.6899 3.13287 11.2926C2.87442 11.979 3.02318 12.8596 3.32061 14.62L3.32123 14.6234L4.62214 22.3234C4.84282 23.6296 4.95389 24.2829 5.28427 24.773C5.57549 25.2051 5.98429 25.5466 6.46415 25.759C7.00852 25.9999 7.67942 26 9.02177 26H20.9786C22.3209 26 22.9914 25.9999 23.5357 25.759C24.0156 25.5466 24.4247 25.2051 24.7159 24.773C25.0463 24.2829 25.1568 23.6296 25.3775 22.3234L26.6784 14.6234L26.6796 14.618C26.9768 12.8589 27.1255 11.9788 26.8672 11.2926C26.6402 10.6899 26.2067 10.1845 25.6413 9.86457C24.997 9.5 24.0905 9.5 22.2791 9.5H20.5753M9.42467 9.5H20.5753M9.42467 9.5C9.42467 6.46243 11.9208 4 15 4C18.0791 4 20.5753 6.46243 20.5753 9.5" stroke="#0B0B0B" stroke-width="1.5" stroke-linecap="round" stroke-linejoin="round"/>
</svg>
