<svg width="23" height="21" viewBox="0 0 23 21" fill="none" xmlns="http://www.w3.org/2000/svg">
<path d="M6.26172 5.5H4.7334C3.10887 5.5 2.29728 5.5 1.71948 5.83143C1.21244 6.12227 0.822683 6.58168 0.619157 7.12964C0.387375 7.75367 0.520791 8.55416 0.787528 10.1546L0.788086 10.1576L1.95475 17.1576C2.15266 18.3451 2.25227 18.939 2.54856 19.3846C2.80973 19.7773 3.17635 20.0878 3.60669 20.2809C4.09489 20.4999 4.69655 20.5 5.90039 20.5H16.6234C17.8272 20.5 18.4285 20.4999 18.9167 20.2809C19.347 20.0878 19.7139 19.7773 19.9751 19.3846C20.2714 18.939 20.3705 18.345 20.5684 17.1576L21.735 10.1576L21.7362 10.1527C22.0027 8.55354 22.136 7.75343 21.9044 7.12964C21.7008 6.58168 21.312 6.12227 20.805 5.83143C20.2272 5.5 19.4142 5.5 17.7897 5.5H16.2617M6.26172 5.5H16.2617M6.26172 5.5C6.26172 2.73858 8.5003 0.5 11.2617 0.5C14.0231 0.5 16.2617 2.73858 16.2617 5.5" stroke="white" stroke-linecap="round" stroke-linejoin="round"/>
</svg>
