<svg width="30" height="30" viewBox="0 0 30 30" fill="none" xmlns="http://www.w3.org/2000/svg">
<path d="M3.07712 9.6808C3.13559 8.40331 3.33561 7.57939 3.60613 6.88002L3.60976 6.87036C3.87783 6.15869 4.29776 5.51398 4.84034 4.98111L4.84795 4.97364L4.85543 4.96602C5.38874 4.42275 6.03367 4.00323 6.74472 3.73588L6.75699 3.73118C7.45476 3.45983 8.27707 3.26054 9.55562 3.20209M3.07712 9.6808C3.01566 11.0457 3 11.4689 3 15.0078C3 18.5477 3.0148 18.9698 3.07709 20.335M3.07712 9.6808L3.07712 10.0251M3.61088 23.1459C3.87823 23.857 4.29775 24.5019 4.84102 25.0352L4.84862 25.0427L4.85609 25.0503C5.38899 25.5929 6.03371 26.0128 6.74539 26.2809L6.75602 26.2849C7.45442 26.5558 8.27713 26.7551 9.55562 26.8136M3.61088 23.1459L3.60618 23.1337C3.33483 22.4359 3.13554 21.6136 3.07709 20.335M3.61088 23.1459L3.59485 23.0615M3.07709 20.335L3.09803 20.4453M3.07709 20.335L3.07709 19.9899M3.59485 23.0615L3.09803 20.4453M3.59485 23.0615C3.38384 22.5041 3.16656 21.7263 3.09803 20.4453M3.59485 23.0615C3.60225 23.0811 3.60964 23.1004 3.61702 23.1194C3.88462 23.8408 4.30861 24.494 4.85852 25.0321C5.39639 25.5819 6.04934 26.0058 6.77049 26.2734C7.34922 26.4988 8.16469 26.7344 9.55543 26.7981C10.9589 26.862 11.3925 26.875 14.8828 26.875C18.3731 26.875 18.8071 26.862 20.2106 26.7981C21.6031 26.7343 22.4176 26.4974 22.9943 26.2737C23.7158 26.0062 24.3691 25.5822 24.9072 25.032C25.4569 24.4942 25.8808 23.8413 26.1484 23.1202C26.3738 22.5414 26.6094 21.726 26.6731 20.3352C26.737 18.9317 26.75 18.4973 26.75 15.0078C26.75 11.5184 26.737 11.0835 26.6731 9.68006C26.6089 8.28033 26.3699 7.46461 26.1452 6.8874C25.8514 6.12903 25.4789 5.55547 24.9062 4.98284C24.3348 4.41249 23.7627 4.03974 23.0038 3.74568C22.4246 3.51921 21.6083 3.28163 20.2106 3.21758C20.0891 3.21205 19.9748 3.2069 19.8652 3.20211M3.09803 20.4453C3.09609 20.4091 3.09427 20.3726 3.09258 20.3356C3.08704 20.214 3.08189 20.0996 3.07709 19.9899M9.55562 3.20209C10.9209 3.1398 11.3438 3.125 14.8828 3.125C18.4218 3.125 18.8446 3.14065 20.2095 3.20211M9.55562 3.20209L9.90081 3.20209M20.2095 3.20211L19.8652 3.20211M20.2095 3.20211C21.4872 3.26055 22.3112 3.46054 23.0107 3.73108L23.0203 3.73476C23.732 4.00283 24.3767 4.42276 24.9095 4.96534L24.9169 4.97287L24.9245 4.98027C25.4672 5.51319 25.887 6.15807 26.1549 6.86994L26.1595 6.88199C26.4308 7.57976 26.6301 8.40207 26.6886 9.68062M9.90081 3.20209L19.8652 3.20211M9.90081 3.20209C11.0569 3.15154 11.6959 3.14066 14.8828 3.14066C18.0701 3.14066 18.7089 3.15154 19.8652 3.20211M9.90081 3.20209C9.79109 3.20689 9.67671 3.21204 9.55506 3.21758C8.16259 3.28139 7.34808 3.5183 6.77139 3.74197C6.04713 4.01046 5.39164 4.4367 4.85244 4.98983C4.28516 5.55945 3.91384 6.13027 3.62072 6.88674C3.39424 7.46601 3.15662 8.28267 3.09256 9.68043C3.08705 9.80169 3.08191 9.91572 3.07712 10.0251M26.6886 20.335C26.6301 21.6135 26.4308 22.4363 26.16 23.1347L26.1559 23.1453C25.8878 23.857 25.4679 24.5017 24.9253 25.0345L24.9177 25.042L24.9102 25.0496C24.3769 25.5929 23.732 26.0124 23.0209 26.2798L23.0087 26.2845C22.3109 26.5558 21.4886 26.7551 20.21 26.8136M3.07709 19.9899C3.02654 18.8338 3.01566 18.1948 3.01566 15.0078C3.01566 11.8199 3.02653 11.1818 3.07712 10.0251M3.07709 19.9899L3.07712 10.0251M12.7694 20.1101C13.4394 20.3877 14.1576 20.5305 14.8828 20.5305C16.3475 20.5305 17.7523 19.9487 18.788 18.913C19.8237 17.8773 20.4055 16.4725 20.4055 15.0078C20.4055 13.5431 19.8237 12.1384 18.788 11.1027C17.7523 10.067 16.3475 9.48513 14.8828 9.48513C14.1576 9.48513 13.4394 9.62798 12.7694 9.90552C12.0993 10.1831 11.4905 10.5899 10.9777 11.1027C10.4649 11.6155 10.0581 12.2243 9.78053 12.8944C9.50299 13.5644 9.36014 14.2826 9.36014 15.0078C9.36014 15.7331 9.50299 16.4512 9.78053 17.1213C10.0581 17.7913 10.4649 18.4001 10.9777 18.913C11.4905 19.4258 12.0993 19.8326 12.7694 20.1101ZM10.9654 11.0904C12.0044 10.0514 13.4135 9.46773 14.8828 9.46773C16.3522 9.46773 17.7613 10.0514 18.8003 11.0904C19.8392 12.1294 20.4229 13.5385 20.4229 15.0078C20.4229 16.4772 19.8392 17.8863 18.8003 18.9253C17.7613 19.9642 16.3522 20.5479 14.8828 20.5479C13.4135 20.5479 12.0044 19.9642 10.9654 18.9253C9.92642 17.8863 9.34274 16.4772 9.34274 15.0078C9.34274 13.5385 9.92642 12.1294 10.9654 11.0904ZM23.5425 8.17787C23.5425 8.59842 23.3755 9.00174 23.0781 9.29911C22.7807 9.59649 22.3774 9.76355 21.9569 9.76355C21.5363 9.76355 21.133 9.59649 20.8356 9.29911C20.5382 9.00174 20.3712 8.59842 20.3712 8.17787C20.3712 7.75732 20.5382 7.35399 20.8356 7.05662C21.133 6.75925 21.5363 6.59218 21.9569 6.59218C22.3774 6.59218 22.7807 6.75925 23.0781 7.05662C23.3755 7.35399 23.5425 7.75732 23.5425 8.17787Z" stroke="black" stroke-linejoin="round"/>
</svg>
