<svg width="104" height="40" viewBox="0 0 104 40" fill="none" xmlns="http://www.w3.org/2000/svg">
<path d="M20.0024 24.0239C19.1499 23.3096 18.1601 22.7379 17.0347 22.3095C15.9083 21.8812 14.7177 21.5562 13.4638 21.3338C14.3004 21.0801 15.0965 20.7464 15.853 20.3337C16.6085 19.9219 17.2602 19.4214 17.808 18.834C18.3549 18.2466 18.789 17.548 19.1114 16.7391C19.4328 15.9292 19.594 15.0013 19.594 13.9534C19.594 12.3347 19.2963 11.0174 18.701 10.0007C18.1057 8.98499 17.2849 8.20734 16.2396 7.66776C15.1934 7.12819 13.9553 6.76327 12.5234 6.573C11.0914 6.38273 9.53887 6.28711 7.86665 6.28711H0C0.417313 6.28711 0.860337 6.39054 1.32709 6.59642C1.79286 6.80327 2.22699 7.07257 2.63046 7.40627C3.03195 7.73997 3.36224 8.11269 3.61935 8.52543C3.87646 8.93816 4.00502 9.3665 4.00502 9.81143V36.0965C4.00502 36.5414 3.87646 36.9698 3.61935 37.3825C3.36125 37.7953 3.03195 38.168 2.63046 38.5017C2.22798 38.8354 1.79385 39.1047 1.32709 39.3115C0.860337 39.5184 0.417313 39.6208 0 39.6208H7.86665C10.0215 39.6208 12.0091 39.5096 13.8267 39.2871C15.6443 39.0657 17.2206 38.6207 18.5566 37.9533C19.8916 37.2869 20.929 36.3424 21.6696 35.1198C22.4093 33.8982 22.7792 32.2863 22.7792 30.2861C22.7792 28.8898 22.53 27.675 22.0316 26.6437C21.5302 25.6114 20.8548 24.7381 20.0024 24.0239ZM7.86468 7.52433H9.02267C10.0521 7.52433 11.0015 7.63556 11.8697 7.85803C12.738 8.08049 13.4865 8.44542 14.1135 8.95279C14.7405 9.46115 15.231 10.1276 15.585 10.953C15.939 11.7785 16.116 12.7786 16.116 13.9534C16.116 15.255 15.939 16.3507 15.585 17.2387C15.231 18.1275 14.7326 18.8418 14.0888 19.3814C13.445 19.9219 12.6964 20.3024 11.845 20.5239C10.9926 20.7464 10.0511 20.8576 9.02169 20.8576H7.86468V7.52433ZM18.0483 33.8572C17.5005 34.8739 16.7697 35.7228 15.852 36.4048C14.9353 37.0879 13.8811 37.5952 12.6905 37.9289C11.4999 38.2626 10.2776 38.4285 9.02267 38.4285H7.86468V22.0958H9.02267C12.1426 22.0958 14.5644 22.7622 16.2861 24.0961C18.0068 25.4289 18.8681 27.4935 18.8681 30.2861C18.8681 31.6511 18.5942 32.8415 18.0483 33.8572Z" fill="#212121"/>
<path d="M28.8099 35.2617C30.0321 36.7702 31.5046 37.9362 33.2253 38.7617C34.946 39.5871 36.8525 39.9999 38.944 39.9999C41.0356 39.9999 42.9412 39.5881 44.6628 38.7617C46.3835 37.9362 47.856 36.7702 49.0782 35.2617C50.3005 33.7542 51.2499 31.9521 51.9253 29.8572C52.6007 27.7623 52.9389 25.4284 52.9389 22.8573C52.9389 20.2863 52.6007 17.9455 51.9253 15.8341C51.2499 13.7236 50.3005 11.9136 49.0782 10.4051C47.855 8.89762 46.3835 7.73065 44.6628 6.90519C42.9412 6.07972 41.0346 5.66699 38.944 5.66699C36.8525 5.66699 34.946 6.07972 33.2253 6.90519C31.5036 7.73065 30.0321 8.89762 28.8099 10.4051C27.5866 11.9136 26.6383 13.7226 25.9628 15.8341C25.2874 17.9455 24.9492 20.2863 24.9492 22.8573C24.9492 25.4284 25.2874 27.7623 25.9628 29.8572C26.6383 31.9521 27.5866 33.7542 28.8099 35.2617ZM29.5575 17.2137C30.0559 15.2935 30.7471 13.547 31.6332 11.976C32.5172 10.4051 33.5882 9.11911 34.8421 8.11899C36.097 7.11887 37.4637 6.6193 38.944 6.6193C40.4561 6.6193 41.8316 7.11887 43.0707 8.11899C44.3088 9.11911 45.363 10.4051 46.2322 11.976C47.1005 13.547 47.7769 15.2935 48.2594 17.2137C48.742 19.1349 48.9833 21.0161 48.9833 22.8564C48.9833 24.6976 48.742 26.5709 48.2594 28.4756C47.7769 30.3802 47.0925 32.118 46.2085 33.6898C45.3234 35.2617 44.2702 36.5468 43.047 37.5469C41.8237 38.547 40.4571 39.0466 38.945 39.0466C37.4647 39.0466 36.098 38.547 34.8431 37.5469C33.5882 36.5468 32.5182 35.2617 31.6341 33.6898C30.7491 32.1189 30.0578 30.3802 29.5585 28.4756C29.0591 26.5709 28.8109 24.6985 28.8109 22.8564C28.8099 21.0161 29.0581 19.1349 29.5575 17.2137Z" fill="#212121"/>
<path d="M91.3061 3.85704C91.6918 3.98389 92.1585 4.07951 92.7054 4.14293C93.2523 4.20733 93.807 4.26978 94.3707 4.3332C94.9334 4.3976 95.4644 4.47566 95.9628 4.57128C96.4612 4.6669 96.839 4.82594 97.0971 5.04743V4.85716C96.8716 4.41321 96.3969 4.02389 95.6731 3.6902C94.9492 3.3565 94.1769 3.01597 93.3561 2.66666C92.5353 2.31735 91.7551 1.93682 91.0154 1.52409C90.2747 1.11233 89.7605 0.603974 89.4707 0C89.0524 0.825464 88.9713 1.5797 89.2294 2.26173C89.4885 2.94474 90.1798 3.47651 91.3061 3.85704Z" fill="#212121"/>
<path d="M100.187 7.71362C100.604 7.74582 101.039 7.9595 101.49 8.35662C101.94 8.75374 102.35 9.2377 102.721 9.8085C103.091 10.3803 103.397 11.0067 103.638 11.6897C103.879 12.3727 104 13.0157 104 13.6187V6.28516H82.3787H82.1859H72.9684C73.3541 6.28516 73.7724 6.34955 74.2233 6.47542C74.6733 6.60227 75.0678 6.78473 75.406 7.02281C75.7442 7.26088 76.0013 7.53896 76.1783 7.85608C76.3554 8.17416 76.3791 8.53908 76.2505 8.95084L68.5293 37.1405L60.3254 9.14111C60.1968 8.69715 60.2126 8.30003 60.3738 7.95072C60.534 7.60141 60.7674 7.30772 61.074 7.06964C61.3795 6.83156 61.7494 6.6413 62.1835 6.49786C62.6176 6.35541 63.028 6.2832 63.4147 6.2832H51.54C51.9574 6.2832 52.4241 6.3476 52.9393 6.47347C53.4536 6.60032 53.9529 6.79156 54.4355 7.04525C54.9181 7.29991 55.3601 7.63263 55.7626 8.04537C56.1641 8.4581 56.4459 8.93425 56.6071 9.47383L65.439 39.616H69.348L77.6973 8.99767C77.8258 8.55372 78.0671 8.1644 78.4212 7.83071C78.7752 7.49701 79.1846 7.2121 79.6523 6.97402C80.1181 6.73594 80.5938 6.56226 81.0763 6.45005C81.5223 6.3476 81.9258 6.29394 82.2887 6.28613C82.6764 6.30174 83.0848 6.40322 83.513 6.59251C83.9788 6.79936 84.4139 7.06866 84.8163 7.40236C85.2178 7.73606 85.5481 8.10879 85.8052 8.52152C86.0623 8.93425 86.1909 9.3626 86.1909 9.80753V36.0926C86.1909 36.5375 86.0623 36.9659 85.8052 37.3786C85.5471 37.7914 85.2178 38.1641 84.8163 38.4978C84.4139 38.8315 83.9797 39.1008 83.513 39.3076C83.0462 39.5145 82.6032 39.6169 82.1859 39.6169H104V32.2834C104 32.8864 103.879 33.5216 103.638 34.188C103.397 34.8544 103.09 35.474 102.721 36.0448C102.351 36.6166 101.941 37.1005 101.49 37.4967C101.039 37.8938 100.605 38.1241 100.187 38.1875H90.0516V22.1895H94.2019C94.6193 22.1895 95.0623 22.2929 95.529 22.4988C95.9948 22.7056 96.4289 22.975 96.8324 23.3086C97.2339 23.6423 97.5642 24.0151 97.8213 24.4278C98.0784 24.8405 98.207 25.2689 98.207 25.7138V17.2377C98.207 17.6826 98.0784 18.111 97.8213 18.5237C97.5632 18.9364 97.2339 19.3091 96.8324 19.6428C96.4299 19.9765 95.9958 20.2458 95.529 20.4527C95.0623 20.6596 94.6193 20.762 94.2019 20.762H90.0516V7.71362H100.187Z" fill="#212121"/>
</svg>
