<svg width="40" height="40" viewBox="0 0 40 40" fill="none" xmlns="http://www.w3.org/2000/svg">
<path fill-rule="evenodd" clip-rule="evenodd" d="M17.6028 0.179705C12.0398 0.832819 6.63543 4.11586 3.44255 8.78141C2.4559 10.2232 1.19647 13.0146 0.682054 14.8994C-2.04453 24.8906 3.6437 35.5966 13.4621 38.954C18.2213 40.5813 24.0252 40.2922 28.3966 38.2101C37.9966 33.6377 42.496 22.3815 38.5994 12.686C37.5505 10.0757 36.2548 8.0486 34.4799 6.24077C30.9551 2.65067 27.0191 0.72457 22.1253 0.194834C19.7507 -0.0621496 19.6651 -0.0625756 17.6028 0.179705ZM23.2603 1.03504C29.181 2.0894 34.5475 6.0997 37.2457 11.4861C40.3067 17.5971 39.7512 25.2735 35.8334 30.9984C31.7912 36.9047 23.9341 40.2894 17.0583 39.0859C9.85693 37.8255 4.25667 33.1207 1.82894 26.2921C-0.678691 19.2385 1.15217 11.7161 6.70834 6.24482C9.43662 3.558 13.1149 1.67153 16.8444 1.0459C18.4311 0.779759 21.795 0.774006 23.2603 1.03504ZM21.4521 3.14098C21.1193 3.76618 21.18 4.07878 21.8156 5.01338C22.6354 6.21882 24.3767 7.68273 27.5829 9.86155C29.1028 10.8944 30.7039 12.0574 31.1414 12.4459L31.9364 13.1525L29.0221 13.1612C27.4193 13.1661 26.1077 13.2558 26.1077 13.3605C26.1077 13.6313 26.6611 13.8094 27.5028 13.8094C28.5252 13.8094 29.0763 14.4276 29.07 15.5674C29.0628 16.8357 25.4385 27.6601 25.021 27.6601C24.9377 27.6601 24.8027 27.3484 24.7209 26.9676C24.2978 24.9967 22.6963 23.0983 20.5435 22.0154C19.7255 21.6042 18.926 21.2675 18.7669 21.2675C18.1568 21.2675 18.5318 20.9274 19.6997 20.4211C23.4699 18.7867 24.5013 14.9443 21.8779 12.3069C20.23 10.65 19.1003 10.4 13.2622 10.4C10.2391 10.4 8.51547 10.4774 8.51547 10.6131C8.51547 10.7303 8.88045 10.8262 9.3264 10.8262C9.92369 10.8262 10.2724 10.9709 10.6511 11.3758L11.1649 11.9253L11.2281 19.4731L11.291 27.0209H12.3408H13.3904V24.3573V21.6937L15.0331 21.6958C16.8733 21.6981 18.2262 22.1936 19.7467 23.422C21.3593 24.7248 22.68 27.2133 22.9805 29.5153C23.1827 31.064 21.8654 32.6078 19.5343 33.5543C17.1876 34.5073 14.3595 34.4086 13.7696 33.353C13.62 33.0851 13.4869 31.982 13.4621 30.8032C13.4199 28.7955 13.4339 28.7256 13.8813 28.7273C15.0032 28.7311 17.2647 29.228 19.252 29.9076C21.4911 30.673 22.0805 30.7838 22.0805 30.4392C22.0805 29.875 18.0971 28.1453 15.4273 27.5506C12.5873 26.9177 10.549 27.3132 8.97435 28.8027C8.13649 29.5952 7.77596 30.2506 7.58033 31.3359C7.46502 31.9769 7.50126 32.135 7.76409 32.135C7.96205 32.135 8.09219 31.9453 8.09304 31.6555C8.09495 30.9553 8.80034 29.993 9.72276 29.4315C11.1657 28.5534 11.2709 28.6565 11.2709 30.953C11.2709 33.3106 11.0407 33.9547 10.0718 34.307C9.68206 34.4487 9.36328 34.6505 9.36328 34.7553C9.36328 34.8648 11.3752 34.907 14.0793 34.8542C19.3917 34.7504 20.2885 34.5616 22.2709 33.1299C22.8663 32.6999 23.4445 32.348 23.556 32.348C23.6675 32.348 23.9267 32.8232 24.1318 33.4039C24.6109 34.76 24.8285 34.4229 24.8328 32.3186C24.8353 30.9643 24.9417 30.4637 25.4657 29.3354C25.8122 28.5898 27.0433 25.2196 28.2016 21.846C30.3347 15.6339 30.8987 14.4591 31.9875 13.9603C32.4818 13.734 32.5897 13.7879 33.3381 14.6356C33.7853 15.1423 34.4159 16.0986 34.7395 16.7607C35.2633 17.8332 35.5394 18.3909 35.5394 20.0955C35.5394 21.9911 35.2652 22.3449 34.7637 23.3003C33.7713 25.1909 31.8569 26.6509 29.3285 27.446C28.7103 27.6403 28.1857 27.8879 28.1628 27.9962C28.0163 28.6893 31.0831 27.7714 32.7383 26.6264C34.0117 25.7455 35.3923 24.1793 35.9263 23.0097C36.2991 22.1929 36.5931 21.6937 36.5931 20.0344C36.5962 17.8582 36.3616 17.4639 35.5835 15.8808C34.5661 13.8113 33.0901 12.2967 29.1437 9.27279C25.9744 6.84445 23.6242 4.54246 23.1575 3.4099C22.9349 2.86972 22.7522 2.72887 22.2743 2.72887C21.8953 2.72887 21.5901 2.88187 21.4521 3.14098ZM18.5924 11.7107C21.3648 13.089 22.0905 17.2088 19.9415 19.3693C18.88 20.4365 17.3902 20.8814 15.159 20.7974L13.4964 20.7348L13.4604 16.052C13.4406 13.4766 13.4777 11.2826 13.5428 11.1767C13.6079 11.071 14.5343 11.0301 15.6015 11.0864C17.0899 11.1646 17.7864 11.3099 18.5924 11.7107Z" fill="black"/>
</svg>
