<svg width="24" height="24" viewBox="0 0 24 24" fill="none" xmlns="http://www.w3.org/2000/svg">
<path d="M8.62808 2.07152C8.24842 1.12238 7.32915 0.5 6.30688 0.5H2.86842C1.56038 0.5 0.5 1.56012 0.5 2.86816C0.5 13.9865 9.51347 23 20.6318 23C21.9399 23 23 21.9395 23 20.6315L23.0006 17.1924C23.0006 16.1702 22.3784 15.2511 21.4292 14.8714L18.1337 13.5537C17.2811 13.2126 16.3104 13.3661 15.6049 13.954L14.7544 14.6633C13.7611 15.4911 12.2995 15.4253 11.3852 14.511L8.99028 12.1138C8.07598 11.1995 8.00842 9.73917 8.83618 8.74585L9.54541 7.89537C10.1333 7.18994 10.2881 6.21895 9.94708 5.36636L8.62808 2.07152Z" stroke="white" stroke-linecap="round" stroke-linejoin="round"/>
</svg>
