<svg width="30" height="30" viewBox="0 0 30 30" fill="none" xmlns="http://www.w3.org/2000/svg">
<path fill-rule="evenodd" clip-rule="evenodd" d="M27.4961 14.9995C27.4961 21.9031 21.8997 27.4995 14.9961 27.4995C8.09253 27.4995 2.49609 21.9031 2.49609 14.9995C2.49609 8.09595 8.09253 2.49951 14.9961 2.49951C21.8997 2.49951 27.4961 8.09595 27.4961 14.9995ZM15.444 11.7276C14.2282 12.2333 11.7983 13.2799 8.1543 14.8676C7.56257 15.1029 7.2526 15.3331 7.22438 15.5582C7.17669 15.9386 7.65308 16.0884 8.30179 16.2924C8.39003 16.3201 8.48145 16.3489 8.57518 16.3793C9.21341 16.5868 10.0719 16.8295 10.5183 16.8391C10.9231 16.8479 11.375 16.681 11.8738 16.3384C15.2785 14.0401 17.0361 12.8785 17.1464 12.8534C17.2242 12.8358 17.3321 12.8136 17.4052 12.8785C17.4783 12.9435 17.4711 13.0665 17.4634 13.0995C17.4162 13.3007 15.5462 15.0392 14.5785 15.9389C14.2768 16.2193 14.0628 16.4183 14.0191 16.4637C13.9211 16.5655 13.8212 16.6618 13.7252 16.7543C13.1323 17.3259 12.6877 17.7545 13.7498 18.4545C14.2603 18.7909 14.6687 19.069 15.0762 19.3465C15.5213 19.6496 15.9651 19.9519 16.5394 20.3283C16.6857 20.4243 16.8255 20.5239 16.9616 20.6209C17.4795 20.9901 17.9448 21.3218 18.5196 21.2689C18.8536 21.2382 19.1986 20.9241 19.3739 19.9874C19.788 17.7736 20.6019 12.9771 20.7901 11.0005C20.8065 10.8274 20.7858 10.6057 20.7692 10.5084C20.7525 10.4112 20.7177 10.2725 20.5913 10.1699C20.4415 10.0484 20.2103 10.0228 20.1069 10.0245C19.6367 10.0329 18.9154 10.2837 15.444 11.7276Z" stroke="white" stroke-linejoin="round"/>
</svg>
