<svg width="30" height="30" viewBox="0 0 30 30" fill="none" xmlns="http://www.w3.org/2000/svg">
<path d="M8.87355 23.4H8.86867C3.00441 21.7496 3.08742 15.6656 3.15578 12.4186C3.22414 9.1715 3.85402 6.54943 5.64113 4.76232C8.85402 1.8131 15.4507 2.20861 15.4507 2.20861C21.0464 2.23302 23.5562 4.05431 24.1763 4.6256C26.2368 6.41759 27.3794 10.3824 26.6079 16.6617C25.8657 22.7457 21.2808 23.3317 20.4702 23.5953C20.1187 23.7076 17.0376 24.4791 13.0239 24.1422C13.0239 24.1422 11 25.4995 10.0894 26.2272C9.99033 26.3063 9.5 26.4995 9.5 25.9995C9.5 25.4995 8.87355 23.4 8.87355 23.4ZM8.87355 23.4C8.86867 23.4 8.86867 23.4 8.87355 23.4ZM18.0679 12.2574C17.9995 10.8561 17.2427 10.0748 15.8804 10.0016M21.354 13.4635C21.3198 9.17638 18.4243 6.69103 14.8257 6.66662M20.8023 18.2535V18.2633C20.2749 19.191 19.2886 20.2164 18.273 19.8893L18.2632 19.8746C17.2329 19.5865 14.8062 18.3365 13.273 17.1158C12.482 16.4908 11.7593 15.7535 11.2027 15.0455C10.6997 14.4156 10.1919 13.6686 9.69875 12.7701C8.65871 10.8902 8.42922 10.0504 8.42922 10.0504C8.10207 9.03478 9.12258 8.04845 10.0552 7.52111H10.065C10.5142 7.28673 10.9439 7.36486 11.232 7.71154C11.232 7.71154 11.8374 8.43419 12.0962 8.79064C12.3404 9.12267 12.6675 9.6549 12.8384 9.95275C13.1362 10.485 12.9507 11.027 12.6577 11.2516L12.0718 11.7203C11.7739 11.9596 11.813 12.4039 11.813 12.4039C11.813 12.4039 12.6821 15.6901 15.9292 16.5201C15.9292 16.5201 16.3736 16.5592 16.6128 16.2613L17.0816 15.6754C17.3062 15.3824 17.8482 15.1969 18.3804 15.4947C19.0982 15.9 20.0112 16.5299 20.6167 17.1012C20.9585 17.3795 21.0366 17.8043 20.8023 18.2535Z" stroke="white" stroke-linecap="round" stroke-linejoin="round"/>
</svg>
