<svg width="30" height="30" viewBox="0 0 30 30" fill="none" xmlns="http://www.w3.org/2000/svg">
<path d="M8.8032 24.4649H8.79825C2.86212 22.7557 2.94614 16.4549 3.01534 13.0921C3.08454 9.72933 3.72214 7.01382 5.53116 5.16303C8.78343 2.10872 15.461 2.51832 15.461 2.51832C21.1253 2.5436 23.6658 4.42979 24.2935 5.02144C26.3793 6.87729 27.5359 10.9834 26.7549 17.4865C26.0037 23.7873 21.3625 24.3941 20.542 24.6671C20.1861 24.7834 17.0673 25.5824 13.0045 25.2335C13.0045 25.2335 10.9557 26.6392 10.0339 27.3928C9.93366 27.4747 9.43732 27.6748 9.43732 27.157C9.43732 26.6392 8.8032 24.4649 8.8032 24.4649ZM8.8032 24.4649C8.79826 24.4649 8.79826 24.4649 8.8032 24.4649ZM18.1102 12.9252C18.041 11.4739 17.2749 10.6648 15.8959 10.589M21.4366 14.1743C21.402 9.73439 18.471 7.16047 14.8283 7.13519M20.8781 19.135V19.1451C20.3443 20.1059 19.3459 21.1678 18.3178 20.829L18.3079 20.8139C17.265 20.5155 14.8085 19.221 13.2565 17.9568C12.4558 17.3095 11.7243 16.5459 11.1608 15.8127C10.6518 15.1603 10.1377 14.3866 9.63851 13.4562C8.58572 11.5093 8.35342 10.6396 8.35342 10.6396C8.02226 9.58774 9.05527 8.56626 9.99932 8.02013H10.0092C10.4639 7.7774 10.8989 7.85831 11.1905 8.21734C11.1905 8.21734 11.8034 8.96575 12.0654 9.3349C12.3125 9.67876 12.6436 10.23 12.8166 10.5384C13.1181 11.0896 12.9303 11.6509 12.6338 11.8835L12.0406 12.369C11.7391 12.6168 11.7787 13.0769 11.7787 13.0769C11.7787 13.0769 12.6585 16.4802 15.9453 17.3398C15.9453 17.3398 16.3951 17.3803 16.6373 17.0718L17.1118 16.465C17.3392 16.1616 17.8878 15.9694 18.4266 16.2779C19.1531 16.6976 20.0774 17.3499 20.6903 17.9416C21.0363 18.2298 21.1154 18.6698 20.8781 19.135Z" stroke="black" stroke-linecap="round" stroke-linejoin="round"/>
</svg>
