<svg width="335" height="61" viewBox="0 0 335 61" fill="none" xmlns="http://www.w3.org/2000/svg">
<path d="M40.6366 20.7568C40.4702 21.0267 40.2588 21.2695 39.998 21.4899C39.7371 21.7103 39.4583 21.8857 39.1569 22.0207C38.8556 22.1556 38.5677 22.2231 38.2979 22.2231H43.3802C44.7745 22.2231 46.0563 22.1511 47.2302 22.0027C48.4041 21.8587 49.4206 21.5664 50.2841 21.1301C51.1477 20.6938 51.8178 20.0777 52.2946 19.2771C52.7713 18.4765 53.0097 17.4241 53.0097 16.1107C53.0097 15.1977 52.8478 14.4016 52.5285 13.727C52.2046 13.0523 51.7684 12.4811 51.2196 12.0133C50.6664 11.5456 50.0278 11.1723 49.3037 10.8889C48.575 10.6101 47.8059 10.3942 46.9964 10.2503C47.5361 10.0839 48.0488 9.86798 48.539 9.59362C49.0248 9.32376 49.4476 8.99541 49.8029 8.61311C50.1582 8.23081 50.4371 7.77205 50.644 7.24132C50.8508 6.7106 50.9543 6.10342 50.9543 5.41978C50.9543 4.35833 50.7609 3.49927 50.3786 2.83362C49.9918 2.16796 49.4656 1.65971 48.7909 1.3044C48.1163 0.949083 47.3157 0.710722 46.3892 0.589285C45.4626 0.46335 44.4597 0.400391 43.3802 0.400391H38.2979C38.5677 0.400391 38.8556 0.467834 39.1569 0.602764C39.4583 0.737694 39.7371 0.913099 39.998 1.13349C40.2588 1.34937 40.4702 1.59675 40.6366 1.86661C40.8031 2.13647 40.884 2.41532 40.884 2.70767V19.9157C40.884 20.2036 40.7986 20.4869 40.6366 20.7568ZM43.3802 1.20997H44.1268C44.7925 1.20997 45.4042 1.28192 45.9664 1.43035C46.5286 1.57877 47.0098 1.81713 47.4146 2.14546C47.8194 2.47829 48.1343 2.91458 48.3636 3.4543C48.593 3.99402 48.7055 4.65067 48.7055 5.41978C48.7055 6.27433 48.593 6.98947 48.3636 7.56967C48.1343 8.14987 47.8149 8.61763 47.3966 8.97294C46.9828 9.32826 46.4971 9.57562 45.9484 9.71954C45.3952 9.86347 44.788 9.93542 44.1268 9.93542H43.3802V1.20997ZM43.3802 10.7495H44.1268C46.1418 10.7495 47.707 11.1858 48.8179 12.0583C49.9288 12.9309 50.4865 14.2802 50.4865 16.1107C50.4865 17.0058 50.3111 17.7838 49.9558 18.4495C49.6005 19.1152 49.1282 19.6684 48.539 20.1181C47.9454 20.5634 47.2662 20.8963 46.4971 21.1166C45.728 21.337 44.9364 21.445 44.1268 21.445H43.3802V10.7495Z" fill="white"/>
<path d="M79.4608 21.752C79.2449 21.9184 78.9931 22.0398 78.7142 22.1118C78.4354 22.1838 78.1565 22.2197 77.8867 22.2197H85.5237C85.2538 22.2197 84.957 22.1613 84.6332 22.0488C84.3093 21.9364 83.999 21.779 83.6976 21.5811C83.3963 21.3832 83.1309 21.1403 82.9015 20.848C82.6722 20.5556 82.5147 20.2453 82.4338 19.9124L78.0081 0.39708C77.9226 0.460048 77.8327 0.523007 77.7292 0.585975C77.5628 0.7299 77.3154 0.846844 76.9826 0.927802C76.7352 0.990769 76.4429 1.01775 76.1101 1.00425C75.7772 0.995259 75.6018 0.986273 75.5793 0.986273L70.5599 20.3757C70.497 20.6231 70.3485 20.866 70.1102 21.0909C69.8718 21.3202 69.6019 21.5181 69.3006 21.6845C68.9993 21.8509 68.6889 21.9814 68.3651 22.0758C68.1042 22.1523 67.8749 22.1883 67.6635 22.2018V17.4162C67.6635 17.812 67.587 18.2258 67.4296 18.6621C67.2722 19.0984 67.0743 19.5032 66.8359 19.8765C66.5975 20.2498 66.3321 20.5691 66.0398 20.8255C65.7474 21.0863 65.4686 21.2348 65.1987 21.2752H58.6546V10.8002H61.3352C61.6051 10.8002 61.8929 10.8676 62.1943 11.0026C62.4956 11.1375 62.7745 11.3129 63.0353 11.5333C63.2962 11.7492 63.5076 11.9965 63.674 12.2664C63.8404 12.5363 63.9214 12.8151 63.9214 13.1075V7.55736C63.9214 7.84971 63.8359 8.12856 63.674 8.39842C63.5076 8.66828 63.2962 8.91116 63.0353 9.13154C62.7745 9.35193 62.4956 9.52733 62.1943 9.66226C61.8929 9.79719 61.6051 9.86466 61.3352 9.86466H58.6546V1.3236H65.2032C65.4731 1.34609 65.7519 1.48552 66.0443 1.74638C66.3366 2.00724 66.602 2.32208 66.8404 2.69538C67.0788 3.06869 67.2767 3.47797 67.4341 3.92774C67.5915 4.3775 67.6679 4.79579 67.6679 5.19158V0.392578H53.5723C53.8421 0.392578 54.13 0.460049 54.4313 0.594979C54.7327 0.729909 55.0115 0.905314 55.2724 1.1257C55.5332 1.34159 55.7446 1.58896 55.9111 1.85882C56.0775 2.12868 56.1584 2.40754 56.1584 2.69988V19.908C56.1584 20.2003 56.073 20.4792 55.9111 20.749C55.7446 21.0189 55.5332 21.2618 55.2724 21.4821C55.0115 21.7025 54.7327 21.8779 54.4313 22.0129C54.13 22.1478 53.8421 22.2153 53.5723 22.2153H67.506H67.6635H73.7443C73.4969 22.2153 73.2361 22.1703 72.9662 22.0758C72.6963 21.9814 72.4535 21.8509 72.2331 21.6845C72.0172 21.5181 71.8418 21.3247 71.7203 21.1088C71.5944 20.8929 71.5629 20.6681 71.6259 20.4387L73.9017 11.7402H78.0486L79.9826 20.1553C80.0635 20.5286 80.0545 20.848 79.9511 21.1043C79.8431 21.3742 79.6812 21.5856 79.4608 21.752ZM74.1491 10.8092L76.1146 3.29358L77.8597 10.8092H74.1491Z" fill="white"/>
<path d="M89.7196 20.5544C90.9565 21.9802 92.832 22.6908 95.3462 22.6908C97.4241 22.6908 98.9398 21.9127 99.8979 20.352C100.851 18.7958 101.342 16.6325 101.364 13.8664V2.14546C101.364 1.60574 101.593 1.17848 102.048 0.868138C102.506 0.557799 102.992 0.400391 103.514 0.400391H98.1213C98.3686 0.400391 98.634 0.436368 98.9174 0.50833C99.1962 0.580293 99.4481 0.692726 99.664 0.836651C99.8843 0.980577 100.064 1.16948 100.208 1.39886C100.352 1.62824 100.424 1.8891 100.424 2.17695V13.8664C100.424 19.0207 98.8454 21.5979 95.6835 21.5979C93.8125 21.5979 92.4587 20.9502 91.6176 19.6504C90.7766 18.3506 90.3538 16.4256 90.3538 13.8664V2.70767C90.3538 2.41532 90.4348 2.13647 90.6012 1.86661C90.7676 1.59675 90.979 1.35387 91.2398 1.13349C91.5007 0.913099 91.7796 0.737694 92.0809 0.602764C92.3822 0.467834 92.6701 0.400391 92.9399 0.400391H85.1455C85.3929 0.400391 85.6762 0.467834 85.9866 0.602764C86.2969 0.737694 86.5937 0.913099 86.8771 1.13349C87.156 1.34937 87.3898 1.60126 87.5787 1.88011C87.7676 2.15897 87.8576 2.43781 87.8576 2.70767V13.8664C87.8621 16.8978 88.4828 19.1287 89.7196 20.5544Z" fill="white"/>
<path d="M117.479 1.33198C117.749 1.33198 118.028 1.45792 118.32 1.70529C118.612 1.95267 118.878 2.27199 119.116 2.65429C119.355 3.04109 119.552 3.45489 119.71 3.90016C119.867 4.34992 119.944 4.76821 119.944 5.164V0.396484H104.107V5.19549C104.107 4.7817 104.188 4.34544 104.355 3.88668C104.521 3.42792 104.733 3.01412 104.993 2.64082C105.254 2.26751 105.533 1.95267 105.835 1.70529C106.136 1.45792 106.424 1.33198 106.694 1.33198H110.84V19.9118C110.84 20.2042 110.755 20.4831 110.593 20.7529C110.427 21.0228 110.215 21.2656 109.954 21.486C109.694 21.7064 109.415 21.8818 109.113 22.0168C108.812 22.1517 108.524 22.2191 108.254 22.2191H115.923C115.675 22.2191 115.397 22.1517 115.095 22.0168C114.794 21.8818 114.515 21.7019 114.254 21.4725C113.993 21.2432 113.777 20.9868 113.597 20.7079C113.422 20.4291 113.332 20.1502 113.332 19.8804V1.33198H117.479Z" fill="white"/>
<path d="M135.654 2.20453C135.78 1.93467 135.96 1.68731 136.198 1.45793C136.437 1.22855 136.697 1.03513 136.976 0.882213C137.255 0.724794 137.547 0.60786 137.849 0.522405C138.15 0.441447 138.425 0.396484 138.676 0.396484H132.596C132.843 0.396484 133.122 0.44146 133.423 0.535911C133.724 0.630362 133.99 0.756277 134.219 0.909198C134.449 1.06662 134.62 1.25102 134.732 1.47141C134.844 1.69179 134.853 1.9212 134.745 2.17307L130.756 10.8401L126.204 2.29899C126.119 2.00664 126.128 1.75028 126.218 1.5209C126.312 1.29152 126.456 1.09811 126.654 0.945187C126.852 0.787768 127.09 0.666324 127.369 0.571873C127.648 0.477422 127.913 0.432446 128.165 0.432446H120.528C121.046 0.432446 121.63 0.607879 122.273 0.963195C122.917 1.31851 123.416 1.83573 123.771 2.52387L128.665 12.1264V19.9208C128.665 20.2132 128.579 20.492 128.417 20.7619C128.251 21.0318 128.039 21.2746 127.779 21.495C127.518 21.7154 127.239 21.8908 126.937 22.0258C126.636 22.1607 126.348 22.2282 126.078 22.2282H133.747C133.5 22.2282 133.221 22.1607 132.919 22.0258C132.618 21.8908 132.339 21.7154 132.078 21.495C131.817 21.2746 131.602 21.0273 131.422 20.7484C131.246 20.4696 131.156 20.1907 131.156 19.9208V12.1219L135.654 2.20453Z" fill="white"/>
<path d="M149.12 12.6164C148.765 12.9717 148.459 13.381 148.203 13.8488C147.942 14.3165 147.762 14.8607 147.659 15.4859C147.492 16.4439 147.537 17.3479 147.798 18.198C148.059 19.0525 148.491 19.7947 149.093 20.4288C149.696 21.063 150.456 21.5623 151.369 21.9266C152.282 22.2909 153.312 22.4708 154.454 22.4708C155.7 22.4483 156.771 22.2324 157.666 21.8141C158.561 21.4004 159.307 20.8606 159.91 20.195L161.75 22.2189H166.895C166.54 22.2189 166.153 22.12 165.726 21.9221C165.298 21.7242 164.853 21.4633 164.385 21.144C163.918 20.8202 163.445 20.4603 162.969 20.0511C162.492 19.6463 162.024 19.246 161.565 18.8502L161.161 18.4454C161.493 17.8202 161.759 17.1681 161.957 16.4799C162.155 15.7963 162.294 15.1306 162.379 14.4829C162.46 13.8398 162.501 13.2326 162.487 12.6614C162.478 12.0902 162.42 11.5954 162.316 11.1816H159.573C160.09 11.6584 160.499 12.1801 160.787 12.7423C161.08 13.3046 161.268 13.8847 161.363 14.4874C161.457 15.0901 161.457 15.6928 161.363 16.2955C161.268 16.8982 161.089 17.4784 160.819 18.0406L153.744 10.6824C153.703 10.6419 153.658 10.5879 153.618 10.525C153.577 10.462 153.532 10.4125 153.492 10.3676C154.176 9.85034 154.778 9.42305 155.3 9.09022C155.817 8.75739 156.267 8.44256 156.64 8.14122C157.014 7.83987 157.324 7.51606 157.576 7.17423C157.823 6.83241 158.021 6.40063 158.17 5.8789C158.417 5.02885 158.462 4.26423 158.295 3.58958C158.129 2.91493 157.828 2.34373 157.391 1.87597C156.955 1.40821 156.42 1.04839 155.786 0.801021C155.152 0.553649 154.49 0.427734 153.807 0.427734C153.038 0.427734 152.327 0.576157 151.67 0.877501C151.014 1.17884 150.461 1.57913 150.002 2.07837C149.543 2.57761 149.206 3.1533 148.99 3.80996C148.769 4.46662 148.715 5.15478 148.819 5.88341C148.922 6.77844 149.246 7.65548 149.786 8.51903C150.326 9.38258 150.919 10.1877 151.563 10.9343C151.126 11.1816 150.699 11.438 150.285 11.6989C149.858 11.9598 149.471 12.2656 149.12 12.6164ZM150.897 5.94635C150.793 5.4696 150.771 4.94789 150.834 4.39018C150.897 3.82797 151.036 3.31072 151.257 2.82947C151.477 2.35272 151.774 1.95692 152.161 1.64658C152.543 1.33625 152.997 1.17884 153.519 1.17884C153.996 1.17884 154.428 1.31375 154.814 1.58361C155.197 1.85347 155.511 2.21329 155.75 2.65856C155.988 3.10383 156.15 3.62557 156.231 4.21926C156.312 4.81296 156.294 5.42913 156.168 6.0723C156.002 7.08877 155.642 7.89385 155.093 8.48755C154.544 9.08124 153.915 9.59397 153.209 10.0302C152.628 9.28363 152.129 8.5595 151.711 7.86236C151.293 7.16972 151.023 6.53105 150.897 5.94635ZM151.522 11.9777C151.711 11.8203 151.886 11.6629 152.053 11.4965C152.426 11.9328 152.786 12.3286 153.128 12.6794C153.47 13.0347 153.757 13.345 153.987 13.6149L159.568 19.8172C159.006 20.3974 158.336 20.8516 157.558 21.171C156.78 21.4948 155.993 21.6522 155.206 21.6522C154.625 21.6522 154.081 21.5623 153.586 21.3869C153.087 21.2114 152.637 20.9821 152.228 20.7032C151.823 20.4243 151.468 20.105 151.167 19.7542C150.865 19.3989 150.609 19.0391 150.402 18.6613C150.132 18.162 149.939 17.6178 149.826 17.0241C149.714 16.4304 149.682 15.8547 149.732 15.2925C149.781 14.7303 149.907 14.1996 150.105 13.7003C150.303 13.2011 150.586 12.7873 150.964 12.4545C151.144 12.2971 151.333 12.1352 151.522 11.9777Z" fill="white"/>
<path d="M187.979 21.5805C187.678 21.3826 187.413 21.1397 187.183 20.8474C186.954 20.555 186.796 20.2447 186.715 19.9118L182.29 0.396484C182.204 0.459452 182.114 0.522411 182.011 0.585379C181.844 0.729304 181.597 0.846248 181.264 0.927206C181.017 0.990173 180.725 1.01715 180.392 1.00366C180.059 0.994663 179.883 0.985678 179.861 0.985678L174.842 20.3751C174.779 20.6225 174.63 20.8654 174.387 21.0903C174.149 21.3196 173.879 21.5175 173.578 21.6839C173.276 21.8503 172.966 21.9808 172.642 22.0752C172.318 22.1697 172.035 22.2147 171.783 22.2147H178.017C177.77 22.2147 177.509 22.1697 177.239 22.0752C176.969 21.9808 176.726 21.8503 176.506 21.6839C176.285 21.5175 176.114 21.3241 175.993 21.1082C175.867 20.8923 175.836 20.6675 175.899 20.4381L178.174 11.7396H182.321L184.255 20.1547C184.341 20.528 184.327 20.8474 184.224 21.1037C184.12 21.3646 183.958 21.576 183.742 21.7424C183.522 21.9088 183.275 22.0303 182.996 22.1022C182.717 22.1742 182.438 22.2102 182.168 22.2102H189.805C189.535 22.2102 189.239 22.1517 188.919 22.0393C188.591 21.9358 188.281 21.7784 187.979 21.5805ZM178.422 10.8086L180.387 3.29298L182.132 10.8086H178.422Z" fill="white"/>
<path d="M194.929 21.6563C196.04 22.196 197.272 22.4659 198.621 22.4659C199.683 22.4659 200.632 22.3219 201.473 22.0296C202.314 21.7372 203.07 21.3234 203.735 20.7837C203.798 20.7432 203.857 20.7028 203.906 20.6578C203.96 20.6173 204.014 20.5768 204.077 20.5318L204.203 16.2321C204.18 16.3355 204.131 16.4929 204.046 16.6998C203.798 17.388 203.501 18.0356 203.155 18.6473C202.813 19.259 202.413 19.8077 201.954 20.2845C201.495 20.7612 200.992 21.1435 200.443 21.4224C199.894 21.7012 199.283 21.8452 198.621 21.8452C197.663 21.8452 196.782 21.5168 195.972 20.8647C195.163 20.208 194.47 19.3669 193.899 18.337C193.328 17.307 192.882 16.1691 192.559 14.9233C192.235 13.6774 192.077 12.4495 192.077 11.2442C192.077 10.0388 192.239 8.80642 192.559 7.55157C192.882 6.29223 193.328 5.14982 193.899 4.12435C194.47 3.09439 195.163 2.25333 195.972 1.60117C196.782 0.944509 197.668 0.62068 198.621 0.62068C199.723 0.62068 200.699 1.02096 201.554 1.82155C202.404 2.62213 203.124 3.63411 203.704 4.86198L203.483 1.49323C203.317 1.36729 203.191 1.28631 203.11 1.24584C201.801 0.413767 200.303 0 198.621 0C197.272 0 196.04 0.269855 194.929 0.809575C193.818 1.34929 192.864 2.11391 192.077 3.0989C191.286 4.08839 190.674 5.27126 190.238 6.65204C189.801 8.03282 189.581 9.56654 189.581 11.2487C189.581 12.9308 189.801 14.46 190.238 15.8318C190.674 17.2036 191.286 18.382 192.077 19.3715C192.869 20.3564 193.818 21.1165 194.929 21.6563Z" fill="white"/>
<path d="M216.658 21.7514C216.438 21.9178 216.19 22.0392 215.911 22.1112C215.632 22.1832 215.354 22.2191 215.084 22.2191H222.721C222.451 22.2191 222.154 22.1607 221.83 22.0482C221.506 21.9358 221.196 21.7784 220.895 21.5805C220.593 21.3826 220.328 21.1397 220.099 20.8474C219.869 20.555 219.712 20.2447 219.631 19.9118L215.205 0.396484C215.12 0.459452 215.03 0.522411 214.926 0.585379C214.76 0.729304 214.513 0.846248 214.18 0.927206C213.932 0.990173 213.64 1.01715 213.307 1.00366C212.974 0.990165 212.799 0.985678 212.776 0.985678L207.757 20.3751C207.694 20.6225 207.546 20.8654 207.307 21.0903C207.069 21.3196 206.799 21.5175 206.498 21.6839C206.196 21.8503 205.886 21.9808 205.562 22.0752C205.238 22.1697 204.955 22.2147 204.703 22.2147H210.937C210.69 22.2147 210.429 22.1697 210.159 22.0752C209.889 21.9808 209.646 21.8503 209.426 21.6839C209.205 21.5175 209.034 21.3241 208.913 21.1082C208.787 20.8923 208.756 20.6675 208.819 20.4381L211.094 11.7396H215.241L217.175 20.1547C217.256 20.528 217.247 20.8474 217.144 21.1037C217.04 21.3736 216.878 21.585 216.658 21.7514ZM211.346 10.8086L213.312 3.29298L215.057 10.8086H211.346Z" fill="white"/>
<path d="M225.652 20.7574C225.486 21.0273 225.274 21.2701 225.014 21.4905C224.753 21.7109 224.474 21.8863 224.173 22.0212C223.871 22.1562 223.583 22.2236 223.313 22.2236H228.396C229.642 22.2236 230.946 22.0572 232.309 21.7244C233.672 21.3916 234.926 20.8069 236.082 19.9613C237.234 19.1203 238.187 17.9779 238.934 16.5341C239.68 15.0904 240.058 13.2463 240.058 11.002C240.058 9.42328 239.883 8.06051 239.528 6.9181C239.172 5.77569 238.7 4.80869 238.111 4.0171C237.517 3.22551 236.829 2.59135 236.037 2.1146C235.246 1.63784 234.423 1.27351 233.559 1.02164C232.696 0.774268 231.823 0.60786 230.942 0.522405C230.06 0.436949 229.21 0.396484 228.4 0.396484H223.318C223.588 0.396484 223.876 0.463955 224.177 0.598885C224.478 0.733815 224.757 0.909221 225.018 1.12961C225.279 1.34549 225.49 1.59287 225.657 1.86273C225.823 2.13259 225.904 2.41144 225.904 2.70379V19.9118C225.9 20.2042 225.819 20.4875 225.652 20.7574ZM228.396 1.39495H229.61C230.609 1.39495 231.585 1.57036 232.543 1.92567C233.496 2.28099 234.351 2.8387 235.097 3.6078C235.844 4.3769 236.442 5.37091 236.892 6.58528C237.337 7.79965 237.562 9.27038 237.562 10.9975C237.562 12.828 237.337 14.3887 236.892 15.6886C236.447 16.9884 235.857 18.0543 235.129 18.8864C234.4 19.7185 233.559 20.3256 232.606 20.7079C231.648 21.0947 230.654 21.2837 229.615 21.2837H228.4V1.39495H228.396Z" fill="white"/>
<path d="M243.233 20.7568C243.067 21.0267 242.856 21.2695 242.595 21.4899C242.334 21.7103 242.055 21.8857 241.754 22.0207C241.452 22.1556 241.164 22.2231 240.895 22.2231H254.986V17.424C254.986 17.8198 254.909 18.2336 254.752 18.6699C254.594 19.1062 254.397 19.511 254.158 19.8843C253.92 20.2576 253.654 20.5769 253.362 20.8333C253.07 21.0942 252.791 21.2426 252.521 21.2831H245.972V10.808H248.653C248.923 10.808 249.211 10.8754 249.512 11.0104C249.813 11.1453 250.092 11.3207 250.353 11.5411C250.614 11.757 250.825 12.0044 250.992 12.2742C251.158 12.5441 251.239 12.8229 251.239 13.1153V7.56517C251.239 7.85752 251.154 8.13637 250.992 8.40623C250.825 8.67609 250.614 8.91897 250.353 9.13935C250.092 9.35974 249.813 9.53515 249.512 9.67008C249.211 9.80501 248.923 9.87248 248.653 9.87248H245.972V1.33138H252.521C252.791 1.35387 253.07 1.4933 253.362 1.75417C253.654 2.01503 253.92 2.32989 254.158 2.70319C254.397 3.0765 254.594 3.48578 254.752 3.93555C254.909 4.38532 254.986 4.8036 254.986 5.19939V0.400391H240.895C241.164 0.400391 241.452 0.467834 241.754 0.602764C242.055 0.737694 242.334 0.913099 242.595 1.13349C242.856 1.34937 243.067 1.59675 243.233 1.86661C243.4 2.13647 243.481 2.41532 243.481 2.70767V19.9157C243.485 20.2036 243.4 20.4869 243.233 20.7568Z" fill="white"/>
<path d="M257.887 20.7574C257.721 21.0273 257.509 21.2701 257.249 21.4905C256.988 21.7109 256.709 21.8863 256.408 22.0212C256.106 22.1562 255.818 22.2236 255.548 22.2236H261.629C261.382 22.2236 261.108 22.1517 260.82 22.0033C260.527 21.8593 260.253 21.6704 259.992 21.4411C259.731 21.2117 259.515 20.9643 259.335 20.6945C259.16 20.4246 259.07 20.1547 259.07 19.8849V3.57634L265.119 20.1322H267.616L272.882 3.14005V19.9118C272.882 20.2042 272.797 20.4831 272.635 20.7529C272.469 21.0228 272.257 21.2656 271.996 21.486C271.736 21.7064 271.457 21.8818 271.155 22.0168C270.854 22.1517 270.566 22.2191 270.296 22.2191H277.965C277.717 22.2191 277.439 22.1472 277.137 21.9988C276.836 21.8548 276.557 21.6705 276.296 21.4546C276.035 21.2387 275.819 20.9868 275.639 20.7079C275.464 20.4291 275.374 20.1502 275.374 19.8804V2.88818C275.374 2.61832 275.464 2.33947 275.639 2.04712C275.815 1.75477 276.035 1.48492 276.296 1.23755C276.557 0.990174 276.836 0.787763 277.137 0.630344C277.439 0.472926 277.713 0.396484 277.965 0.396484H272.757L267.143 18.5715L260.626 0.396484H255.544C255.814 0.396484 256.102 0.463955 256.403 0.598885C256.704 0.733815 256.983 0.909221 257.244 1.12961C257.505 1.34549 257.716 1.59287 257.883 1.86273C258.049 2.13259 258.13 2.41144 258.13 2.70379V19.9118C258.135 20.2042 258.054 20.4875 257.887 20.7574Z" fill="white"/>
<path d="M284.68 0.944591C284.877 0.787172 285.116 0.665728 285.395 0.571277C285.674 0.476826 285.939 0.43185 286.191 0.43185H278.554C279.071 0.43185 279.656 0.607283 280.299 0.962599C280.942 1.31791 281.441 1.83513 281.797 2.52328L286.69 12.1258V19.9202C286.69 20.2126 286.604 20.4914 286.443 20.7613C286.276 21.0312 286.065 21.274 285.804 21.4944C285.543 21.7148 285.264 21.8902 284.963 22.0252C284.662 22.1601 284.374 22.2276 284.104 22.2276H291.772C291.525 22.2276 291.246 22.1601 290.945 22.0252C290.643 21.8902 290.365 21.7148 290.104 21.4944C289.843 21.274 289.627 21.0267 289.447 20.7478C289.272 20.469 289.182 20.1901 289.182 19.9202V12.1213L293.67 2.20843C293.796 1.93857 293.976 1.69121 294.215 1.46183C294.453 1.23245 294.714 1.03904 294.993 0.886119C295.272 0.733198 295.564 0.611767 295.865 0.526311C296.167 0.445353 296.441 0.400391 296.693 0.400391H290.612C290.859 0.400391 291.138 0.445366 291.439 0.539817C291.741 0.634268 292.006 0.760183 292.236 0.913104C292.465 1.07052 292.636 1.25493 292.748 1.47531C292.861 1.6957 292.87 1.92508 292.766 2.17695L288.777 10.844L284.225 2.30289C284.144 2.01055 284.149 1.75419 284.243 1.52481C284.338 1.29093 284.482 1.09751 284.68 0.944591Z" fill="white"/>
<path d="M12.9218 49.4216C12.3686 48.9538 11.7299 48.5805 11.0058 48.2972C10.2772 48.0183 9.50805 47.8024 8.69847 47.6585C9.23819 47.4921 9.75092 47.2762 10.2412 47.0018C10.7269 46.732 11.1497 46.4036 11.505 46.0213C11.8603 45.639 12.1392 45.1803 12.3461 44.6495C12.553 44.1188 12.6564 43.5116 12.6564 42.828C12.6564 41.7665 12.463 40.9075 12.0807 40.2418C11.6939 39.5762 11.1677 39.0679 10.493 38.7126C9.81839 38.3573 9.01782 38.1189 8.0913 37.9975C7.16478 37.8716 6.1618 37.8086 5.08236 37.8086H0C0.26986 37.8086 0.557699 37.8761 0.859042 38.011C1.16039 38.1459 1.43924 38.3213 1.7001 38.5417C1.96097 38.7576 2.17235 39.005 2.33876 39.2748C2.50518 39.5447 2.58616 39.8236 2.58616 40.1159V57.324C2.58616 57.6163 2.50068 57.8952 2.33876 58.165C2.17235 58.4349 1.96097 58.6778 1.7001 58.8982C1.43924 59.1185 1.16039 59.294 0.859042 59.4289C0.557699 59.5638 0.26986 59.6313 0 59.6313H5.08236C6.47664 59.6313 7.75847 59.5593 8.93236 59.4109C10.1063 59.2669 11.1227 58.9746 11.9863 58.5383C12.8498 58.1021 13.52 57.4859 13.9967 56.6853C14.4735 55.8847 14.7119 54.8323 14.7119 53.5189C14.7119 52.6059 14.5499 51.8098 14.2306 51.1352C13.9068 50.4605 13.4705 49.8893 12.9218 49.4216ZM5.08236 38.6182H5.82896C6.49461 38.6182 7.10631 38.6901 7.66852 38.8385C8.23073 38.987 8.71196 39.2254 9.11675 39.5537C9.52154 39.8865 9.83637 40.3228 10.0658 40.8625C10.2951 41.4022 10.4076 42.0589 10.4076 42.828C10.4076 43.6825 10.2951 44.3977 10.0658 44.9779C9.83637 45.5581 9.51706 46.0258 9.09877 46.3811C8.68499 46.7365 8.19922 46.9838 7.65051 47.1277C7.0973 47.2717 6.49012 47.3437 5.82896 47.3437H5.08236V38.6182ZM11.6579 55.8577C11.3026 56.5234 10.8304 57.0766 10.2412 57.5264C9.64748 57.9716 8.96834 58.3045 8.19924 58.5248C7.43014 58.7452 6.63854 58.8532 5.82896 58.8532H5.08236V48.1622H5.82896C7.84391 48.1622 9.4091 48.5985 10.52 49.471C11.6309 50.3436 12.1887 51.6929 12.1887 53.5234C12.1887 54.414 12.0133 55.1921 11.6579 55.8577Z" fill="white"/>
<path d="M26.3255 37.948C26.6268 38.0424 26.8922 38.1683 27.1216 38.3213C27.3509 38.4787 27.5219 38.6631 27.6343 38.8835C27.7467 39.1039 27.7557 39.3332 27.6478 39.5851L23.6584 48.2521L19.1067 39.711C19.0213 39.4187 19.0302 39.1623 19.1202 38.9329C19.2146 38.7036 19.3586 38.5102 19.5565 38.3572C19.7544 38.1998 19.9927 38.0784 20.2716 37.9839C20.5505 37.8895 20.8158 37.8445 21.0677 37.8445H13.4307C13.9479 37.8445 14.5326 38.0199 15.1758 38.3752C15.8189 38.7306 16.3181 39.2478 16.6735 39.9359L21.5669 49.5385V57.3329C21.5669 57.6252 21.4815 57.9041 21.3196 58.174C21.1531 58.4438 20.9418 58.6867 20.6809 58.9071C20.42 59.1275 20.1412 59.3029 19.8398 59.4378C19.5385 59.5727 19.2506 59.6402 18.9808 59.6402H26.6493C26.4019 59.6402 26.1231 59.5727 25.8217 59.4378C25.5204 59.3029 25.2415 59.1275 24.9807 58.9071C24.7198 58.6867 24.5039 58.4393 24.324 58.1605C24.1486 57.8816 24.0587 57.6028 24.0587 57.3329V49.5385L28.5473 39.6256C28.6733 39.3557 28.8532 39.1084 29.0915 38.879C29.3299 38.6496 29.5908 38.4562 29.8696 38.3033C30.1485 38.1458 30.4408 38.0289 30.7422 37.9435C31.0435 37.8625 31.3179 37.8175 31.5698 37.8175H25.4889C25.7498 37.8085 26.0241 37.8535 26.3255 37.948Z" fill="white"/>
<path d="M57.2958 38.8206C57.5252 38.6047 57.7905 38.4158 58.0919 38.2584C58.3932 38.1009 58.699 37.9885 59.0094 37.9165C59.3197 37.8446 59.6031 37.8086 59.8504 37.8086H53.7696C54.017 37.8086 54.2868 37.8491 54.5792 37.9345C54.8715 38.0155 55.1234 38.1369 55.3438 38.2943C55.5642 38.4518 55.7261 38.6317 55.843 38.8385C55.9555 39.0454 55.9735 39.2838 55.888 39.5537L50.9001 58.0076L45.6018 39.6751C45.5164 39.3828 45.5299 39.1264 45.6333 38.897C45.7368 38.6676 45.8897 38.4743 46.0831 38.3213C46.281 38.1639 46.5194 38.0425 46.7982 37.948C47.0771 37.8536 47.3424 37.8086 47.5943 37.8086H39.9258C40.1956 37.8086 40.497 37.8491 40.8298 37.9345C41.1626 38.0155 41.4865 38.1414 41.7968 38.3078C42.1072 38.4742 42.395 38.6946 42.6559 38.9645C42.9167 39.2344 43.0966 39.5447 43.2001 39.9L48.9031 59.6358H51.4263L56.819 39.5897C56.9135 39.2928 57.0664 39.041 57.2958 38.8206Z" fill="white"/>
<path d="M71.216 58.9926C70.9147 58.7947 70.6493 58.5518 70.4199 58.2595C70.1905 57.9671 70.0331 57.6568 69.9522 57.324L65.5265 37.8086C65.441 37.8716 65.351 37.9345 65.2476 37.9975C65.0812 38.1414 64.8338 38.2584 64.501 38.3393C64.2536 38.4023 63.9613 38.4293 63.6285 38.4158C63.2956 38.4068 63.1202 38.3978 63.0977 38.3978L58.0783 57.7872C58.0154 58.0346 57.8669 58.2775 57.6286 58.5024C57.3902 58.7317 57.1203 58.9296 56.819 59.0961C56.5176 59.2625 56.2073 59.3929 55.8835 59.4874C55.5597 59.5818 55.2763 59.6268 55.0244 59.6268H61.2582C61.0108 59.6268 60.7499 59.5818 60.4801 59.4874C60.2102 59.3929 59.9674 59.2625 59.747 59.0961C59.5311 58.9296 59.3557 58.7362 59.2342 58.5203C59.1083 58.3045 59.0768 58.0796 59.1398 57.8502L61.4156 49.1517H65.5624L67.4964 57.5668C67.5774 57.9401 67.5684 58.2595 67.465 58.5158C67.3615 58.7767 67.1996 58.9881 66.9837 59.1545C66.7678 59.3209 66.516 59.4424 66.2371 59.5143C65.9582 59.5863 65.6794 59.6223 65.4095 59.6223H73.0466C72.7767 59.6223 72.4799 59.5638 72.156 59.4514C71.8277 59.3434 71.5174 59.1905 71.216 58.9926ZM61.663 48.2207L63.6285 40.7051L65.3736 48.2207H61.663Z" fill="white"/>
<path d="M86.8945 57.2911C86.6561 57.6644 86.3908 57.9838 86.0984 58.2401C85.8061 58.501 85.5272 58.6494 85.2573 58.6899H78.7132V39.9841C78.7132 39.6917 78.8032 39.4174 78.9786 39.1565C79.154 38.8957 79.3744 38.6708 79.6353 38.4729C79.8961 38.275 80.175 38.1131 80.4763 37.9916C80.7777 37.8657 81.052 37.8027 81.3039 37.8027H73.6309C73.9007 37.8027 74.1886 37.8702 74.4899 38.0051C74.7913 38.1401 75.0701 38.3155 75.331 38.5359C75.5919 38.7517 75.8032 38.9991 75.9697 39.269C76.1361 39.5388 76.217 39.8177 76.217 40.11V57.3181C76.217 57.6105 76.1316 57.8893 75.9697 58.1592C75.8032 58.429 75.5919 58.6719 75.331 58.8923C75.0701 59.1127 74.7913 59.2881 74.4899 59.423C74.1886 59.558 73.9007 59.6254 73.6309 59.6254H87.7221V54.8264C87.7221 55.2222 87.6456 55.636 87.4882 56.0723C87.3308 56.513 87.1329 56.9178 86.8945 57.2911Z" fill="white"/>
<path d="M89.1393 38.011C89.4407 38.1459 89.7195 38.3213 89.9804 38.5417C90.2413 38.7576 90.4527 39.005 90.6191 39.2748C90.7855 39.5447 90.8664 39.8236 90.8664 40.1159V57.324C90.8664 57.6163 90.781 57.8952 90.6191 58.165C90.4527 58.4349 90.2413 58.6778 89.9804 58.8982C89.7195 59.1185 89.4407 59.294 89.1393 59.4289C88.838 59.5638 88.5501 59.6313 88.2803 59.6313H102.371V54.8323C102.371 55.228 102.295 55.6418 102.138 56.0781C101.98 56.5144 101.782 56.9192 101.544 57.2925C101.306 57.6658 101.04 57.9851 100.748 58.2415C100.455 58.5024 100.177 58.6508 99.9067 58.6913H93.3581V48.2162H96.0387C96.3086 48.2162 96.5965 48.2836 96.8978 48.4186C97.1992 48.5535 97.478 48.7289 97.7389 48.9493C97.9997 49.1652 98.2111 49.4126 98.3775 49.6824C98.544 49.9523 98.6249 50.2312 98.6249 50.5235V44.9734C98.6249 45.2657 98.5395 45.5446 98.3775 45.8144C98.2111 46.0843 97.9997 46.3272 97.7389 46.5476C97.478 46.7679 97.1992 46.9433 96.8978 47.0783C96.5965 47.2132 96.3086 47.2807 96.0387 47.2807H93.3581V38.7396H99.9067C100.177 38.7621 100.455 38.9015 100.748 39.1624C101.04 39.4233 101.306 39.7381 101.544 40.1114C101.782 40.4847 101.98 40.894 102.138 41.3438C102.295 41.7935 102.371 42.2118 102.371 42.6076V37.8086H88.2803C88.5546 37.8086 88.838 37.8761 89.1393 38.011Z" fill="white"/>
<path d="M117.075 38.0102C117.377 38.1452 117.655 38.3206 117.916 38.541C118.177 38.7568 118.389 39.0042 118.555 39.2741C118.721 39.5439 118.802 39.8228 118.802 40.1151V57.8854L108.017 37.8078H102.935C103.204 37.8078 103.492 37.8753 103.794 38.0102C104.095 38.1452 104.374 38.3206 104.635 38.541C104.896 38.7568 105.107 39.0042 105.273 39.2741C105.44 39.5439 105.521 39.8228 105.521 40.1151V57.665C105.521 57.9349 105.435 58.1958 105.273 58.4431C105.107 58.6905 104.896 58.9019 104.635 59.0683C104.374 59.2347 104.095 59.3696 103.794 59.4731C103.492 59.5765 103.204 59.6305 102.935 59.6305H109.015C108.768 59.6305 108.494 59.5765 108.206 59.4731C107.913 59.3696 107.639 59.2302 107.378 59.0503C107.117 58.8749 106.902 58.668 106.722 58.4251C106.546 58.1867 106.456 57.9304 106.456 57.6605V39.7643L117.242 59.6215H119.733V40.1061C119.733 39.8363 119.823 39.5619 119.999 39.2786C120.174 38.9997 120.394 38.7478 120.655 38.532C120.916 38.3116 121.195 38.1362 121.496 38.0012C121.798 37.8663 122.072 37.7988 122.324 37.7988H116.212C116.486 37.8078 116.774 37.8753 117.075 38.0102Z" fill="white"/>
<path d="M122.917 42.6076C122.917 42.1938 122.998 41.7575 123.164 41.2988C123.331 40.84 123.542 40.4262 123.803 40.0529C124.064 39.6796 124.343 39.3648 124.644 39.1174C124.945 38.87 125.233 38.7441 125.503 38.7441H129.65V57.324C129.65 57.6163 129.565 57.8952 129.403 58.165C129.236 58.4349 129.025 58.6778 128.764 58.8982C128.503 59.1185 128.224 59.294 127.923 59.4289C127.622 59.5638 127.334 59.6313 127.064 59.6313H134.732C134.485 59.6313 134.206 59.5638 133.905 59.4289C133.603 59.294 133.325 59.114 133.064 58.8847C132.803 58.6553 132.587 58.3989 132.407 58.12C132.232 57.8412 132.142 57.5624 132.142 57.2925V38.7441H136.289C136.558 38.7441 136.837 38.87 137.13 39.1174C137.422 39.3648 137.687 39.6841 137.926 40.0664C138.164 40.4532 138.362 40.867 138.519 41.3123C138.677 41.762 138.753 42.1803 138.753 42.5761V37.8086H122.917V42.6076Z" fill="white"/>
<path d="M144.663 39.2883C144.838 39.0095 145.058 38.7576 145.319 38.5417C145.58 38.3213 145.859 38.1459 146.16 38.011C146.462 37.8761 146.736 37.8086 146.988 37.8086H139.319C139.589 37.8086 139.877 37.8761 140.178 38.011C140.48 38.1459 140.759 38.3213 141.019 38.5417C141.28 38.7576 141.492 39.005 141.658 39.2748C141.825 39.5447 141.905 39.8236 141.905 40.1159V57.324C141.905 57.6163 141.82 57.8952 141.658 58.165C141.492 58.4349 141.28 58.6778 141.019 58.8982C140.759 59.1185 140.48 59.294 140.178 59.4289C139.877 59.5638 139.589 59.6313 139.319 59.6313H146.988C146.741 59.6313 146.462 59.5638 146.16 59.4289C145.859 59.294 145.58 59.1185 145.319 58.8982C145.058 58.6778 144.842 58.4304 144.663 58.1515C144.487 57.8727 144.397 57.5938 144.397 57.324V40.1159C144.397 39.846 144.483 39.5717 144.663 39.2883Z" fill="white"/>
<path d="M166.936 37.8086H160.824C161.093 37.8086 161.381 37.8761 161.683 38.011C161.984 38.1459 162.263 38.3213 162.524 38.5417C162.785 38.7576 162.996 39.005 163.162 39.2748C163.329 39.5447 163.41 39.8236 163.41 40.1159V57.8862L152.624 37.8086H147.542C147.812 37.8086 148.1 37.8761 148.401 38.011C148.702 38.1459 148.981 38.3213 149.242 38.5417C149.503 38.7576 149.714 39.005 149.881 39.2748C150.047 39.5447 150.128 39.8236 150.128 40.1159V57.6658C150.128 57.9356 150.043 58.1965 149.881 58.4439C149.714 58.6913 149.503 58.9027 149.242 59.0691C148.981 59.2355 148.702 59.3704 148.401 59.4738C148.1 59.5773 147.812 59.6313 147.542 59.6313H153.623C153.375 59.6313 153.101 59.5773 152.813 59.4738C152.521 59.3704 152.247 59.231 151.986 59.0511C151.725 58.8757 151.509 58.6688 151.329 58.4259C151.154 58.1875 151.064 57.9312 151.064 57.6613V39.7651L161.849 59.6223H164.35V40.1069C164.35 39.837 164.44 39.5627 164.615 39.2793C164.791 39.0005 165.011 38.7486 165.272 38.5327C165.533 38.3123 165.812 38.1369 166.113 38.002C166.41 37.8761 166.689 37.8086 166.936 37.8086Z" fill="white"/>
<path d="M181.728 58.9926C181.426 58.7947 181.161 58.5518 180.932 58.2595C180.702 57.9671 180.545 57.6568 180.464 57.324L176.038 37.8086C175.953 37.8716 175.863 37.9345 175.759 37.9975C175.593 38.1414 175.341 38.2584 175.013 38.3393C174.765 38.4023 174.473 38.4293 174.14 38.4158C173.807 38.4068 173.632 38.3978 173.609 38.3978L168.59 57.7872C168.527 58.0346 168.379 58.2775 168.14 58.5024C167.902 58.7317 167.632 58.9296 167.331 59.0961C167.029 59.2625 166.719 59.3929 166.395 59.4874C166.071 59.5818 165.788 59.6268 165.536 59.6268H171.77C171.523 59.6268 171.262 59.5818 170.992 59.4874C170.722 59.3929 170.479 59.2625 170.259 59.0961C170.043 58.9296 169.867 58.7362 169.746 58.5203C169.62 58.3045 169.589 58.0796 169.651 57.8502L171.927 49.1517H176.074L178.008 57.5668C178.089 57.9401 178.08 58.2595 177.977 58.5158C177.873 58.7767 177.711 58.9881 177.495 59.1545C177.28 59.3209 177.028 59.4424 176.749 59.5143C176.47 59.5863 176.191 59.6223 175.921 59.6223H183.558C183.288 59.6223 182.992 59.5638 182.668 59.4514C182.344 59.3389 182.029 59.1905 181.728 58.9926ZM172.175 48.2207L174.14 40.7051L175.885 48.2207H172.175Z" fill="white"/>
<path d="M204.86 49.4216C204.311 48.9538 203.668 48.5805 202.944 48.2972C202.22 48.0138 201.446 47.8024 200.637 47.6585C201.176 47.4921 201.689 47.2762 202.179 47.0018C202.67 46.7275 203.088 46.4036 203.443 46.0213C203.798 45.639 204.077 45.1803 204.284 44.6495C204.491 44.1188 204.595 43.5116 204.595 42.828C204.595 41.7665 204.401 40.9075 204.019 40.2418C203.632 39.5762 203.106 39.0679 202.427 38.7126C201.752 38.3573 200.951 38.1189 200.025 37.9975C199.098 37.8716 198.095 37.8086 197.016 37.8086H191.934C192.203 37.8086 192.491 37.8761 192.793 38.011C193.094 38.1459 193.373 38.3213 193.634 38.5417C193.895 38.7576 194.106 39.005 194.272 39.2748C194.439 39.5447 194.52 39.8236 194.52 40.1159V57.324C194.52 57.6163 194.434 57.8952 194.272 58.165C194.106 58.4349 193.895 58.6778 193.634 58.8982C193.373 59.1185 193.094 59.294 192.793 59.4289C192.491 59.5638 192.203 59.6313 191.934 59.6313H197.016C198.406 59.6313 199.692 59.5593 200.866 59.4109C202.04 59.2669 203.061 58.9746 203.92 58.5383C204.783 58.1021 205.454 57.4859 205.93 56.6853C206.407 55.8847 206.645 54.8323 206.645 53.5189C206.645 52.6059 206.484 51.8098 206.16 51.1352C205.845 50.4605 205.409 49.8893 204.86 49.4216ZM197.02 38.6182H197.767C198.433 38.6182 199.044 38.6901 199.607 38.8385C200.169 38.987 200.65 39.2254 201.055 39.5537C201.46 39.8865 201.779 40.3228 202.004 40.8625C202.233 41.4022 202.346 42.0589 202.346 42.828C202.346 43.6825 202.233 44.3977 202.004 44.9779C201.774 45.5581 201.455 46.0258 201.037 46.3811C200.623 46.7365 200.137 46.9838 199.589 47.1277C199.04 47.2717 198.428 47.3437 197.767 47.3437H197.02V38.6182ZM203.596 55.8577C203.241 56.5234 202.768 57.0766 202.179 57.5264C201.586 57.9716 200.906 58.3045 200.137 58.5248C199.368 58.7452 198.577 58.8532 197.767 58.8532H197.02V48.1622H197.767C199.782 48.1622 201.347 48.5985 202.458 49.471C203.569 50.3436 204.127 51.6929 204.127 53.5234C204.127 54.414 203.951 55.1921 203.596 55.8577Z" fill="white"/>
<path d="M223.642 40.5012C222.85 39.5163 221.901 38.7516 220.79 38.2119C219.68 37.6722 218.447 37.4023 217.098 37.4023C215.749 37.4023 214.516 37.6722 213.405 38.2119C212.294 38.7516 211.341 39.5163 210.554 40.5012C209.762 41.4907 209.151 42.6736 208.714 44.0544C208.278 45.4352 208.058 46.9689 208.058 48.651C208.058 50.3331 208.278 51.8623 208.714 53.2341C209.151 54.6059 209.762 55.7843 210.554 56.7738C211.345 57.7633 212.294 58.5234 213.405 59.0631C214.516 59.6028 215.749 59.8727 217.098 59.8727C218.447 59.8727 219.68 59.6028 220.79 59.0631C221.901 58.5234 222.85 57.7588 223.642 56.7738C224.434 55.7888 225.045 54.6059 225.482 53.2341C225.918 51.8623 226.138 50.3331 226.138 48.651C226.138 46.9689 225.918 45.4352 225.482 44.0544C225.045 42.6736 224.434 41.4907 223.642 40.5012ZM223.111 52.3346C222.801 53.5805 222.36 54.7184 221.784 55.7483C221.213 56.7783 220.534 57.6194 219.743 58.276C218.951 58.9327 218.069 59.2565 217.093 59.2565C216.135 59.2565 215.254 58.9282 214.444 58.276C213.635 57.6194 212.942 56.7783 212.371 55.7483C211.8 54.7184 211.354 53.5805 211.031 52.3346C210.707 51.0888 210.549 49.8609 210.549 48.6555C210.549 47.4501 210.711 46.2178 211.031 44.9629C211.354 43.7036 211.8 42.5612 212.371 41.5357C212.942 40.5057 213.635 39.6647 214.444 39.0125C215.254 38.3559 216.14 38.032 217.093 38.032C218.069 38.032 218.96 38.3604 219.761 39.0125C220.561 39.6692 221.24 40.5102 221.802 41.5357C222.365 42.5657 222.801 43.7081 223.111 44.9629C223.422 46.2223 223.579 47.4501 223.579 48.6555C223.579 49.8609 223.422 51.0888 223.111 52.3346Z" fill="white"/>
<path d="M241.52 41.4234C240.927 40.6318 240.239 39.9976 239.447 39.5208C238.655 39.0441 237.832 38.6798 236.969 38.4279C236.105 38.1805 235.233 38.0141 234.351 37.9287C233.47 37.8432 232.62 37.8027 231.81 37.8027H226.728C226.997 37.8027 227.285 37.8702 227.587 38.0051C227.888 38.1401 228.167 38.3155 228.428 38.5359C228.689 38.7517 228.9 38.9991 229.066 39.269C229.233 39.5388 229.314 39.8177 229.314 40.11V57.3181C229.314 57.6105 229.228 57.8893 229.066 58.1592C228.9 58.429 228.689 58.6719 228.428 58.8923C228.167 59.1127 227.888 59.2881 227.587 59.423C227.285 59.558 226.997 59.6254 226.728 59.6254H231.81C233.056 59.6254 234.36 59.459 235.723 59.1262C237.086 58.7933 238.341 58.2086 239.496 57.3631C240.648 56.522 241.601 55.3796 242.348 53.9359C243.095 52.4921 243.472 50.6481 243.472 48.4037C243.472 46.8251 243.297 45.4623 242.942 44.3198C242.586 43.1774 242.114 42.2149 241.52 41.4234ZM240.306 53.0993C239.861 54.3991 239.272 55.4651 238.543 56.2971C237.814 57.1292 236.973 57.7364 236.02 58.1187C235.062 58.5055 234.068 58.6944 233.029 58.6944H231.814V38.8057H233.029C234.027 38.8057 235.003 38.9811 235.961 39.3364C236.915 39.6917 237.769 40.2495 238.516 41.0186C239.263 41.7877 239.861 42.7817 240.311 43.996C240.756 45.2104 240.981 46.6811 240.981 48.4082C240.976 50.2343 240.751 51.7995 240.306 53.0993Z" fill="white"/>
<path d="M263.703 37.8086H257.595C257.865 37.8086 258.153 37.8761 258.454 38.011C258.755 38.1459 259.034 38.3213 259.295 38.5417C259.556 38.7576 259.767 39.005 259.934 39.2748C260.1 39.5447 260.181 39.8236 260.181 40.1159V57.8862L249.396 37.8086H244.313C244.583 37.8086 244.871 37.8761 245.172 38.011C245.474 38.1459 245.753 38.3213 246.014 38.5417C246.274 38.7576 246.486 39.005 246.652 39.2748C246.819 39.5447 246.9 39.8236 246.9 40.1159V57.6658C246.9 57.9356 246.814 58.1965 246.652 58.4439C246.486 58.6913 246.274 58.9027 246.014 59.0691C245.753 59.2355 245.474 59.3704 245.172 59.4738C244.871 59.5773 244.583 59.6313 244.313 59.6313H250.394C250.147 59.6313 249.873 59.5773 249.585 59.4738C249.292 59.3704 249.018 59.231 248.757 59.0511C248.496 58.8757 248.28 58.6688 248.1 58.4259C247.925 58.1875 247.835 57.9312 247.835 57.6613V39.7651L258.621 59.6223H261.112V40.1069C261.112 39.837 261.202 39.5627 261.378 39.2793C261.553 38.996 261.773 38.7486 262.034 38.5327C262.295 38.3123 262.574 38.1369 262.875 38.002C263.177 37.8761 263.451 37.8086 263.703 37.8086Z" fill="white"/>
<path d="M278.496 58.9926C278.195 58.7947 277.93 58.5518 277.7 58.2595C277.471 57.9671 277.313 57.6568 277.232 57.324L272.807 37.8086C272.721 37.8716 272.631 37.9345 272.528 37.9975C272.361 38.1414 272.114 38.2584 271.781 38.3393C271.534 38.4023 271.242 38.4293 270.909 38.4158C270.576 38.4023 270.4 38.3978 270.378 38.3978L265.359 57.7872C265.296 58.0346 265.147 58.2775 264.909 58.5024C264.67 58.7317 264.401 58.9296 264.099 59.0961C263.798 59.2625 263.488 59.3929 263.164 59.4874C262.84 59.5818 262.557 59.6268 262.305 59.6268H268.538C268.291 59.6268 268.03 59.5818 267.76 59.4874C267.49 59.3929 267.248 59.2625 267.027 59.0961C266.807 58.9296 266.636 58.7362 266.514 58.5203C266.389 58.3045 266.357 58.0796 266.42 57.8502L268.696 49.1517H272.843L274.777 57.5668C274.858 57.9401 274.849 58.2595 274.745 58.5158C274.642 58.7767 274.48 58.9881 274.264 59.1545C274.044 59.3209 273.796 59.4424 273.517 59.5143C273.238 59.5863 272.96 59.6223 272.69 59.6223H280.327C280.057 59.6223 279.76 59.5638 279.436 59.4514C279.108 59.3434 278.793 59.1905 278.496 58.9926ZM268.939 48.2207L270.904 40.7051L272.649 48.2207H268.939Z" fill="white"/>
<path d="M296.761 58.9746C296.397 58.7677 296.059 58.5248 295.749 58.2415C295.439 57.9626 295.2 57.6523 295.034 57.324L290.545 48.3466C291.688 47.9508 292.655 47.3481 293.446 46.5386C294.238 45.729 294.629 44.6496 294.629 43.2958C294.629 42.1309 294.386 41.1953 293.896 40.4892C293.406 39.7831 292.758 39.2254 291.948 38.8206C291.139 38.4158 290.217 38.1459 289.191 38.011C288.161 37.8761 287.109 37.8086 286.025 37.8086H280.911C281.181 37.8086 281.469 37.8761 281.77 38.011C282.071 38.1459 282.35 38.3213 282.611 38.5417C282.872 38.7576 283.083 39.005 283.25 39.2748C283.416 39.5447 283.497 39.8236 283.497 40.1159V57.324C283.497 57.6163 283.412 57.8952 283.25 58.165C283.083 58.4349 282.872 58.6778 282.611 58.8982C282.35 59.1185 282.071 59.294 281.77 59.4289C281.469 59.5638 281.181 59.6313 280.911 59.6313H288.58C288.31 59.6313 288.022 59.5638 287.721 59.4289C287.419 59.294 287.14 59.1185 286.88 58.8982C286.619 58.6778 286.407 58.4349 286.241 58.165C286.074 57.8952 285.993 57.6163 285.993 57.324V49.0618C286.349 49.0618 286.709 49.0528 287.086 49.0303C287.46 49.0123 287.833 48.9673 288.211 48.9043L292.542 57.351C292.709 57.7063 292.78 58.0211 292.762 58.3C292.74 58.5788 292.655 58.8217 292.497 59.0151C292.34 59.213 292.137 59.3614 291.89 59.4648C291.643 59.5683 291.382 59.6223 291.112 59.6223H298.717C298.47 59.6223 298.173 59.5638 297.827 59.4514C297.481 59.3434 297.125 59.1815 296.761 58.9746ZM288.643 47.8159C287.977 48.0048 287.28 48.1083 286.556 48.1262H285.993V38.7126H286.556C287.262 38.7351 287.95 38.8206 288.616 38.978C289.281 39.1354 289.87 39.3873 290.392 39.7426C290.909 40.0979 291.332 40.5657 291.656 41.1459C291.98 41.7261 292.137 42.4457 292.137 43.2958C292.137 44.1503 291.98 44.8744 291.67 45.4771C291.359 46.0798 290.941 46.5745 290.424 46.9568C289.897 47.3436 289.304 47.627 288.643 47.8159Z" fill="white"/>
<path d="M310.384 37.9165C310.663 37.9885 310.915 38.1009 311.131 38.2449C311.351 38.3888 311.531 38.5777 311.675 38.8071C311.819 39.0364 311.895 39.2973 311.895 39.5852V51.2746C311.895 56.4289 310.317 59.0061 307.155 59.0061C305.284 59.0061 303.93 58.3584 303.084 57.0586C302.243 55.7588 301.821 53.8338 301.821 51.2746V40.1159C301.821 39.8236 301.902 39.5447 302.068 39.2748C302.234 39.005 302.446 38.7621 302.707 38.5417C302.968 38.3213 303.246 38.1459 303.548 38.011C303.849 37.8761 304.132 37.8086 304.407 37.8086H296.612C296.86 37.8086 297.143 37.8761 297.453 38.011C297.764 38.1459 298.061 38.3213 298.344 38.5417C298.623 38.7576 298.857 39.0095 299.046 39.2883C299.234 39.5672 299.324 39.846 299.324 40.1159V51.2746C299.324 54.3105 299.941 56.5369 301.177 57.9626C302.414 59.3884 304.29 60.099 306.804 60.099C308.882 60.099 310.398 59.3209 311.356 57.7602C312.309 56.204 312.799 54.0407 312.822 51.2746V39.5537C312.822 39.014 313.051 38.5867 313.51 38.2763C313.969 37.966 314.455 37.8086 314.976 37.8086H309.584C309.84 37.8086 310.105 37.8446 310.384 37.9165Z" fill="white"/>
<path d="M331.785 57.2925L324.521 44.2942L328.137 40.1159C328.447 39.7426 328.798 39.4143 329.18 39.1354C329.563 38.8566 329.95 38.6182 330.332 38.4203C330.714 38.2224 331.083 38.0739 331.438 37.9705C331.794 37.8671 332.104 37.8131 332.374 37.8131H326.356C326.873 37.8131 327.188 38.0155 327.291 38.4203C327.395 38.8251 327.197 39.3288 326.698 39.9315L320.617 47.0063V39.99C320.617 39.6976 320.707 39.4233 320.882 39.1624C321.058 38.9015 321.278 38.6766 321.539 38.4787C321.8 38.2808 322.079 38.1189 322.38 37.9975C322.681 37.8716 322.956 37.8086 323.208 37.8086H315.539C315.809 37.8086 316.097 37.8761 316.398 38.011C316.699 38.1459 316.978 38.3213 317.239 38.5417C317.5 38.7576 317.711 39.005 317.878 39.2748C318.044 39.5447 318.125 39.8236 318.125 40.1159V57.324C318.125 57.6163 318.04 57.8952 317.878 58.165C317.711 58.4349 317.5 58.6778 317.239 58.8982C316.978 59.1185 316.699 59.294 316.398 59.4289C316.097 59.5638 315.809 59.6313 315.539 59.6313H323.208C322.938 59.6313 322.65 59.5638 322.349 59.4289C322.047 59.294 321.768 59.1185 321.507 58.8982C321.247 58.6778 321.035 58.4349 320.869 58.165C320.702 57.8952 320.621 57.6163 320.621 57.324V48.8144L322.618 46.5071L329.104 57.5129C329.293 57.8232 329.369 58.111 329.338 58.3719C329.306 58.6328 329.212 58.8577 329.059 59.0421C328.902 59.231 328.699 59.3749 328.452 59.4783C328.204 59.5818 327.953 59.6358 327.705 59.6358H335C334.461 59.6358 333.885 59.4109 333.269 58.9656C332.653 58.5113 332.162 57.9581 331.785 57.2925Z" fill="white"/>
</svg>
