<svg width="43" height="58" viewBox="0 0 43 58" fill="none" xmlns="http://www.w3.org/2000/svg">
<path d="M8.35694 38.0693L2.86475 50.1319L11.5204 48.5582L16.0449 55.6401L21.3561 42.712L30.3724 56.0005L33.1594 48.5582L40.6348 51.1156L33.891 38.0693" stroke="#212121"/>
<path d="M13.0938 23.3239L18.7986 29.2255L30.7984 13.6846" stroke="#212121"/>
<path d="M21.356 5.14258C30.3103 5.14258 37.5698 12.402 37.5698 21.3564C37.5696 30.3107 30.3101 37.5693 21.356 37.5693C12.4019 37.5692 5.1433 30.3106 5.14307 21.3564C5.14307 12.4021 12.4018 5.14276 21.356 5.14258Z" stroke="#212121"/>
<path d="M21.3555 0.5C32.8738 0.5 42.2119 9.83796 42.2119 21.3564C42.2117 32.8748 32.8737 42.2119 21.3555 42.2119C9.83742 42.2117 0.500209 32.8746 0.5 21.3564C0.5 9.83806 9.83729 0.500175 21.3555 0.5Z" stroke="#212121"/>
</svg>
