<svg width="176" height="110" viewBox="0 0 176 110" fill="none" xmlns="http://www.w3.org/2000/svg">
<path d="M33.8502 40.8401C32.4076 39.6259 30.7324 38.6538 28.8279 37.9256C26.9218 37.1975 24.9069 36.6451 22.7849 36.2669C24.2007 35.8356 25.5479 35.2684 26.8281 34.5667C28.1067 33.8667 29.2095 33.0158 30.1366 32.0172C31.0621 31.0187 31.7968 29.831 32.3423 28.4559C32.8862 27.0792 33.159 25.5017 33.159 23.7202C33.159 20.9684 32.6553 18.7291 31.6478 17.0007C30.6404 15.2739 29.2513 13.9519 27.4824 13.0346C25.7119 12.1173 23.6166 11.497 21.1934 11.1735C18.7701 10.8501 16.1427 10.6875 13.3128 10.6875H0C0.706223 10.6875 1.45595 10.8633 2.24585 11.2133C3.03408 11.565 3.76875 12.0228 4.45154 12.5901C5.13099 13.1574 5.68994 13.791 6.12506 14.4926C6.56017 15.1943 6.77773 15.9225 6.77773 16.6789V61.3636C6.77773 62.12 6.56017 62.8482 6.12506 63.5498C5.68827 64.2515 5.13099 64.8851 4.45154 65.4524C3.77042 66.0197 3.03575 66.4775 2.24585 66.8292C1.45595 67.1808 0.706223 67.355 0 67.355H13.3128C16.9594 67.355 20.3231 67.1659 23.3991 66.7877C26.475 66.4112 29.1426 65.6548 31.4035 64.5202C33.6627 63.3873 35.4182 61.7816 36.6717 59.7032C37.9235 57.6265 38.5494 54.8862 38.5494 51.4858C38.5494 49.1122 38.1277 47.0471 37.2842 45.2938C36.4357 43.5388 35.2927 42.0543 33.8502 40.8401ZM13.3095 12.7908H15.2691C17.0113 12.7908 18.6178 12.9799 20.0872 13.3581C21.5565 13.7363 22.8234 14.3566 23.8844 15.2192C24.9454 16.0834 25.7755 17.2163 26.3746 18.6196C26.9737 20.0229 27.2733 21.7231 27.2733 23.7202C27.2733 25.933 26.9737 27.7957 26.3746 29.3052C25.7755 30.8163 24.932 32.0305 23.8425 32.9478C22.7531 33.8667 21.4862 34.5136 20.0453 34.8902C18.6028 35.2683 17.0096 35.4574 15.2675 35.4574H13.3095V12.7908ZM30.5433 57.5568C29.6162 59.2852 28.3794 60.7283 26.8264 61.8878C25.2751 63.0489 23.4911 63.9114 21.4762 64.4787C19.4613 65.046 17.3928 65.328 15.2691 65.328H13.3095V37.5624H15.2691C20.5491 37.5624 24.6475 38.6953 27.5611 40.9628C30.473 43.2286 31.9306 46.7385 31.9306 51.4858C31.9306 53.8064 31.4671 55.8301 30.5433 57.5568Z" fill="white"/>
<path d="M48.7541 59.945C50.8226 62.5094 53.3144 64.4916 56.2263 65.8949C59.1383 67.2982 62.3648 67.9998 65.9043 67.9998C69.4437 67.9998 72.6686 67.2998 75.5822 65.8949C78.4941 64.4916 80.986 62.5094 83.0544 59.945C85.1229 57.3822 86.7295 54.3185 87.8725 50.7572C89.0155 47.1959 89.5878 43.2282 89.5878 38.8574C89.5878 34.4867 89.0155 30.5074 87.8725 26.9178C86.7295 23.33 85.1229 20.253 83.0544 17.6886C80.9843 15.1259 78.4941 13.142 75.5822 11.7387C72.6686 10.3354 69.4421 9.63379 65.9043 9.63379C62.3648 9.63379 59.1383 10.3354 56.2263 11.7387C53.3128 13.142 50.8226 15.1259 48.7541 17.6886C46.684 20.253 45.0791 23.3283 43.9361 26.9178C42.793 30.5074 42.2207 34.4867 42.2207 38.8574C42.2207 43.2282 42.793 47.1959 43.9361 50.7572C45.0791 54.3185 46.684 57.3822 48.7541 59.945ZM50.0193 29.2633C50.8627 25.9989 52.0325 23.0298 53.532 20.3592C55.0281 17.6886 56.8405 15.5024 58.9625 13.8022C61.0862 12.102 63.399 11.2527 65.9043 11.2527C68.4631 11.2527 70.7909 12.102 72.8878 13.8022C74.9831 15.5024 76.767 17.6886 78.2381 20.3592C79.7074 23.0298 80.8521 25.9989 81.6688 29.2633C82.4854 32.5294 82.8938 35.7274 82.8938 38.8558C82.8938 41.9858 82.4854 45.1706 81.6688 48.4085C80.8521 51.6463 79.694 54.6005 78.1979 57.2728C76.7001 59.945 74.9178 62.1295 72.8477 63.8298C70.7775 65.53 68.4647 66.3792 65.9059 66.3792C63.4007 66.3792 61.0879 65.53 58.9642 63.8298C56.8405 62.1295 55.0298 59.945 53.5337 57.2728C52.0359 54.6022 50.8661 51.6463 50.0209 48.4085C49.1758 45.1706 48.7558 41.9875 48.7558 38.8558C48.7541 35.7274 49.1741 32.5294 50.0193 29.2633Z" fill="white"/>
<path d="M154.519 6.55699C155.171 6.77263 155.961 6.93519 156.887 7.04301C157.812 7.15248 158.751 7.25864 159.705 7.36646C160.657 7.47594 161.556 7.60863 162.399 7.77119C163.243 7.93375 163.882 8.20412 164.319 8.58066V8.2572C163.937 7.50247 163.134 6.84064 161.909 6.27335C160.684 5.70606 159.377 5.12716 157.988 4.53334C156.599 3.93951 155.279 3.2926 154.027 2.59095C152.773 1.89096 151.903 1.02676 151.413 0C150.705 1.40329 150.568 2.6855 151.004 3.84496C151.443 5.00607 152.613 5.91009 154.519 6.55699Z" fill="white"/>
<path d="M169.547 13.1143C170.253 13.1691 170.989 13.5323 171.753 14.2074C172.514 14.8825 173.209 15.7053 173.836 16.6756C174.462 17.6477 174.979 18.7126 175.387 19.8737C175.796 21.0348 176 22.1279 176 23.153V10.6859H139.41H139.084H123.485C124.138 10.6859 124.846 10.7954 125.609 11.0094C126.37 11.225 127.038 11.5352 127.61 11.9399C128.183 12.3447 128.618 12.8174 128.917 13.3565C129.217 13.8973 129.257 14.5176 129.039 15.2176L115.973 63.1402L102.089 15.5411C101.872 14.7863 101.898 14.1112 102.171 13.5174C102.442 12.9236 102.837 12.4243 103.356 12.0196C103.873 11.6148 104.499 11.2914 105.234 11.0475C105.968 10.8054 106.663 10.6826 107.317 10.6826H87.2217C87.9279 10.6826 88.7178 10.7921 89.5897 11.0061C90.4599 11.2217 91.3051 11.5468 92.1217 11.9781C92.9384 12.411 93.6865 12.9767 94.3676 13.6783C95.047 14.3799 95.524 15.1894 95.7968 16.1067L110.743 67.3484H117.358L131.488 15.2972C131.705 14.5425 132.114 13.8807 132.713 13.3134C133.312 12.7461 134.005 12.2617 134.796 11.857C135.585 11.4523 136.39 11.157 137.206 10.9663C137.961 10.7921 138.644 10.7009 139.258 10.6876C139.914 10.7141 140.605 10.8866 141.33 11.2084C142.118 11.5601 142.854 12.0179 143.535 12.5852C144.215 13.1525 144.774 13.7861 145.209 14.4878C145.644 15.1894 145.862 15.9176 145.862 16.674V61.3587C145.862 62.1151 145.644 62.8433 145.209 63.545C144.772 64.2466 144.215 64.8802 143.535 65.4475C142.854 66.0148 142.12 66.4726 141.33 66.8243C140.54 67.1759 139.79 67.3501 139.084 67.3501H176V54.883C176 55.9081 175.796 56.988 175.387 58.1209C174.979 59.2538 174.46 60.3071 173.836 61.2775C173.21 62.2495 172.516 63.0722 171.753 63.7457C170.989 64.4208 170.255 64.8122 169.547 64.92H152.395V37.7234H159.419C160.125 37.7234 160.875 37.8992 161.665 38.2492C162.453 38.6008 163.187 39.0587 163.87 39.6259C164.55 40.1932 165.109 40.8269 165.544 41.5285C165.979 42.2302 166.196 42.9584 166.196 43.7147V29.3053C166.196 30.0617 165.979 30.7898 165.544 31.4915C165.107 32.1931 164.55 32.8268 163.87 33.3941C163.189 33.9614 162.454 34.4192 161.665 34.7708C160.875 35.1225 160.125 35.2966 159.419 35.2966H152.395V13.1143H169.547Z" fill="white"/>
<path d="M21.3498 89.0529C21.2624 89.1966 21.1513 89.3259 21.0143 89.4433C20.8772 89.5606 20.7307 89.654 20.5724 89.7259C20.4141 89.7977 20.2629 89.8336 20.1211 89.8336H22.7912C23.5237 89.8336 24.1972 89.7953 24.8139 89.7163C25.4306 89.6396 25.9647 89.484 26.4184 89.2517C26.8721 89.0194 27.2241 88.6913 27.4746 88.265C27.7251 87.8387 27.8503 87.2783 27.8503 86.579C27.8503 86.0929 27.7653 85.669 27.5975 85.3098C27.4273 84.9505 27.1981 84.6464 26.9099 84.3973C26.6192 84.1483 26.2837 83.9495 25.9032 83.7986C25.5205 83.6501 25.1164 83.5352 24.6911 83.4586C24.9746 83.37 25.244 83.255 25.5015 83.1089C25.7567 82.9652 25.9789 82.7904 26.1655 82.5868C26.3522 82.3833 26.4987 82.139 26.6074 81.8564C26.7161 81.5738 26.7704 81.2505 26.7704 80.8865C26.7704 80.3213 26.6688 79.8639 26.468 79.5095C26.2648 79.155 25.9883 78.8844 25.6339 78.6952C25.2794 78.506 24.8588 78.3791 24.372 78.3144C23.8853 78.2474 23.3583 78.2139 22.7912 78.2139H20.1211C20.2629 78.2139 20.4141 78.2498 20.5724 78.3216C20.7307 78.3935 20.8772 78.4869 21.0143 78.6042C21.1513 78.7192 21.2624 78.8509 21.3498 78.9946C21.4373 79.1383 21.4798 79.2867 21.4798 79.4424V88.6051C21.4798 88.7583 21.4349 88.9092 21.3498 89.0529ZM22.7912 78.6449H23.1835C23.5332 78.6449 23.8546 78.6833 24.1499 78.7623C24.4453 78.8413 24.6981 78.9682 24.9108 79.1431C25.1235 79.3203 25.2889 79.5526 25.4094 79.84C25.5299 80.1273 25.589 80.477 25.589 80.8865C25.589 81.3415 25.5299 81.7223 25.4094 82.0312C25.2889 82.3402 25.1211 82.5892 24.9013 82.7784C24.684 82.9676 24.4288 83.0993 24.1405 83.176C23.8498 83.2526 23.5308 83.2909 23.1835 83.2909H22.7912V78.6449ZM22.7912 83.7244H23.1835C24.2421 83.7244 25.0644 83.9567 25.648 84.4213C26.2317 84.8859 26.5247 85.6043 26.5247 86.579C26.5247 87.0556 26.4325 87.4699 26.2459 87.8244C26.0592 88.1788 25.8111 88.4734 25.5015 88.7128C25.1896 88.9499 24.8328 89.1272 24.4288 89.2445C24.0247 89.3619 23.6088 89.4193 23.1835 89.4193H22.7912V83.7244Z" fill="white"/>
<path d="M41.7457 89.5821C41.6323 89.6707 41.4999 89.7354 41.3534 89.7737C41.2069 89.812 41.0604 89.8311 40.9187 89.8311H44.9309C44.7892 89.8311 44.6332 89.8 44.4631 89.7401C44.293 89.6803 44.1299 89.5965 43.9716 89.4911C43.8133 89.3857 43.6739 89.2564 43.5533 89.1007C43.4328 88.9451 43.3501 88.7798 43.3076 88.6026L40.9825 78.2114C40.9376 78.2449 40.8903 78.2784 40.8359 78.312C40.7485 78.3886 40.6186 78.4509 40.4437 78.494C40.3137 78.5275 40.1601 78.5419 39.9853 78.5347C39.8104 78.5299 39.7183 78.5251 39.7065 78.5251L37.0694 88.8493C37.0363 88.981 36.9583 89.1103 36.8331 89.23C36.7079 89.3522 36.5661 89.4575 36.4078 89.5462C36.2495 89.6348 36.0864 89.7042 35.9163 89.7545C35.7792 89.7952 35.6587 89.8144 35.5477 89.8216V87.2735C35.5477 87.4842 35.5075 87.7045 35.4248 87.9368C35.3421 88.1691 35.2381 88.3847 35.1129 88.5834C34.9876 88.7822 34.8482 88.9522 34.6946 89.0887C34.541 89.2276 34.3945 89.3067 34.2528 89.3282H30.8147V83.7507H32.223C32.3648 83.7507 32.516 83.7866 32.6743 83.8584C32.8326 83.9303 32.9791 84.0237 33.1162 84.141C33.2532 84.256 33.3643 84.3877 33.4517 84.5314C33.5391 84.675 33.5817 84.8235 33.5817 84.9792V82.024C33.5817 82.1796 33.5368 82.3281 33.4517 82.4718C33.3643 82.6155 33.2532 82.7448 33.1162 82.8622C32.9791 82.9795 32.8326 83.0729 32.6743 83.1447C32.516 83.2166 32.3648 83.2525 32.223 83.2525H30.8147V78.7047H34.2551C34.3969 78.7167 34.5434 78.7909 34.697 78.9298C34.8506 79.0687 34.99 79.2364 35.1152 79.4351C35.2405 79.6339 35.3445 79.8518 35.4272 80.0913C35.5099 80.3308 35.55 80.5535 35.55 80.7643V78.209H28.1445C28.2863 78.209 28.4375 78.2449 28.5958 78.3168C28.7542 78.3886 28.9007 78.482 29.0377 78.5993C29.1748 78.7143 29.2858 78.846 29.3733 78.9897C29.4607 79.1334 29.5032 79.2819 29.5032 79.4375V88.6002C29.5032 88.7559 29.4583 88.9043 29.3733 89.048C29.2858 89.1917 29.1748 89.3211 29.0377 89.4384C28.9007 89.5557 28.7542 89.6491 28.5958 89.721C28.4375 89.7928 28.2863 89.8288 28.1445 89.8288H35.465H35.5477H38.7424C38.6124 89.8288 38.4754 89.8048 38.3336 89.7545C38.1918 89.7042 38.0642 89.6348 37.9484 89.5462C37.835 89.4575 37.7428 89.3546 37.679 89.2396C37.6129 89.1247 37.5963 89.0049 37.6294 88.8828L38.8251 84.2512H41.0037L42.0198 88.7319C42.0623 88.9307 42.0576 89.1007 42.0032 89.2372C41.9465 89.3809 41.8615 89.4935 41.7457 89.5821ZM38.955 83.7554L39.9877 79.7537L40.9045 83.7554H38.955Z" fill="white"/>
<path d="M47.1365 88.9451C47.7863 89.7043 48.7717 90.0827 50.0926 90.0827C51.1843 90.0827 51.9806 89.6684 52.4839 88.8374C52.9848 88.0088 53.2424 86.8568 53.2542 85.384V79.1431C53.2542 78.8557 53.3747 78.6282 53.6134 78.4629C53.8544 78.2977 54.1096 78.2139 54.3837 78.2139H51.5505C51.6805 78.2139 51.8199 78.233 51.9688 78.2713C52.1153 78.3097 52.2476 78.3695 52.361 78.4462C52.4768 78.5228 52.5713 78.6234 52.6469 78.7455C52.7225 78.8677 52.7603 79.0065 52.7603 79.1598V85.384C52.7603 88.1285 51.931 89.5007 50.2698 89.5007C49.2868 89.5007 48.5756 89.1559 48.1337 88.4638C47.6918 87.7717 47.4697 86.7467 47.4697 85.384V79.4424C47.4697 79.2867 47.5122 79.1383 47.5997 78.9946C47.6871 78.8509 47.7981 78.7216 47.9352 78.6042C48.0722 78.4869 48.2188 78.3935 48.3771 78.3216C48.5354 78.2498 48.6866 78.2139 48.8284 78.2139H44.7334C44.8634 78.2139 45.0122 78.2498 45.1753 78.3216C45.3383 78.3935 45.4943 78.4869 45.6431 78.6042C45.7896 78.7192 45.9125 78.8533 46.0117 79.0018C46.111 79.1502 46.1583 79.2987 46.1583 79.4424V85.384C46.1606 86.9981 46.4867 88.186 47.1365 88.9451Z" fill="white"/>
<path d="M61.7204 78.7091C61.8621 78.7091 62.0086 78.7761 62.1622 78.9078C62.3158 79.0395 62.4553 79.2096 62.5805 79.4131C62.7057 79.6191 62.8097 79.8394 62.8924 80.0765C62.9751 80.316 63.0153 80.5387 63.0153 80.7495V78.2109H54.6953V80.7662C54.6953 80.5459 54.7378 80.3136 54.8253 80.0693C54.9127 79.8251 55.0238 79.6047 55.1608 79.406C55.2979 79.2072 55.4444 79.0395 55.6027 78.9078C55.761 78.7761 55.9122 78.7091 56.054 78.7091H58.2327V88.6021C58.2327 88.7578 58.1878 88.9063 58.1027 89.05C58.0153 89.1937 57.9042 89.323 57.7672 89.4403C57.6301 89.5577 57.4836 89.6511 57.3253 89.7229C57.167 89.7948 57.0157 89.8307 56.874 89.8307H60.9028C60.7728 89.8307 60.6263 89.7948 60.468 89.7229C60.3097 89.6511 60.1632 89.5553 60.0261 89.4332C59.8891 89.311 59.7757 89.1745 59.6811 89.026C59.589 88.8776 59.5417 88.7291 59.5417 88.5854V78.7091H61.7204Z" fill="white"/>
<path d="M71.2689 79.1737C71.335 79.03 71.4296 78.8983 71.5548 78.7761C71.68 78.654 71.8171 78.551 71.9636 78.4696C72.1101 78.3858 72.2637 78.3235 72.422 78.278C72.5803 78.2349 72.7245 78.2109 72.8568 78.2109H69.6621C69.792 78.2109 69.9385 78.2349 70.0968 78.2852C70.2552 78.3355 70.3946 78.4025 70.5151 78.4839C70.6356 78.5678 70.7254 78.6659 70.7845 78.7833C70.8436 78.9006 70.8483 79.0228 70.7916 79.1569L68.6956 83.7718L66.3043 79.224C66.2594 79.0683 66.2641 78.9318 66.3114 78.8096C66.361 78.6875 66.4366 78.5845 66.5406 78.5031C66.6446 78.4193 66.7698 78.3546 66.9163 78.3043C67.0628 78.254 67.2022 78.2301 67.3346 78.2301H63.3223C63.594 78.2301 63.9012 78.3235 64.2391 78.5127C64.577 78.7019 64.8393 78.9773 65.026 79.3437L67.5968 84.4567V88.6069C67.5968 88.7626 67.5519 88.9111 67.4669 89.0548C67.3795 89.1985 67.2684 89.3278 67.1313 89.4451C66.9943 89.5625 66.8478 89.6559 66.6895 89.7277C66.5312 89.7996 66.3799 89.8355 66.2381 89.8355H70.267C70.137 89.8355 69.9905 89.7996 69.8322 89.7277C69.6739 89.6559 69.5274 89.5625 69.3903 89.4451C69.2533 89.3278 69.1399 89.1961 69.0453 89.0476C68.9532 88.8991 68.9059 88.7506 68.9059 88.6069V84.4543L71.2689 79.1737Z" fill="white"/>
<path d="M78.3439 84.7176C78.1572 84.9067 77.9965 85.1247 77.8618 85.3737C77.7247 85.6228 77.6302 85.9126 77.5759 86.2455C77.4885 86.7556 77.5121 87.2369 77.6491 87.6895C77.7862 88.1446 78.013 88.5397 78.3297 88.8774C78.6463 89.2151 79.0456 89.4809 79.5253 89.6749C80.005 89.8689 80.5461 89.9646 81.1463 89.9646C81.8008 89.9527 82.3632 89.8377 82.8335 89.615C83.3037 89.3947 83.6959 89.1073 84.0126 88.7529L84.979 89.8305H87.6822C87.4956 89.8305 87.2924 89.7779 87.0679 89.6725C86.8434 89.5671 86.6095 89.4282 86.3637 89.2582C86.118 89.0857 85.8699 88.8942 85.6194 88.6762C85.3689 88.4607 85.1232 88.2475 84.8821 88.0368L84.6695 87.8213C84.8443 87.4884 84.9837 87.1411 85.0877 86.7747C85.1917 86.4107 85.2649 86.0563 85.3098 85.7114C85.3524 85.369 85.3736 85.0456 85.3665 84.7415C85.3618 84.4374 85.3311 84.1739 85.2767 83.9536H83.8354C84.1071 84.2075 84.3221 84.4853 84.4734 84.7846C84.6269 85.084 84.7262 85.3929 84.7758 85.7138C84.8254 86.0347 84.8254 86.3556 84.7758 86.6765C84.7262 86.9974 84.6317 87.3064 84.4899 87.6057L80.773 83.6878C80.7517 83.6662 80.7281 83.6375 80.7068 83.6039C80.6855 83.5704 80.6619 83.5441 80.6406 83.5201C80.9998 83.2447 81.3164 83.0172 81.5905 82.84C81.8623 82.6628 82.0986 82.4951 82.2947 82.3347C82.4908 82.1742 82.6539 82.0018 82.7862 81.8198C82.9162 81.6378 83.0201 81.4079 83.0981 81.1301C83.2281 80.6775 83.2517 80.2703 83.1643 79.9111C83.0768 79.5519 82.9185 79.2477 82.6893 78.9987C82.4601 78.7496 82.1789 78.558 81.8457 78.4263C81.5126 78.2946 81.1652 78.2275 80.806 78.2275C80.402 78.2275 80.0286 78.3066 79.6836 78.467C79.3387 78.6275 79.048 78.8406 78.807 79.1064C78.566 79.3723 78.3887 79.6788 78.2753 80.0284C78.1595 80.3781 78.1312 80.7445 78.1855 81.1325C78.2399 81.6091 78.41 82.076 78.6936 82.5359C78.9771 82.9957 79.289 83.4243 79.6269 83.8219C79.3977 83.9536 79.1732 84.0901 78.9558 84.229C78.7314 84.3679 78.5282 84.5308 78.3439 84.7176ZM79.2772 81.166C79.2229 80.9121 79.2111 80.6344 79.2441 80.3374C79.2772 80.038 79.3505 79.7626 79.4663 79.5064C79.582 79.2525 79.738 79.0418 79.9412 78.8765C80.1421 78.7113 80.3807 78.6275 80.6548 78.6275C80.9053 78.6275 81.1321 78.6993 81.3353 78.843C81.5362 78.9867 81.7016 79.1783 81.8268 79.4154C81.9521 79.6525 82.0371 79.9303 82.0797 80.2464C82.1222 80.5625 82.1128 80.8906 82.0466 81.2331C81.9592 81.7743 81.7701 82.203 81.4818 82.5191C81.1936 82.8352 80.8628 83.1082 80.4918 83.3405C80.1869 82.943 79.9247 82.5574 79.7049 82.1862C79.4852 81.8174 79.3434 81.4773 79.2772 81.166ZM79.6057 84.3775C79.7049 84.2937 79.7971 84.2098 79.8845 84.1212C80.0806 84.3535 80.2697 84.5643 80.4492 84.7511C80.6288 84.9403 80.7801 85.1055 80.9006 85.2492L83.833 88.5517C83.5376 88.8606 83.1855 89.1025 82.7768 89.2725C82.368 89.445 81.9544 89.5288 81.5409 89.5288C81.2361 89.5288 80.9502 89.4809 80.6903 89.3875C80.428 89.2941 80.1917 89.172 79.9766 89.0235C79.764 88.875 79.5773 88.705 79.419 88.5182C79.2607 88.329 79.126 88.1374 79.0173 87.9362C78.8755 87.6704 78.7739 87.3806 78.7148 87.0645C78.6558 86.7484 78.6392 86.4418 78.6652 86.1425C78.6912 85.8431 78.7574 85.5605 78.8613 85.2947C78.9653 85.0289 79.1142 84.8086 79.3127 84.6313C79.4072 84.5475 79.5064 84.4613 79.6057 84.3775Z" fill="white"/>
<path d="M98.759 89.4906C98.6007 89.3853 98.4613 89.2559 98.3408 89.1003C98.2202 88.9446 98.1375 88.7794 98.095 88.6021L95.7699 78.2109C95.725 78.2445 95.6777 78.278 95.6234 78.3115C95.5359 78.3882 95.406 78.4504 95.2311 78.4935C95.1011 78.5271 94.9475 78.5414 94.7727 78.5342C94.5978 78.5294 94.5057 78.5247 94.4939 78.5247L91.8568 88.8488C91.8237 88.9805 91.7457 89.1099 91.6181 89.2296C91.4929 89.3517 91.3511 89.4571 91.1928 89.5457C91.0345 89.6343 90.8715 89.7038 90.7013 89.7541C90.5312 89.8044 90.3823 89.8283 90.25 89.8283H93.525C93.3951 89.8283 93.258 89.8044 93.1162 89.7541C92.9745 89.7038 92.8469 89.6343 92.7311 89.5457C92.6153 89.4571 92.5255 89.3541 92.4617 89.2392C92.3956 89.1242 92.379 89.0045 92.4121 88.8823L93.6077 84.2507H95.7864L96.8025 88.7315C96.8474 88.9302 96.8403 89.1003 96.7859 89.2368C96.7316 89.3757 96.6465 89.4882 96.5331 89.5768C96.4173 89.6655 96.2873 89.7301 96.1408 89.7684C95.9943 89.8068 95.8478 89.8259 95.7061 89.8259H99.7183C99.5766 89.8259 99.4206 89.7948 99.2528 89.7349C99.0804 89.6798 98.9173 89.596 98.759 89.4906ZM93.7377 83.755L94.7703 79.7532L95.6871 83.755H93.7377Z" fill="white"/>
<path d="M102.41 89.5312C102.994 89.8185 103.641 89.9622 104.35 89.9622C104.908 89.9622 105.406 89.8856 105.848 89.7299C106.29 89.5743 106.687 89.3539 107.037 89.0666C107.07 89.045 107.101 89.0235 107.127 88.9995C107.155 88.978 107.183 88.9564 107.216 88.9324L107.283 86.643C107.271 86.6981 107.245 86.7819 107.2 86.892C107.07 87.2585 106.914 87.6033 106.732 87.929C106.552 88.2547 106.342 88.5469 106.101 88.8007C105.86 89.0546 105.595 89.2581 105.307 89.4066C105.019 89.5551 104.697 89.6317 104.35 89.6317C103.847 89.6317 103.384 89.4569 102.958 89.1097C102.533 88.76 102.169 88.3122 101.869 87.7638C101.569 87.2153 101.335 86.6095 101.165 85.9461C100.995 85.2827 100.912 84.6289 100.912 83.9871C100.912 83.3453 100.997 82.6891 101.165 82.0209C101.335 81.3504 101.569 80.7421 101.869 80.1961C102.169 79.6476 102.533 79.1998 102.958 78.8526C103.384 78.5029 103.849 78.3305 104.35 78.3305C104.929 78.3305 105.442 78.5436 105.891 78.9699C106.337 79.3962 106.715 79.935 107.02 80.5888L106.904 78.7951C106.817 78.728 106.751 78.6849 106.708 78.6634C106.021 78.2203 105.234 78 104.35 78C103.641 78 102.994 78.1437 102.41 78.4311C101.826 78.7184 101.326 79.1256 100.912 79.65C100.496 80.1769 100.175 80.8067 99.9456 81.542C99.7164 82.2772 99.6006 83.0938 99.6006 83.9895C99.6006 84.8852 99.7164 85.6994 99.9456 86.4298C100.175 87.1603 100.496 87.7877 100.912 88.3146C101.328 88.8391 101.826 89.2438 102.41 89.5312Z" fill="white"/>
<path d="M113.826 89.5816C113.71 89.6702 113.58 89.7349 113.433 89.7732C113.287 89.8115 113.14 89.8307 112.999 89.8307H117.011C116.869 89.8307 116.713 89.7996 116.543 89.7397C116.373 89.6798 116.21 89.596 116.052 89.4906C115.893 89.3853 115.754 89.2559 115.633 89.1003C115.513 88.9446 115.43 88.7794 115.388 88.6021L113.062 78.2109C113.018 78.2445 112.97 78.278 112.916 78.3115C112.828 78.3882 112.699 78.4504 112.524 78.4935C112.394 78.5271 112.24 78.5414 112.065 78.5342C111.89 78.5271 111.798 78.5247 111.786 78.5247L109.149 88.8488C109.116 88.9805 109.038 89.1099 108.913 89.2296C108.788 89.3517 108.646 89.4571 108.488 89.5457C108.329 89.6343 108.166 89.7038 107.996 89.7541C107.826 89.8044 107.677 89.8283 107.545 89.8283H110.82C110.69 89.8283 110.553 89.8044 110.411 89.7541C110.269 89.7038 110.142 89.6343 110.026 89.5457C109.91 89.4571 109.82 89.3541 109.757 89.2392C109.69 89.1242 109.674 89.0045 109.707 88.8823L110.903 84.2507H113.081L114.097 88.7315C114.14 88.9302 114.135 89.1003 114.081 89.2368C114.027 89.3805 113.941 89.493 113.826 89.5816ZM111.035 83.755L112.068 79.7532L112.984 83.755H111.035Z" fill="white"/>
<path d="M118.551 89.0524C118.464 89.1961 118.353 89.3254 118.215 89.4427C118.078 89.5601 117.932 89.6535 117.774 89.7253C117.615 89.7972 117.464 89.8331 117.322 89.8331H119.992C120.647 89.8331 121.332 89.7445 122.048 89.5673C122.764 89.3901 123.423 89.0787 124.031 88.6285C124.636 88.1807 125.137 87.5724 125.529 86.8036C125.921 86.0349 126.12 85.053 126.12 83.858C126.12 83.0174 126.027 82.2917 125.841 81.6835C125.654 81.0752 125.406 80.5603 125.096 80.1388C124.784 79.7173 124.423 79.3796 124.007 79.1258C123.591 78.8719 123.159 78.6779 122.705 78.5438C122.251 78.4121 121.793 78.3235 121.33 78.278C120.867 78.2325 120.42 78.2109 119.995 78.2109H117.325C117.466 78.2109 117.618 78.2469 117.776 78.3187C117.934 78.3906 118.081 78.484 118.218 78.6013C118.355 78.7163 118.466 78.848 118.553 78.9917C118.641 79.1353 118.683 79.2838 118.683 79.4395V88.6021C118.681 88.7578 118.638 88.9087 118.551 89.0524ZM119.992 78.7426H120.63C121.155 78.7426 121.668 78.836 122.171 79.0252C122.672 79.2144 123.121 79.5113 123.513 79.9208C123.905 80.3304 124.22 80.8596 124.456 81.5062C124.69 82.1528 124.808 82.936 124.808 83.8556C124.808 84.8303 124.69 85.6613 124.456 86.3534C124.222 87.0455 123.913 87.6131 123.53 88.0561C123.147 88.4992 122.705 88.8225 122.204 89.026C121.701 89.232 121.179 89.3326 120.633 89.3326H119.995V78.7426H119.992Z" fill="white"/>
<path d="M127.788 89.0529C127.701 89.1966 127.59 89.3259 127.453 89.4433C127.316 89.5606 127.169 89.654 127.011 89.7259C126.853 89.7977 126.701 89.8336 126.56 89.8336H133.963V87.2783C133.963 87.4891 133.923 87.7094 133.84 87.9417C133.757 88.174 133.653 88.3895 133.528 88.5883C133.403 88.7871 133.263 88.9571 133.11 89.0936C132.956 89.2325 132.81 89.3116 132.668 89.3331H129.227V83.7555H130.636C130.777 83.7555 130.929 83.7914 131.087 83.8633C131.245 83.9351 131.392 84.0285 131.529 84.1459C131.666 84.2608 131.777 84.3925 131.864 84.5362C131.952 84.6799 131.994 84.8284 131.994 84.9841V82.0288C131.994 82.1845 131.949 82.333 131.864 82.4767C131.777 82.6204 131.666 82.7497 131.529 82.867C131.392 82.9844 131.245 83.0778 131.087 83.1496C130.929 83.2215 130.777 83.2574 130.636 83.2574H129.227V78.7096H132.668C132.81 78.7216 132.956 78.7958 133.11 78.9347C133.263 79.0736 133.403 79.2413 133.528 79.44C133.653 79.6388 133.757 79.8567 133.84 80.0962C133.923 80.3357 133.963 80.5584 133.963 80.7692V78.2139H126.56C126.701 78.2139 126.853 78.2498 127.011 78.3216C127.169 78.3935 127.316 78.4869 127.453 78.6042C127.59 78.7192 127.701 78.8509 127.788 78.9946C127.876 79.1383 127.918 79.2867 127.918 79.4424V88.6051C127.921 88.7583 127.876 88.9092 127.788 89.0529Z" fill="white"/>
<path d="M135.487 89.0524C135.4 89.1961 135.288 89.3254 135.151 89.4427C135.014 89.5601 134.868 89.6535 134.71 89.7253C134.551 89.7972 134.4 89.8331 134.258 89.8331H137.453C137.323 89.8331 137.179 89.7948 137.028 89.7157C136.874 89.6391 136.73 89.5385 136.593 89.4164C136.456 89.2943 136.342 89.1625 136.248 89.0189C136.156 88.8752 136.108 88.7315 136.108 88.5878V79.9041L139.287 88.7195H140.598L143.365 79.6718V88.6021C143.365 88.7578 143.32 88.9063 143.235 89.05C143.148 89.1937 143.037 89.323 142.9 89.4403C142.762 89.5577 142.616 89.6511 142.458 89.7229C142.299 89.7948 142.148 89.8307 142.006 89.8307H146.035C145.905 89.8307 145.759 89.7924 145.6 89.7134C145.442 89.6367 145.296 89.5385 145.159 89.4236C145.021 89.3086 144.908 89.1745 144.814 89.026C144.721 88.8776 144.674 88.7291 144.674 88.5854V79.5377C144.674 79.394 144.721 79.2455 144.814 79.0898C144.906 78.9342 145.021 78.7905 145.159 78.6588C145.296 78.5271 145.442 78.4193 145.6 78.3355C145.759 78.2516 145.903 78.2109 146.035 78.2109H143.299L140.35 87.8885L136.926 78.2109H134.256C134.398 78.2109 134.549 78.2469 134.707 78.3187C134.866 78.3906 135.012 78.484 135.149 78.6013C135.286 78.7163 135.397 78.848 135.485 78.9917C135.572 79.1353 135.615 79.2838 135.615 79.4395V88.6021C135.617 88.7578 135.574 88.9087 135.487 89.0524Z" fill="white"/>
<path d="M149.563 78.5036C149.667 78.4198 149.792 78.3551 149.939 78.3049C150.085 78.2546 150.225 78.2306 150.357 78.2306H146.345C146.616 78.2306 146.924 78.324 147.262 78.5132C147.599 78.7024 147.862 78.9778 148.048 79.3442L150.619 84.4572V88.6075C150.619 88.7631 150.574 88.9116 150.489 89.0553C150.402 89.199 150.291 89.3283 150.154 89.4457C150.017 89.563 149.87 89.6564 149.712 89.7283C149.554 89.8001 149.402 89.836 149.261 89.836H153.289C153.159 89.836 153.013 89.8001 152.855 89.7283C152.696 89.6564 152.55 89.563 152.413 89.4457C152.276 89.3283 152.162 89.1966 152.068 89.0481C151.976 88.8996 151.928 88.7512 151.928 88.6075V84.4548L154.287 79.1766C154.353 79.0329 154.447 78.9012 154.573 78.779C154.698 78.6569 154.835 78.5539 154.981 78.4725C155.128 78.3911 155.281 78.3264 155.44 78.2809C155.598 78.2378 155.742 78.2139 155.875 78.2139H152.68C152.81 78.2139 152.956 78.2378 153.115 78.2881C153.273 78.3384 153.412 78.4054 153.533 78.4869C153.653 78.5707 153.743 78.6689 153.802 78.7862C153.861 78.9036 153.866 79.0257 153.812 79.1598L151.716 83.7747L149.324 79.2269C149.282 79.0712 149.284 78.9347 149.334 78.8126C149.383 78.688 149.459 78.5851 149.563 78.5036Z" fill="white"/>
<path d="M6.78876 104.314C6.49812 104.065 6.16258 103.867 5.78214 103.716C5.39934 103.567 4.99528 103.452 4.56994 103.376C4.8535 103.287 5.12287 103.172 5.38044 103.026C5.63563 102.882 5.85775 102.707 6.04443 102.504C6.2311 102.3 6.3776 102.056 6.4863 101.773C6.59499 101.491 6.64934 101.168 6.64934 100.803C6.64934 100.238 6.54774 99.7809 6.34689 99.4265C6.14368 99.072 5.8672 98.8014 5.51276 98.6122C5.15832 98.423 4.73772 98.2961 4.25095 98.2314C3.76418 98.1644 3.23724 98.1309 2.67013 98.1309H0C0.141777 98.1309 0.293 98.1668 0.451318 98.2386C0.609636 98.3105 0.756138 98.4039 0.893189 98.5212C1.03024 98.6362 1.1413 98.7679 1.22872 98.9116C1.31615 99.0553 1.3587 99.2037 1.3587 99.3594V108.522C1.3587 108.678 1.31379 108.826 1.22872 108.97C1.1413 109.114 1.03024 109.243 0.893189 109.36C0.756138 109.478 0.609636 109.571 0.451318 109.643C0.293 109.715 0.141777 109.751 0 109.751H2.67013C3.40265 109.751 4.07609 109.712 4.69282 109.633C5.30955 109.557 5.84358 109.401 6.29726 109.169C6.75095 108.936 7.10304 108.608 7.35351 108.182C7.60398 107.756 7.72921 107.195 7.72921 106.496C7.72921 106.01 7.64414 105.586 7.47637 105.227C7.30624 104.868 7.07704 104.563 6.78876 104.314ZM2.67013 98.5619H3.06238C3.4121 98.5619 3.73346 98.6002 4.02883 98.6793C4.3242 98.7583 4.57703 98.8852 4.7897 99.0601C5.00236 99.2373 5.16777 99.4696 5.28828 99.757C5.40879 100.044 5.46786 100.394 5.46786 100.803C5.46786 101.259 5.40879 101.639 5.28828 101.948C5.16777 102.257 5.00001 102.506 4.78025 102.695C4.56286 102.885 4.30765 103.016 4.01937 103.093C3.72873 103.17 3.40973 103.208 3.06238 103.208H2.67013V98.5619ZM6.12477 107.741C5.9381 108.096 5.68998 108.39 5.38044 108.63C5.06853 108.867 4.71172 109.044 4.30766 109.161C3.90359 109.279 3.48771 109.336 3.06238 109.336H2.67013V103.644H3.06238C4.12098 103.644 4.94329 103.876 5.52694 104.341C6.11059 104.805 6.4036 105.524 6.4036 106.498C6.4036 106.973 6.31144 107.387 6.12477 107.741Z" fill="white"/>
<path d="M13.8302 98.2058C13.9886 98.2561 14.128 98.3231 14.2485 98.4046C14.369 98.4884 14.4588 98.5866 14.5179 98.7039C14.5769 98.8213 14.5817 98.9434 14.525 99.0775L12.429 103.692L10.0377 99.1446C9.99281 98.9889 9.99753 98.8524 10.0448 98.7303C10.0944 98.6081 10.17 98.5051 10.274 98.4237C10.378 98.3399 10.5032 98.2752 10.6497 98.225C10.7962 98.1747 10.9356 98.1507 11.068 98.1507H7.05566C7.3274 98.1507 7.63459 98.2441 7.97249 98.4333C8.31039 98.6225 8.57267 98.8979 8.75934 99.2643L11.3302 104.377V108.528C11.3302 108.683 11.2853 108.832 11.2003 108.975C11.1129 109.119 11.0018 109.248 10.8647 109.366C10.7277 109.483 10.5812 109.576 10.4229 109.648C10.2646 109.72 10.1133 109.756 9.97154 109.756H14.0004C13.8704 109.756 13.7239 109.72 13.5656 109.648C13.4073 109.576 13.2608 109.483 13.1237 109.366C12.9867 109.248 12.8732 109.117 12.7787 108.968C12.6866 108.82 12.6393 108.671 12.6393 108.528V104.377L14.9975 99.0991C15.0637 98.9554 15.1582 98.8237 15.2835 98.7015C15.4087 98.5794 15.5458 98.4764 15.6923 98.395C15.8388 98.3112 15.9924 98.2489 16.1507 98.2034C16.309 98.1603 16.4531 98.1363 16.5855 98.1363H13.3907C13.5278 98.1316 13.6719 98.1555 13.8302 98.2058Z" fill="white"/>
<path d="M30.1013 98.6697C30.2218 98.5547 30.3612 98.4542 30.5196 98.3703C30.6779 98.2865 30.8386 98.2267 31.0016 98.1883C31.1646 98.15 31.3135 98.1309 31.4435 98.1309H28.2488C28.3787 98.1309 28.5205 98.1524 28.6741 98.1979C28.8277 98.241 28.96 98.3057 29.0758 98.3895C29.1916 98.4733 29.2766 98.5691 29.3381 98.6793C29.3972 98.7894 29.4066 98.9164 29.3617 99.0601L26.7412 108.886L23.9576 99.1247C23.9127 98.969 23.9198 98.8325 23.9742 98.7104C24.0285 98.5883 24.1089 98.4853 24.2105 98.4039C24.3144 98.3201 24.4397 98.2554 24.5862 98.2051C24.7327 98.1548 24.8721 98.1309 25.0044 98.1309H20.9756C21.1174 98.1309 21.2757 98.1524 21.4505 98.1979C21.6254 98.241 21.7955 98.3081 21.9586 98.3967C22.1216 98.4853 22.2728 98.6026 22.4099 98.7463C22.547 98.89 22.6415 99.0553 22.6958 99.2445L25.692 109.753H27.0177L29.8508 99.0792C29.9005 98.9211 29.9808 98.787 30.1013 98.6697Z" fill="white"/>
<path d="M37.4148 109.411C37.2565 109.305 37.1171 109.176 36.9966 109.02C36.8761 108.865 36.7934 108.699 36.7508 108.522L34.4257 98.1309C34.3808 98.1644 34.3335 98.1979 34.2792 98.2314C34.1918 98.3081 34.0618 98.3703 33.8869 98.4134C33.757 98.447 33.6034 98.4613 33.4285 98.4542C33.2537 98.4494 33.1615 98.4446 33.1497 98.4446L30.5126 108.769C30.4796 108.9 30.4016 109.03 30.2763 109.15C30.1511 109.272 30.0093 109.377 29.851 109.466C29.6927 109.554 29.5297 109.624 29.3595 109.674C29.1894 109.724 29.0405 109.748 28.9082 109.748H32.1833C32.0533 109.748 31.9162 109.724 31.7745 109.674C31.6327 109.624 31.5051 109.554 31.3893 109.466C31.2759 109.377 31.1837 109.274 31.1199 109.159C31.0538 109.044 31.0372 108.924 31.0703 108.802L32.266 104.171H34.4446L35.4607 108.651C35.5032 108.85 35.4985 109.02 35.4441 109.157C35.3898 109.296 35.3047 109.408 35.1913 109.497C35.0779 109.585 34.9455 109.65 34.799 109.688C34.6525 109.727 34.506 109.746 34.3643 109.746H38.3766C38.2348 109.746 38.0788 109.715 37.9087 109.655C37.7362 109.597 37.5732 109.516 37.4148 109.411ZM32.3959 103.675L33.4285 99.6731L34.3454 103.675H32.3959Z" fill="white"/>
<path d="M45.6519 108.505C45.5267 108.704 45.3873 108.874 45.2337 109.01C45.0801 109.149 44.9336 109.228 44.7918 109.25H41.3537V99.2894C41.3537 99.1338 41.401 98.9877 41.4931 98.8488C41.5853 98.7099 41.7011 98.5901 41.8381 98.4848C41.9752 98.3794 42.1217 98.2932 42.28 98.2285C42.4383 98.1615 42.5825 98.1279 42.7148 98.1279H38.6836C38.8254 98.1279 38.9766 98.1639 39.1349 98.2357C39.2932 98.3075 39.4397 98.4009 39.5768 98.5183C39.7138 98.6332 39.8249 98.765 39.9123 98.9087C39.9998 99.0523 40.0423 99.2008 40.0423 99.3565V108.519C40.0423 108.675 39.9974 108.823 39.9123 108.967C39.8249 109.111 39.7138 109.24 39.5768 109.357C39.4397 109.475 39.2932 109.568 39.1349 109.64C38.9766 109.712 38.8254 109.748 38.6836 109.748H46.0867V107.192C46.0867 107.403 46.0466 107.623 45.9639 107.856C45.8811 108.09 45.7772 108.306 45.6519 108.505Z" fill="white"/>
<path d="M46.8312 98.2386C46.9895 98.3105 47.136 98.4039 47.2731 98.5212C47.4101 98.6362 47.5212 98.7679 47.6086 98.9116C47.6961 99.0553 47.7386 99.2037 47.7386 99.3594V108.522C47.7386 108.678 47.6937 108.826 47.6086 108.97C47.5212 109.114 47.4101 109.243 47.2731 109.36C47.136 109.478 46.9895 109.571 46.8312 109.643C46.6729 109.715 46.5217 109.751 46.3799 109.751H53.783V107.195C53.783 107.406 53.7428 107.626 53.6601 107.859C53.5774 108.091 53.4735 108.307 53.3482 108.505C53.223 108.704 53.0836 108.874 52.93 109.011C52.7764 109.15 52.6299 109.229 52.4881 109.25H49.0477V103.673H50.456C50.5978 103.673 50.749 103.708 50.9073 103.78C51.0656 103.852 51.2121 103.946 51.3492 104.063C51.4862 104.178 51.5973 104.31 51.6847 104.453C51.7721 104.597 51.8147 104.745 51.8147 104.901V101.946C51.8147 102.102 51.7698 102.25 51.6847 102.394C51.5973 102.537 51.4862 102.667 51.3492 102.784C51.2121 102.901 51.0656 102.995 50.9073 103.067C50.749 103.138 50.5978 103.174 50.456 103.174H49.0477V98.6266H52.4881C52.6299 98.6386 52.7764 98.7128 52.93 98.8517C53.0836 98.9906 53.223 99.1582 53.3482 99.357C53.4735 99.5558 53.5774 99.7737 53.6601 100.013C53.7428 100.253 53.783 100.475 53.783 100.686V98.1309H46.3799C46.524 98.1309 46.6729 98.1668 46.8312 98.2386Z" fill="white"/>
<path d="M61.5073 98.2385C61.6656 98.3104 61.8121 98.4038 61.9491 98.5211C62.0862 98.6361 62.1972 98.7678 62.2847 98.9115C62.3721 99.0552 62.4146 99.2037 62.4146 99.3593V108.821L56.7483 98.1308H54.0781C54.2199 98.1308 54.3711 98.1667 54.5294 98.2385C54.6878 98.3104 54.8343 98.4038 54.9713 98.5211C55.1084 98.6361 55.2194 98.7678 55.3069 98.9115C55.3943 99.0552 55.4368 99.2037 55.4368 99.3593V108.704C55.4368 108.848 55.3919 108.987 55.3069 109.118C55.2194 109.25 55.1084 109.363 54.9713 109.451C54.8343 109.54 54.6878 109.612 54.5294 109.667C54.3711 109.722 54.2199 109.751 54.0781 109.751H57.2728C57.1429 109.751 56.9987 109.722 56.8475 109.667C56.6939 109.612 56.5498 109.537 56.4127 109.442C56.2757 109.348 56.1622 109.238 56.0677 109.109C55.9756 108.982 55.9283 108.845 55.9283 108.702V99.1725L61.5947 109.746H62.9038V99.3545C62.9038 99.2108 62.951 99.0648 63.0432 98.9139C63.1353 98.7654 63.2511 98.6313 63.3882 98.5163C63.5252 98.399 63.6717 98.3056 63.83 98.2337C63.9883 98.1619 64.1325 98.126 64.2648 98.126H61.0536C61.1977 98.1308 61.3489 98.1667 61.5073 98.2385Z" fill="white"/>
<path d="M64.5771 100.686C64.5771 100.466 64.6197 100.234 64.7071 99.9893C64.7945 99.745 64.9056 99.5247 65.0426 99.3259C65.1797 99.1271 65.3262 98.9595 65.4845 98.8278C65.6428 98.696 65.7941 98.629 65.9358 98.629H68.1145V108.522C68.1145 108.678 68.0696 108.826 67.9845 108.97C67.8971 109.114 67.786 109.243 67.649 109.36C67.5119 109.478 67.3654 109.571 67.2071 109.643C67.0488 109.715 66.8976 109.751 66.7558 109.751H70.7846C70.6547 109.751 70.5082 109.715 70.3498 109.643C70.1915 109.571 70.045 109.475 69.908 109.353C69.7709 109.231 69.6575 109.094 69.563 108.946C69.4708 108.797 69.4236 108.649 69.4236 108.505V98.629H71.6022C71.744 98.629 71.8905 98.696 72.0441 98.8278C72.1977 98.9595 72.3371 99.1295 72.4623 99.3331C72.5876 99.539 72.6915 99.7593 72.7742 99.9964C72.8569 100.236 72.8971 100.459 72.8971 100.669V98.1309H64.5771V100.686Z" fill="white"/>
<path d="M76.0025 98.9188C76.0947 98.7703 76.2104 98.6362 76.3475 98.5212C76.4845 98.4039 76.6311 98.3105 76.7894 98.2386C76.9477 98.1668 77.0918 98.1309 77.2242 98.1309H73.1953C73.3371 98.1309 73.4883 98.1668 73.6466 98.2386C73.805 98.3105 73.9515 98.4039 74.0885 98.5212C74.2256 98.6362 74.3366 98.7679 74.4241 98.9116C74.5115 99.0553 74.554 99.2037 74.554 99.3594V108.522C74.554 108.678 74.5091 108.826 74.4241 108.97C74.3366 109.114 74.2256 109.243 74.0885 109.36C73.9515 109.478 73.805 109.571 73.6466 109.643C73.4883 109.715 73.3371 109.751 73.1953 109.751H77.2242C77.0942 109.751 76.9477 109.715 76.7894 109.643C76.6311 109.571 76.4845 109.478 76.3475 109.36C76.2104 109.243 76.097 109.111 76.0025 108.963C75.9103 108.814 75.8631 108.666 75.8631 108.522V99.3594C75.8631 99.2157 75.908 99.0696 76.0025 98.9188Z" fill="white"/>
<path d="M87.7027 98.1309H84.4915C84.6332 98.1309 84.7845 98.1668 84.9428 98.2386C85.1011 98.3105 85.2476 98.4039 85.3847 98.5212C85.5217 98.6362 85.6328 98.7679 85.7202 98.9116C85.8076 99.0553 85.8502 99.2037 85.8502 99.3594V108.821L80.1838 98.1309H77.5137C77.6554 98.1309 77.8067 98.1668 77.965 98.2386C78.1233 98.3105 78.2698 98.4039 78.4069 98.5212C78.5439 98.6362 78.655 98.7679 78.7424 98.9116C78.8298 99.0553 78.8724 99.2037 78.8724 99.3594V108.704C78.8724 108.848 78.8275 108.987 78.7424 109.118C78.655 109.25 78.5439 109.363 78.4069 109.451C78.2698 109.54 78.1233 109.612 77.965 109.667C77.8067 109.722 77.6554 109.751 77.5137 109.751H80.7084C80.5784 109.751 80.4343 109.722 80.283 109.667C80.1295 109.612 79.9853 109.537 79.8483 109.442C79.7112 109.348 79.5978 109.238 79.5033 109.109C79.4111 108.982 79.3639 108.845 79.3639 108.702V99.1726L85.0302 109.746H86.344V99.3546C86.344 99.2109 86.3913 99.0649 86.4834 98.914C86.5756 98.7655 86.6914 98.6314 86.8284 98.5164C86.9655 98.3991 87.112 98.3057 87.2703 98.2338C87.4263 98.1668 87.5728 98.1309 87.7027 98.1309Z" fill="white"/>
<path d="M95.4754 109.411C95.3171 109.305 95.1776 109.176 95.0571 109.02C94.9366 108.865 94.8539 108.699 94.8114 108.522L92.4862 98.1309C92.4413 98.1644 92.3941 98.1979 92.3397 98.2314C92.2523 98.3081 92.12 98.3703 91.9475 98.4134C91.8175 98.447 91.6639 98.4613 91.4891 98.4542C91.3142 98.4494 91.2221 98.4446 91.2103 98.4446L88.5732 108.769C88.5401 108.9 88.4621 109.03 88.3369 109.15C88.2117 109.272 88.0699 109.377 87.9116 109.466C87.7532 109.554 87.5902 109.624 87.4201 109.674C87.2499 109.724 87.1011 109.748 86.9688 109.748H90.2438C90.1138 109.748 89.9768 109.724 89.835 109.674C89.6932 109.624 89.5656 109.554 89.4499 109.466C89.3364 109.377 89.2443 109.274 89.1805 109.159C89.1143 109.044 89.0978 108.924 89.1308 108.802L90.3265 104.171H92.5051L93.5212 108.651C93.5637 108.85 93.559 109.02 93.5047 109.157C93.4503 109.296 93.3653 109.408 93.2518 109.497C93.1384 109.585 93.0061 109.65 92.8596 109.688C92.7131 109.727 92.5666 109.746 92.4248 109.746H96.4371C96.2953 109.746 96.1394 109.715 95.9692 109.655C95.7991 109.595 95.6337 109.516 95.4754 109.411ZM90.4565 103.675L91.4891 99.6731L92.4059 103.675H90.4565Z" fill="white"/>
<path d="M107.628 104.314C107.34 104.065 107.002 103.867 106.621 103.716C106.241 103.565 105.835 103.452 105.409 103.376C105.693 103.287 105.962 103.172 106.22 103.026C106.477 102.88 106.697 102.707 106.884 102.504C107.07 102.3 107.217 102.056 107.326 101.773C107.434 101.491 107.489 101.168 107.489 100.803C107.489 100.238 107.387 99.7809 107.186 99.4265C106.983 99.072 106.706 98.8014 106.35 98.6122C105.995 98.423 105.575 98.2961 105.088 98.2314C104.601 98.1644 104.074 98.1309 103.507 98.1309H100.837C100.979 98.1309 101.13 98.1668 101.288 98.2386C101.447 98.3105 101.593 98.4039 101.73 98.5212C101.867 98.6362 101.978 98.7679 102.066 98.9116C102.153 99.0553 102.196 99.2037 102.196 99.3594V108.522C102.196 108.678 102.151 108.826 102.066 108.97C101.978 109.114 101.867 109.243 101.73 109.36C101.593 109.478 101.447 109.571 101.288 109.643C101.13 109.715 100.979 109.751 100.837 109.751H103.507C104.237 109.751 104.913 109.712 105.53 109.633C106.146 109.557 106.683 109.401 107.134 109.169C107.588 108.936 107.94 108.608 108.19 108.182C108.441 107.756 108.566 107.195 108.566 106.496C108.566 106.01 108.481 105.586 108.311 105.227C108.146 104.868 107.916 104.563 107.628 104.314ZM103.509 98.5619H103.902C104.251 98.5619 104.573 98.6002 104.868 98.6793C105.163 98.7583 105.416 98.8852 105.629 99.0601C105.842 99.2373 106.009 99.4696 106.128 99.757C106.248 100.044 106.307 100.394 106.307 100.803C106.307 101.259 106.248 101.639 106.128 101.948C106.007 102.257 105.839 102.506 105.62 102.695C105.402 102.885 105.147 103.016 104.859 103.093C104.57 103.17 104.249 103.208 103.902 103.208H103.509V98.5619ZM106.964 107.741C106.777 108.096 106.529 108.39 106.22 108.63C105.908 108.867 105.551 109.044 105.147 109.161C104.743 109.279 104.327 109.336 103.902 109.336H103.509V103.644H103.902C104.96 103.644 105.783 103.876 106.366 104.341C106.95 104.805 107.243 105.524 107.243 106.498C107.243 106.973 107.151 107.387 106.964 107.741Z" fill="white"/>
<path d="M117.495 99.5661C117.079 99.0416 116.581 98.6345 115.997 98.3471C115.413 98.0597 114.766 97.916 114.057 97.916C113.348 97.916 112.701 98.0597 112.117 98.3471C111.533 98.6345 111.033 99.0416 110.619 99.5661C110.203 100.093 109.882 100.723 109.653 101.458C109.423 102.193 109.308 103.01 109.308 103.906C109.308 104.801 109.423 105.615 109.653 106.346C109.882 107.076 110.203 107.704 110.619 108.231C111.035 108.757 111.533 109.162 112.117 109.45C112.701 109.737 113.348 109.881 114.057 109.881C114.766 109.881 115.413 109.737 115.997 109.45C116.581 109.162 117.079 108.755 117.495 108.231C117.911 107.706 118.232 107.076 118.462 106.346C118.691 105.615 118.807 104.801 118.807 103.906C118.807 103.01 118.691 102.193 118.462 101.458C118.232 100.723 117.911 100.093 117.495 99.5661ZM117.216 105.867C117.053 106.53 116.822 107.136 116.519 107.685C116.219 108.233 115.862 108.681 115.447 109.03C115.031 109.38 114.568 109.553 114.055 109.553C113.551 109.553 113.088 109.378 112.663 109.03C112.238 108.681 111.874 108.233 111.574 107.685C111.274 107.136 111.04 106.53 110.87 105.867C110.699 105.204 110.617 104.55 110.617 103.908C110.617 103.266 110.702 102.61 110.87 101.942C111.04 101.271 111.274 100.663 111.574 100.117C111.874 99.5685 112.238 99.1206 112.663 98.7734C113.088 98.4237 113.554 98.2513 114.055 98.2513C114.568 98.2513 115.035 98.4261 115.456 98.7734C115.877 99.123 116.233 99.5709 116.529 100.117C116.824 100.665 117.053 101.274 117.216 101.942C117.379 102.612 117.462 103.266 117.462 103.908C117.462 104.55 117.379 105.204 117.216 105.867Z" fill="white"/>
<path d="M126.888 100.056C126.576 99.6343 126.215 99.2966 125.799 99.0428C125.383 98.7889 124.95 98.5949 124.497 98.4608C124.043 98.3291 123.585 98.2405 123.121 98.195C122.658 98.1495 122.212 98.1279 121.786 98.1279H119.116C119.258 98.1279 119.409 98.1639 119.568 98.2357C119.726 98.3075 119.872 98.4009 120.009 98.5183C120.146 98.6332 120.258 98.765 120.345 98.9087C120.432 99.0523 120.475 99.2008 120.475 99.3565V108.519C120.475 108.675 120.43 108.823 120.345 108.967C120.258 109.111 120.146 109.24 120.009 109.357C119.872 109.475 119.726 109.568 119.568 109.64C119.409 109.712 119.258 109.748 119.116 109.748H121.786C122.441 109.748 123.126 109.659 123.842 109.482C124.558 109.305 125.217 108.993 125.825 108.543C126.43 108.095 126.931 107.487 127.323 106.718C127.715 105.949 127.914 104.968 127.914 103.773C127.914 102.932 127.821 102.206 127.635 101.598C127.448 100.99 127.2 100.477 126.888 100.056ZM126.25 106.273C126.016 106.965 125.706 107.532 125.324 107.976C124.941 108.419 124.499 108.742 123.998 108.945C123.495 109.151 122.973 109.252 122.427 109.252H121.789V98.662H122.427C122.951 98.662 123.464 98.7554 123.967 98.9446C124.468 99.1338 124.917 99.4307 125.31 99.8402C125.702 100.25 126.016 100.779 126.252 101.426C126.486 102.072 126.604 102.855 126.604 103.775C126.602 104.747 126.484 105.581 126.25 106.273Z" fill="white"/>
<path d="M138.542 98.1309H135.333C135.475 98.1309 135.626 98.1668 135.785 98.2386C135.943 98.3105 136.089 98.4039 136.226 98.5212C136.364 98.6362 136.475 98.7679 136.562 98.9116C136.649 99.0553 136.692 99.2037 136.692 99.3594V108.821L131.026 98.1309H128.355C128.497 98.1309 128.648 98.1668 128.807 98.2386C128.965 98.3105 129.112 98.4039 129.249 98.5212C129.386 98.6362 129.497 98.7679 129.584 98.9116C129.672 99.0553 129.714 99.2037 129.714 99.3594V108.704C129.714 108.848 129.669 108.987 129.584 109.118C129.497 109.25 129.386 109.363 129.249 109.451C129.112 109.54 128.965 109.612 128.807 109.667C128.648 109.722 128.497 109.751 128.355 109.751H131.55C131.42 109.751 131.276 109.722 131.125 109.667C130.971 109.612 130.827 109.537 130.69 109.442C130.553 109.348 130.44 109.238 130.345 109.109C130.253 108.982 130.206 108.845 130.206 108.702V99.1726L135.872 109.746H137.181V99.3546C137.181 99.2109 137.228 99.0649 137.321 98.914C137.413 98.7631 137.528 98.6314 137.665 98.5164C137.803 98.3991 137.949 98.3057 138.107 98.2338C138.266 98.1668 138.41 98.1309 138.542 98.1309Z" fill="white"/>
<path d="M146.314 109.411C146.156 109.305 146.017 109.176 145.896 109.02C145.775 108.865 145.693 108.699 145.65 108.522L143.325 98.1309C143.28 98.1644 143.233 98.1979 143.179 98.2314C143.091 98.3081 142.961 98.3703 142.786 98.4134C142.656 98.447 142.503 98.4613 142.328 98.4542C142.153 98.447 142.061 98.4446 142.049 98.4446L139.412 108.769C139.379 108.9 139.301 109.03 139.176 109.15C139.051 109.272 138.909 109.377 138.75 109.466C138.592 109.554 138.429 109.624 138.259 109.674C138.089 109.724 137.94 109.748 137.808 109.748H141.083C140.953 109.748 140.816 109.724 140.674 109.674C140.532 109.624 140.405 109.554 140.289 109.466C140.173 109.377 140.083 109.274 140.019 109.159C139.953 109.044 139.937 108.924 139.97 108.802L141.165 104.171H143.344L144.36 108.651C144.403 108.85 144.398 109.02 144.344 109.157C144.289 109.296 144.204 109.408 144.091 109.497C143.975 109.585 143.845 109.65 143.698 109.688C143.552 109.727 143.405 109.746 143.264 109.746H147.276C147.134 109.746 146.978 109.715 146.808 109.655C146.636 109.597 146.47 109.516 146.314 109.411ZM141.293 103.675L142.326 99.6731L143.242 103.675H141.293Z" fill="white"/>
<path d="M155.91 109.401C155.719 109.291 155.541 109.161 155.378 109.011C155.215 108.862 155.09 108.697 155.003 108.522L152.644 103.742C153.245 103.531 153.753 103.21 154.169 102.779C154.584 102.348 154.79 101.773 154.79 101.053C154.79 100.432 154.662 99.9342 154.405 99.5582C154.147 99.1822 153.807 98.8852 153.382 98.6697C152.956 98.4542 152.472 98.3105 151.933 98.2386C151.392 98.1668 150.839 98.1309 150.27 98.1309H147.583C147.725 98.1309 147.876 98.1668 148.034 98.2386C148.193 98.3105 148.339 98.4039 148.476 98.5212C148.613 98.6362 148.724 98.7679 148.812 98.9116C148.899 99.0553 148.942 99.2037 148.942 99.3594V108.522C148.942 108.678 148.897 108.826 148.812 108.97C148.724 109.114 148.613 109.243 148.476 109.36C148.339 109.478 148.193 109.571 148.034 109.643C147.876 109.715 147.725 109.751 147.583 109.751H151.612C151.47 109.751 151.319 109.715 151.161 109.643C151.002 109.571 150.856 109.478 150.719 109.36C150.582 109.243 150.471 109.114 150.383 108.97C150.296 108.826 150.253 108.678 150.253 108.522V104.123C150.44 104.123 150.629 104.118 150.827 104.106C151.023 104.096 151.22 104.072 151.418 104.039L153.694 108.536C153.781 108.726 153.819 108.893 153.809 109.042C153.798 109.19 153.753 109.32 153.67 109.423C153.587 109.528 153.481 109.607 153.351 109.662C153.221 109.717 153.084 109.746 152.942 109.746H156.938C156.808 109.746 156.652 109.715 156.47 109.655C156.288 109.597 156.101 109.511 155.91 109.401ZM151.645 103.459C151.295 103.56 150.929 103.615 150.548 103.625H150.253V98.6122H150.548C150.919 98.6242 151.281 98.6697 151.631 98.7535C151.98 98.8373 152.29 98.9714 152.564 99.1606C152.836 99.3498 153.058 99.5989 153.228 99.9078C153.398 100.217 153.481 100.6 153.481 101.053C153.481 101.508 153.398 101.893 153.235 102.214C153.072 102.535 152.852 102.798 152.581 103.002C152.304 103.208 151.992 103.359 151.645 103.459Z" fill="white"/>
<path d="M163.067 98.1883C163.214 98.2267 163.346 98.2865 163.46 98.3632C163.575 98.4398 163.67 98.5404 163.746 98.6625C163.821 98.7846 163.861 98.9236 163.861 99.0768V105.301C163.861 108.046 163.032 109.418 161.371 109.418C160.388 109.418 159.677 109.073 159.232 108.381C158.79 107.689 158.568 106.664 158.568 105.301V99.3594C158.568 99.2037 158.611 99.0553 158.698 98.9116C158.786 98.7679 158.897 98.6386 159.034 98.5212C159.171 98.4039 159.317 98.3105 159.476 98.2386C159.634 98.1668 159.783 98.1309 159.927 98.1309H155.832C155.962 98.1309 156.111 98.1668 156.274 98.2386C156.437 98.3105 156.593 98.4039 156.742 98.5212C156.888 98.6362 157.011 98.7703 157.11 98.9188C157.21 99.0672 157.257 99.2157 157.257 99.3594V105.301C157.257 106.918 157.581 108.103 158.23 108.862C158.88 109.621 159.866 110 161.186 110C162.278 110 163.074 109.585 163.578 108.754C164.079 107.926 164.336 106.774 164.348 105.301V99.0601C164.348 98.7727 164.469 98.5452 164.71 98.3799C164.951 98.2147 165.206 98.1309 165.48 98.1309H162.647C162.781 98.1309 162.921 98.15 163.067 98.1883Z" fill="white"/>
<path d="M174.31 108.505L170.494 101.584L172.394 99.3594C172.557 99.1606 172.741 98.9858 172.942 98.8373C173.143 98.6889 173.346 98.5619 173.547 98.4566C173.748 98.3512 173.942 98.2722 174.128 98.2171C174.315 98.162 174.478 98.1333 174.62 98.1333H171.458C171.73 98.1333 171.895 98.241 171.95 98.4566C172.004 98.6721 171.9 98.9403 171.638 99.2612L168.443 103.028V99.2924C168.443 99.1367 168.49 98.9906 168.583 98.8517C168.675 98.7128 168.791 98.5931 168.928 98.4877C169.065 98.3823 169.211 98.2961 169.369 98.2314C169.528 98.1644 169.672 98.1309 169.804 98.1309H165.775C165.917 98.1309 166.068 98.1668 166.227 98.2386C166.385 98.3105 166.532 98.4039 166.669 98.5212C166.806 98.6362 166.917 98.7679 167.004 98.9116C167.092 99.0553 167.134 99.2037 167.134 99.3594V108.522C167.134 108.678 167.089 108.826 167.004 108.97C166.917 109.114 166.806 109.243 166.669 109.36C166.532 109.478 166.385 109.571 166.227 109.643C166.068 109.715 165.917 109.751 165.775 109.751H169.804C169.662 109.751 169.511 109.715 169.353 109.643C169.195 109.571 169.048 109.478 168.911 109.36C168.774 109.243 168.663 109.114 168.575 108.97C168.488 108.826 168.446 108.678 168.446 108.522V103.991L169.495 102.762L172.902 108.623C173.001 108.788 173.041 108.941 173.025 109.08C173.008 109.219 172.959 109.339 172.878 109.437C172.796 109.537 172.689 109.614 172.559 109.669C172.429 109.724 172.297 109.753 172.167 109.753H176C175.716 109.753 175.414 109.633 175.09 109.396C174.766 109.154 174.509 108.86 174.31 108.505Z" fill="white"/>
</svg>
