<svg width="30" height="30" viewBox="0 0 30 30" fill="none" xmlns="http://www.w3.org/2000/svg">
<path fill-rule="evenodd" clip-rule="evenodd" d="M27 15C27 21.9036 21.4036 27.5 14.5 27.5C7.59644 27.5 2 21.9036 2 15C2 8.09644 7.59644 2.5 14.5 2.5C21.4036 2.5 27 8.09644 27 15ZM14.9479 11.7281C13.7321 12.2338 11.3022 13.2804 7.65821 14.8681C7.06648 15.1034 6.75651 15.3336 6.72829 15.5587C6.6806 15.9391 7.15698 16.0889 7.80569 16.2928C7.89393 16.3206 7.98536 16.3493 8.07909 16.3798C8.71732 16.5873 9.57585 16.83 10.0222 16.8396C10.427 16.8484 10.8789 16.6815 11.3777 16.3389C14.7824 14.0406 16.54 12.879 16.6503 12.8539C16.7282 12.8363 16.836 12.814 16.9091 12.879C16.9822 12.944 16.975 13.067 16.9673 13.1C16.9201 13.3012 15.0501 15.0397 14.0824 15.9394C13.7807 16.2198 13.5667 16.4188 13.523 16.4642C13.425 16.566 13.3251 16.6623 13.2291 16.7548C12.6362 17.3264 12.1916 17.755 13.2537 18.455C13.7642 18.7914 14.1726 19.0695 14.5801 19.347C15.0252 19.6501 15.469 19.9524 16.0433 20.3288C16.1896 20.4247 16.3294 20.5244 16.4655 20.6214C16.9834 20.9906 17.4487 21.3223 18.0235 21.2694C18.3575 21.2387 18.7026 20.9246 18.8778 19.9879C19.2919 17.7741 20.1058 12.9776 20.294 11.001C20.3104 10.8278 20.2897 10.6062 20.2731 10.5089C20.2564 10.4116 20.2216 10.273 20.0952 10.1704C19.9454 10.0489 19.7142 10.0233 19.6108 10.025C19.1406 10.0334 18.4193 10.2842 14.9479 11.7281Z" stroke="black" stroke-linejoin="round"/>
</svg>
