<svg width="26" height="26" viewBox="0 0 26 26" fill="none" xmlns="http://www.w3.org/2000/svg">
<path d="M6.8032 22.4649H6.79825C0.862118 20.7557 0.946144 14.4549 1.01534 11.0921C1.08454 7.72933 1.72214 5.01382 3.53116 3.16303C6.78343 0.108719 13.461 0.51832 13.461 0.51832C19.1253 0.543604 21.6658 2.42979 22.2935 3.02144C24.3793 4.87729 25.5359 8.98342 24.7549 15.4865C24.0037 21.7873 19.3625 22.3941 18.542 22.6671C18.1861 22.7834 15.0673 23.5824 11.0045 23.2335C11.0045 23.2335 8.95571 24.6392 8.03392 25.3928C7.93366 25.4747 7.43732 25.6748 7.43732 25.157C7.43732 24.6392 6.8032 22.4649 6.8032 22.4649ZM6.8032 22.4649C6.79826 22.4649 6.79826 22.4649 6.8032 22.4649ZM16.1102 10.9252C16.041 9.47393 15.2749 8.66484 13.8959 8.58899M19.4366 12.1743C19.402 7.73439 16.471 5.16047 12.8283 5.13519M18.8781 17.135V17.1451C18.3443 18.1059 17.3459 19.1678 16.3178 18.829L16.3079 18.8139C15.265 18.5155 12.8085 17.221 11.2565 15.9568C10.4558 15.3095 9.72431 14.5459 9.16085 13.8127C8.65175 13.1603 8.13772 12.3866 7.63851 11.4562C6.58572 9.50933 6.35342 8.63955 6.35342 8.63955C6.02226 7.58774 7.05527 6.56626 7.99932 6.02013H8.00921C8.46393 5.7774 8.89889 5.85831 9.1905 6.21734C9.1905 6.21734 9.80339 6.96575 10.0654 7.3349C10.3125 7.67876 10.6436 8.22995 10.8166 8.53842C11.1181 9.08961 10.9303 9.65092 10.6338 9.88353L10.0406 10.369C9.73914 10.6168 9.77868 11.0769 9.77868 11.0769C9.77868 11.0769 10.6585 14.4802 13.9453 15.3398C13.9453 15.3398 14.3951 15.3803 14.6373 15.0718L15.1118 14.465C15.3392 14.1616 15.8878 13.9694 16.4266 14.2779C17.1531 14.6976 18.0774 15.3499 18.6903 15.9416C19.0363 16.2298 19.1154 16.6698 18.8781 17.135Z" stroke="#0B0B0B" stroke-linecap="round" stroke-linejoin="round"/>
</svg>
