<svg width="26" height="26" viewBox="0 0 26 26" fill="none" xmlns="http://www.w3.org/2000/svg">
<path d="M1.07712 7.6808C1.13559 6.40331 1.33561 5.57939 1.60613 4.88002L1.60976 4.87036C1.87783 4.15869 2.29776 3.51398 2.84034 2.98111L2.84795 2.97364L2.85543 2.96602C3.38874 2.42275 4.03367 2.00323 4.74472 1.73588L4.75699 1.73118C5.45476 1.45983 6.27707 1.26054 7.55562 1.20209M1.07712 7.6808C1.01566 9.04574 1 9.46885 1 13.0078C1 16.5477 1.0148 16.9698 1.07709 18.335M1.07712 7.6808L1.07712 8.0251M1.61088 21.1459C1.87823 21.857 2.29775 22.5019 2.84102 23.0352L2.84862 23.0427L2.85609 23.0503C3.38899 23.5929 4.03371 24.0128 4.74539 24.2809L4.75602 24.2849C5.45442 24.5558 6.27713 24.7551 7.55562 24.8136M1.61088 21.1459L1.60618 21.1337C1.33483 20.4359 1.13554 19.6136 1.07709 18.335M1.61088 21.1459L1.59485 21.0615M1.07709 18.335L1.09803 18.4453M1.07709 18.335L1.07709 17.9899M1.59485 21.0615L1.09803 18.4453M1.59485 21.0615C1.38384 20.5041 1.16656 19.7263 1.09803 18.4453M1.59485 21.0615C1.60225 21.0811 1.60964 21.1004 1.61702 21.1194C1.88462 21.8408 2.30861 22.494 2.85852 23.0321C3.39639 23.5819 4.04934 24.0058 4.77049 24.2734C5.34922 24.4988 6.16469 24.7344 7.55543 24.7981C8.95891 24.862 9.39252 24.875 12.8828 24.875C16.3731 24.875 16.8071 24.862 18.2106 24.7981C19.6031 24.7343 20.4176 24.4974 20.9943 24.2737C21.7158 24.0062 22.3691 23.5822 22.9072 23.032C23.4569 22.4942 23.8808 21.8413 24.1484 21.1202C24.3738 20.5414 24.6094 19.726 24.6731 18.3352C24.737 16.9317 24.75 16.4973 24.75 13.0078C24.75 9.5184 24.737 9.08355 24.6731 7.68006C24.6089 6.28033 24.3699 5.46461 24.1452 4.8874C23.8514 4.12903 23.4789 3.55547 22.9062 2.98284C22.3348 2.41249 21.7627 2.03974 21.0038 1.74568C20.4246 1.51921 19.6083 1.28163 18.2106 1.21758C18.0891 1.21205 17.9748 1.2069 17.8652 1.20211M1.09803 18.4453C1.09609 18.4091 1.09427 18.3726 1.09258 18.3356C1.08704 18.214 1.08189 18.0996 1.07709 17.9899M7.55562 1.20209C8.92089 1.1398 9.34385 1.125 12.8828 1.125C16.4218 1.125 16.8446 1.14065 18.2095 1.20211M7.55562 1.20209L7.90081 1.20209M18.2095 1.20211L17.8652 1.20211M18.2095 1.20211C19.4872 1.26055 20.3112 1.46054 21.0107 1.73108L21.0203 1.73476C21.732 2.00283 22.3767 2.42276 22.9095 2.96534L22.9169 2.97287L22.9245 2.98027C23.4672 3.51319 23.887 4.15807 24.1549 4.86994L24.1595 4.88199C24.4308 5.57976 24.6301 6.40207 24.6886 7.68062M7.90081 1.20209L17.8652 1.20211M7.90081 1.20209C9.05688 1.15154 9.69586 1.14066 12.8828 1.14066C16.0701 1.14066 16.7089 1.15154 17.8652 1.20211M7.90081 1.20209C7.79109 1.20689 7.67671 1.21204 7.55506 1.21758C6.16259 1.28139 5.34808 1.5183 4.77139 1.74197C4.04713 2.01046 3.39164 2.4367 2.85244 2.98983C2.28516 3.55945 1.91384 4.13027 1.62072 4.88674C1.39424 5.46601 1.15662 6.28267 1.09256 7.68043C1.08705 7.80169 1.08191 7.91572 1.07712 8.0251M24.6886 18.335C24.6301 19.6135 24.4308 20.4363 24.16 21.1347L24.1559 21.1453C23.8878 21.857 23.4679 22.5017 22.9253 23.0345L22.9177 23.042L22.9102 23.0496C22.3769 23.5929 21.732 24.0124 21.0209 24.2798L21.0087 24.2845C20.3109 24.5558 19.4886 24.7551 18.21 24.8136M1.07709 17.9899C1.02654 16.8338 1.01566 16.1948 1.01566 13.0078C1.01566 9.81988 1.02653 9.1818 1.07712 8.0251M1.07709 17.9899L1.07712 8.0251M10.7694 18.1101C11.4394 18.3877 12.1576 18.5305 12.8828 18.5305C14.3475 18.5305 15.7523 17.9487 16.788 16.913C17.8237 15.8773 18.4055 14.4725 18.4055 13.0078C18.4055 11.5431 17.8237 10.1384 16.788 9.10269C15.7523 8.06698 14.3475 7.48513 12.8828 7.48513C12.1576 7.48513 11.4394 7.62798 10.7694 7.90552C10.0993 8.18306 9.49053 8.58986 8.9777 9.10269C8.46487 9.61552 8.05807 10.2243 7.78053 10.8944C7.50299 11.5644 7.36014 12.2826 7.36014 13.0078C7.36014 13.7331 7.50299 14.4512 7.78053 15.1213C8.05807 15.7913 8.46487 16.4001 8.9777 16.913C9.49053 17.4258 10.0993 17.8326 10.7694 18.1101ZM8.96539 9.09039C10.0044 8.05142 11.4135 7.46773 12.8828 7.46773C14.3522 7.46773 15.7613 8.05142 16.8003 9.09039C17.8392 10.1294 18.4229 11.5385 18.4229 13.0078C18.4229 14.4772 17.8392 15.8863 16.8003 16.9253C15.7613 17.9642 14.3522 18.5479 12.8828 18.5479C11.4135 18.5479 10.0044 17.9642 8.96539 16.9253C7.92642 15.8863 7.34274 14.4772 7.34274 13.0078C7.34274 11.5385 7.92642 10.1294 8.96539 9.09039ZM21.5425 6.17787C21.5425 6.59842 21.3755 7.00174 21.0781 7.29911C20.7807 7.59649 20.3774 7.76355 19.9569 7.76355C19.5363 7.76355 19.133 7.59649 18.8356 7.29911C18.5382 7.00174 18.3712 6.59842 18.3712 6.17787C18.3712 5.75732 18.5382 5.35399 18.8356 5.05662C19.133 4.75925 19.5363 4.59218 19.9569 4.59218C20.3774 4.59218 20.7807 4.75925 21.0781 5.05662C21.3755 5.35399 21.5425 5.75732 21.5425 6.17787Z" stroke="#0B0B0B" stroke-linejoin="round"/>
</svg>
