<svg width="30" height="30" viewBox="0 0 30 30" fill="none" xmlns="http://www.w3.org/2000/svg">
<path d="M15.9876 2C19.4338 2 22.6732 3.33687 25.1106 5.77441C26.3126 6.97015 27.2651 8.39336 27.9133 9.95996C28.5613 11.5259 28.8923 13.2047 28.887 14.8994C28.887 22.005 23.1065 27.7861 16.0003 27.7861C13.9054 27.7861 11.859 27.2796 10.0159 26.3066L3.62722 27.9834C3.45437 28.0288 3.27045 27.9786 3.14479 27.8516C3.01914 27.7244 2.97042 27.5395 3.01784 27.3672L4.7278 21.1494C3.66812 19.2377 3.11074 17.0866 3.11354 14.8984C3.10159 7.78004 8.8826 2.00007 15.9876 2ZM15.9876 3C9.43462 3.00007 4.10161 8.33257 4.11354 14.8984V14.9004C4.11091 16.9839 4.65731 19.0316 5.69753 20.8369C5.76421 20.9526 5.78174 21.09 5.74636 21.2188L4.21218 26.7959L9.95046 25.29C10.0742 25.2576 10.2065 25.2745 10.3186 25.3359C12.0589 26.2899 14.0048 26.7861 16.0003 26.7861C22.5543 26.7861 27.887 21.4526 27.887 14.8994V14.8975C27.8921 13.3345 27.5871 11.786 26.9895 10.3418C26.3918 8.89748 25.5137 7.5858 24.4055 6.4834L24.4046 6.48242C22.1552 4.23243 19.17 3 15.9876 3ZM11.6018 8.66602C11.8048 8.66602 12.0169 8.66627 12.219 8.67871C12.3353 8.67874 12.5635 8.68174 12.7981 8.81641C13.0404 8.95546 13.2178 9.19014 13.3557 9.50293C13.4995 9.82255 13.7217 10.3688 13.9124 10.8408C14.0088 11.0796 14.0983 11.3011 14.1682 11.4717C14.203 11.5566 14.2317 11.6271 14.2542 11.6797L14.2844 11.749L14.2932 11.7656C14.4014 11.982 14.5192 12.35 14.3186 12.7529C14.3148 12.7606 14.3111 12.7689 14.3069 12.7764C14.2282 12.916 14.1295 13.1454 13.9378 13.3711L13.9358 13.373C13.8126 13.5168 13.5993 13.7875 13.4426 13.9434C13.4383 13.9477 13.4335 13.9519 13.429 13.9561C13.4159 13.9681 13.4044 13.978 13.3948 13.9873C13.6052 14.3246 14.1797 15.2477 15.011 15.9883C15.849 16.7369 16.5695 17.0891 17.0257 17.2891L17.388 17.4473L17.3958 17.4512C17.4285 17.4675 17.4551 17.4746 17.4739 17.4814C17.6582 17.2842 18.2257 16.6189 18.4016 16.3438L18.4075 16.335C18.5628 16.1025 18.7797 15.9236 19.0803 15.8896C19.323 15.8622 19.553 15.9453 19.68 15.9893H19.6819C19.8621 16.0523 20.3475 16.2851 20.7835 16.4971L21.8489 17.0186L21.8714 17.0303C21.9396 17.0673 22.0042 17.0999 22.0676 17.1318C22.1281 17.1623 22.1945 17.1959 22.2542 17.2285C22.3417 17.2764 22.4953 17.3624 22.6087 17.5107L22.6546 17.5781C22.7042 17.6614 22.7272 17.7468 22.7385 17.7988C22.7516 17.8584 22.7594 17.9206 22.7639 17.9805C22.773 18.1008 22.7708 18.2413 22.7581 18.3926C22.7326 18.6961 22.6611 19.0745 22.5208 19.4746L22.5188 19.4795C22.3286 20.0054 21.8289 20.4338 21.387 20.7178C20.9934 20.9707 20.5361 21.1788 20.1653 21.2559L20.013 21.2803C19.7586 21.3088 19.4096 21.3875 18.803 21.3066C18.2137 21.228 17.3826 21.0032 16.0569 20.4805C14.384 19.8177 13.0381 18.6395 12.1018 17.624C11.6313 17.1136 11.2578 16.6378 10.9925 16.2764C10.8597 16.0955 10.7533 15.9434 10.676 15.8301C10.6377 15.7739 10.6064 15.7266 10.5833 15.6924C10.5715 15.6749 10.5619 15.6615 10.555 15.6514C10.5504 15.6447 10.5481 15.641 10.5471 15.6396C10.4633 15.528 10.1289 15.082 9.81472 14.4619C9.50255 13.8457 9.18778 13.0143 9.18776 12.1396C9.18776 10.4073 10.1086 9.53745 10.4036 9.21777C10.8042 8.78188 11.2879 8.6661 11.6018 8.66602ZM10.1878 12.1396C10.1878 12.7899 10.4274 13.4583 10.7073 14.0107C10.8454 14.2834 10.9879 14.5177 11.1048 14.6953L11.3479 15.04C11.5363 15.2922 13.4365 18.3671 16.4241 19.5508L16.8841 19.7275C17.9002 20.107 18.5215 20.2603 18.9348 20.3154C19.3896 20.3761 19.5889 20.3221 19.9016 20.2871C20.076 20.2677 20.4578 20.1263 20.846 19.877C21.2419 19.6225 21.504 19.3448 21.5784 19.1396C21.6888 18.8237 21.7434 18.53 21.762 18.3086C21.7691 18.2241 21.7684 18.1546 21.7669 18.1016C21.7273 18.0801 21.6806 18.0562 21.6175 18.0244C21.5592 17.995 21.4912 17.9606 21.4173 17.9209L20.3469 17.3965C19.8777 17.1683 19.4639 16.9728 19.3528 16.9336C19.3007 16.9156 19.2628 16.9056 19.2337 16.8975C18.9987 17.2581 18.396 17.961 18.2063 18.1641L18.2053 18.1631C18.0646 18.3196 17.8723 18.4587 17.6116 18.4893C17.3641 18.5182 17.1368 18.4398 16.9485 18.3457C16.658 18.2094 15.584 17.8422 14.344 16.7344C13.3643 15.8612 12.7132 14.7825 12.5266 14.4844C12.5222 14.4773 12.518 14.4702 12.5139 14.4629C12.3738 14.2115 12.3256 13.9387 12.4231 13.6709C12.5011 13.4572 12.655 13.3099 12.7366 13.2344C12.8576 13.114 12.9975 12.931 13.177 12.7217C13.2828 12.5968 13.2874 12.5489 13.427 12.2998V12.292C13.4258 12.2806 13.4199 12.2554 13.3987 12.2129C13.3612 12.1391 13.3008 11.9931 13.2424 11.8506C13.1713 11.677 13.0813 11.4517 12.9856 11.2148C12.7921 10.7357 12.5785 10.2108 12.4446 9.91309L12.4426 9.90918C12.3988 9.80929 12.3609 9.751 12.3352 9.71875C12.3228 9.70321 12.3133 9.69423 12.3079 9.68945C12.3052 9.68711 12.3032 9.6854 12.302 9.68457L12.301 9.68359C12.3 9.68335 12.2974 9.68299 12.2952 9.68262C12.2811 9.68033 12.26 9.67872 12.2083 9.67871C12.1974 9.67871 12.186 9.67845 12.1751 9.67773C12.0056 9.66648 11.8198 9.66602 11.6018 9.66602C11.514 9.66611 11.3177 9.70115 11.1399 9.89453L11.1389 9.89551C10.8533 10.2051 10.1878 10.8234 10.1878 12.1396Z" fill="#0B0B0B"/>
</svg>
