<svg width="30" height="30" viewBox="0 0 30 30" fill="none" xmlns="http://www.w3.org/2000/svg">
<path d="M14.9873 1.99951C18.4336 1.99951 21.673 3.33638 24.1104 5.77393C25.3123 6.96966 26.2648 8.39287 26.9131 9.95947C27.5611 11.5254 27.8921 13.2042 27.8867 14.8989C27.8867 22.0045 22.1063 27.7856 15 27.7856C12.9052 27.7856 10.8588 27.2792 9.01564 26.3062L2.62697 27.9829C2.45412 28.0283 2.2702 27.9781 2.14455 27.8511C2.01889 27.7239 1.97018 27.5391 2.0176 27.3667L3.72756 21.1489C2.66788 19.2372 2.11049 17.0861 2.1133 14.8979C2.10134 7.77956 7.88236 1.99959 14.9873 1.99951ZM14.9873 2.99951C8.43437 2.99959 3.10136 8.33209 3.1133 14.8979V14.8999C3.11066 16.9834 3.65707 19.0311 4.69728 20.8364C4.76396 20.9521 4.78149 21.0895 4.74611 21.2183L3.21193 26.7954L8.95021 25.2896C9.07391 25.2571 9.20624 25.274 9.31838 25.3354C11.0586 26.2894 13.0046 26.7856 15 26.7856C21.554 26.7856 26.8867 21.4522 26.8867 14.8989V14.897C26.8918 13.334 26.5869 11.7855 25.9893 10.3413C25.3916 8.897 24.5134 7.58531 23.4053 6.48291L23.4043 6.48193C21.155 4.23194 18.1697 2.99951 14.9873 2.99951ZM10.6016 8.66553C10.8046 8.66553 11.0166 8.66578 11.2188 8.67822C11.3351 8.67825 11.5632 8.68126 11.7979 8.81592C12.0402 8.95497 12.2176 9.18965 12.3555 9.50244C12.4992 9.82206 12.7215 10.3683 12.9121 10.8403C13.0086 11.0791 13.0981 11.3006 13.168 11.4712C13.2028 11.5561 13.2315 11.6266 13.2539 11.6792L13.2842 11.7485L13.293 11.7651C13.4011 11.9815 13.519 12.3495 13.3184 12.7524C13.3146 12.7601 13.3109 12.7684 13.3067 12.7759C13.2279 12.9155 13.1293 13.1449 12.9375 13.3706L12.9356 13.3726C12.8123 13.5163 12.599 13.787 12.4424 13.9429C12.438 13.9472 12.4333 13.9514 12.4287 13.9556C12.4157 13.9676 12.4042 13.9775 12.3945 13.9868C12.6049 14.3241 13.1795 15.2473 14.0108 15.9878L14.2178 16.1665C14.9672 16.7937 15.6072 17.1053 16.0254 17.2886L16.3877 17.4468L16.3955 17.4507C16.4283 17.4671 16.4549 17.4742 16.4737 17.481C16.6579 17.2837 17.2254 16.6184 17.4014 16.3433L17.4072 16.3345C17.5625 16.102 17.7794 15.9232 18.0801 15.8892C18.3227 15.8617 18.5527 15.9448 18.6797 15.9888H18.6817C18.8619 16.0518 19.3473 16.2846 19.7832 16.4966L20.8487 17.0181L20.8711 17.0298C20.9394 17.0668 21.004 17.0994 21.0674 17.1313C21.1278 17.1618 21.1943 17.1954 21.2539 17.228C21.3415 17.2759 21.495 17.3619 21.6084 17.5103L21.6543 17.5776C21.704 17.6609 21.7269 17.7463 21.7383 17.7983C21.7513 17.858 21.7592 17.9201 21.7637 17.98C21.7728 18.1003 21.7705 18.2408 21.7578 18.3921C21.7323 18.6957 21.6609 19.074 21.5205 19.4741L21.5186 19.479C21.3283 20.0049 20.8286 20.4333 20.3867 20.7173C19.9931 20.9702 19.5359 21.1783 19.1651 21.2554L19.0127 21.2798C18.7584 21.3083 18.4093 21.387 17.8028 21.3062C17.2134 21.2275 16.3823 21.0027 15.0567 20.48C13.3838 19.8172 12.0378 18.639 11.1016 17.6235C10.631 17.1131 10.2575 16.6373 9.99221 16.2759C9.85942 16.095 9.7531 15.9429 9.6758 15.8296C9.63744 15.7734 9.60611 15.7261 9.58303 15.6919C9.57121 15.6744 9.5617 15.6611 9.55471 15.6509C9.55012 15.6442 9.54785 15.6405 9.54689 15.6392C9.46308 15.5275 9.12865 15.0815 8.81447 14.4614C8.5023 13.8452 8.18753 13.0138 8.18752 12.1392C8.18752 10.4068 9.1084 9.53697 9.40334 9.21729C9.80397 8.78139 10.2877 8.66562 10.6016 8.66553ZM9.18752 12.1392C9.18753 12.7894 9.42717 13.4578 9.70705 14.0103C9.8452 14.2829 9.98766 14.5172 10.1045 14.6948L10.3477 15.0396C10.5361 15.2917 12.4363 18.3666 15.4238 19.5503L15.8838 19.7271C16.8999 20.1065 17.5213 20.2598 17.9346 20.3149C18.3893 20.3756 18.5887 20.3217 18.9014 20.2866C19.0758 20.2672 19.4576 20.1258 19.8457 19.8765C20.2416 19.622 20.5038 19.3443 20.5781 19.1392C20.6886 18.8232 20.7432 18.5295 20.7617 18.3081C20.7688 18.2236 20.7681 18.1541 20.7666 18.1011C20.727 18.0796 20.6803 18.0557 20.6172 18.0239C20.5589 17.9945 20.491 17.9601 20.417 17.9204L19.3467 17.396C18.8774 17.1678 18.4637 16.9723 18.3526 16.9331C18.3005 16.9151 18.2625 16.9051 18.2334 16.897C17.9985 17.2576 17.3958 17.9605 17.2061 18.1636L17.2051 18.1626C17.0643 18.3191 16.8721 18.4582 16.6113 18.4888C16.3639 18.5177 16.1365 18.4394 15.9483 18.3452C15.6578 18.2089 14.5838 17.8417 13.3438 16.7339C12.364 15.8607 11.713 14.782 11.5264 14.4839C11.522 14.4768 11.5177 14.4697 11.5137 14.4624C11.3736 14.211 11.3253 13.9382 11.4229 13.6704C11.5009 13.4567 11.6547 13.3094 11.7363 13.2339C11.8573 13.1136 11.9972 12.9305 12.1768 12.7212C12.2825 12.5964 12.2871 12.5484 12.4268 12.2993V12.2915C12.4256 12.2801 12.4197 12.255 12.3985 12.2124C12.3609 12.1386 12.3006 11.9926 12.2422 11.8501C12.1711 11.6765 12.081 11.4512 11.9854 11.2144C11.7918 10.7352 11.5783 10.2103 11.4444 9.9126L11.4424 9.90869C11.3986 9.8088 11.3607 9.75051 11.335 9.71826C11.3226 9.70272 11.3131 9.69374 11.3076 9.68896C11.305 9.68662 11.3029 9.68491 11.3018 9.68408L11.3008 9.68311C11.2998 9.68286 11.2972 9.6825 11.2949 9.68213C11.2808 9.67985 11.2597 9.67823 11.208 9.67822C11.1971 9.67822 11.1857 9.67796 11.1748 9.67725C11.0054 9.66599 10.8196 9.66553 10.6016 9.66553C10.5138 9.66562 10.3174 9.70066 10.1397 9.89404L10.1387 9.89502C9.85304 10.2047 9.18752 10.8229 9.18752 12.1392Z" fill="white"/>
</svg>
